<?xml version="1.0" encoding="UTF-8"?>
<svg width="850" height="650" xmlns="http://www.w3.org/2000/svg">
    <defs>
        <marker id="arrow" markerWidth="10" markerHeight="10" refX="9" refY="3" orient="auto" markerUnits="strokeWidth">
            <path d="M0,0 L0,6 L9,3 z" fill="black" />
        </marker>
    </defs>
    <style>
        .box { fill: none; stroke: black; stroke-width: 2; }
        .line { stroke: black; stroke-width: 2; fill: none; }
        .text { font-family: sans-serif; font-size: 18px; fill: black; }
        .title { font-family: sans-serif; font-size: 26px; font-weight: bold; fill: black; text-anchor: middle; }
        .small { font-size: 16px; font-weight: bold; }
        .circle { fill: none; stroke: black; stroke-width: 2; }
    </style>
    <circle cx="150" cy="100" r="15" class="circle" />
    <text x="125" y="85" class="text small">+</text>
    <text x="160" y="130" class="text small">-</text>
    <circle cx="390" cy="300" r="15" class="circle" />
    <text x="400" y="285" class="text small">+</text>
    <text x="370" y="330" class="text small">+</text>
    <text x="410" y="320" class="text small">+</text>
    <circle cx="150" cy="500" r="15" class="circle" />
    <text x="125" y="525" class="text small">+</text>
    <text x="160" y="485" class="text small">-</text>
    <circle cx="700" cy="300" r="15" class="circle" />
    <text x="710" y="285" class="text small">+</text>
    <text x="710" y="330" class="text small">+</text>
    <rect x="110" y="160" width="80" height="50" class="box" />
    <text x="150" y="190" text-anchor="middle" class="text">H(s)</text>
    <rect x="350" y="160" width="80" height="50" class="box" />
    <text x="390" y="190" text-anchor="middle" class="text">G(s)</text>
    <text x="500" y="150" text-anchor="middle" class="text">Extender</text>
    <rect x="660" y="160" width="80" height="50" class="box" />
    <text x="700" y="190" text-anchor="middle" class="text">B(s)</text>
    <text x="700" y="140" text-anchor="middle" class="text">性能滤波器</text>
    <rect x="110" y="390" width="80" height="50" class="box" />
    <text x="150" y="420" text-anchor="middle" class="text">E(s)</text>
    <rect x="350" y="390" width="80" height="50" class="box" />
    <text x="390" y="420" text-anchor="middle" class="text">Gc(s)</text>
    <rect x="550" y="275" width="80" height="50" class="box" />
    <text x="590" y="305" text-anchor="middle" class="text">K(s)</text>
    <text x="590" y="350" text-anchor="middle" class="text">稳定性</text>
    <text x="590" y="375" text-anchor="middle" class="text">控制器</text>
    <rect x="430" y="275" width="80" height="50" class="box" />
    <text x="470" y="305" text-anchor="middle" class="text">G1(s)</text>
    <path d="M 50 100 L 135 100" class="line" marker-end="url(#arrow)" />
    <text x="90" y="90" text-anchor="middle" class="text">U(s)</text>
    <text x="90" y="130" text-anchor="middle" class="text">人</text>
    <path d="M 165 100 L 700 100 L 700 160" class="line" marker-end="url(#arrow)" />
    <circle cx="390" cy="100" r="4" fill="black" />
    <path d="M 390 100 L 390 160" class="line" marker-end="url(#arrow)" />
    <path d="M 390 210 L 390 285" class="line" marker-end="url(#arrow)" />
    <path d="M 375 300 L 150 300" class="line" marker-end="url" />
    <text x="260" y="290" text-anchor="middle" class="text">P(s)</text>
    <circle cx="150" cy="300" r="4" fill="black" />
    <path d="M 150 300 L 150 210" class="line" marker-end="url(#arrow)" />
    <path d="M 150 300 L 150 390" class="line" marker-end="url(#arrow)" />
    <path d="M 150 160 L 150 115" class="line" marker-end="url(#arrow)" />
    <path d="M 150 440 L 150 485" class="line" marker-end="url(#arrow)" />
    <path d="M 50 500 L 135 500" class="line" marker-end="url(#arrow)" />
    <text x="90" y="490" text-anchor="middle" class="text">F(s)</text>
    <text x="90" y="460" text-anchor="middle" class="text">负载</text>
    <path d="M 165 500 L 700 500 L 700 315" class="line" marker-end="url(#arrow)" />
    <circle cx="390" cy="500" r="4" fill="black" />
    <path d="M 390 500 L 390 440" class="line" marker-end="url(#arrow)" />
    <path d="M 390 390 L 390 315" class="line" marker-end="url(#arrow)" />
    <path d="M 700 210 L 700 285" class="line" marker-end="url(#arrow)" />
    <path d="M 685 300 L 630 300" class="line" marker-end="url(#arrow)" />
    <path d="M 550 300 L 510 300" class="line" marker-end="url(#arrow)" />
    <path d="M 430 300 L 405 300" class="line" marker-end="url(#arrow)" />
    <text x="425" y="600" class="title">图2 增强器控制系统</text>
</svg>