<svg width="500" height="200" xmlns="http://www.w3.org/2000/svg">
  <defs>
    <marker id="arrow" viewBox="0 0 10 10" refX="10" refY="5" markerWidth="6" markerHeight="6" orient="auto-start-reverse">
      <path d="M 0 0 L 10 5 L 0 10 z" fill="black" />
    </marker>
  </defs>
  <text x="10" y="55" font-family="Arial" font-size="16">u(t)</text>
  <line x1="40" y1="50" x2="80" y2="50" stroke="black" stroke-width="2" />
  <circle cx="80" cy="50" r="3" fill="black" />
  <line x1="80" y1="50" x2="110" y2="50" stroke="black" stroke-width="2" marker-end="url(#arrow)" />
  <rect x="110" y="25" width="60" height="50" fill="none" stroke="black" stroke-width="2" />
  <text x="140" y="55" font-family="serif" font-size="20" text-anchor="middle">1/s</text>
  <line x1="170" y1="50" x2="220" y2="50" stroke="black" stroke-width="2" marker-end="url(#arrow)" />
  <rect x="220" y="25" width="80" height="50" fill="none" stroke="black" stroke-width="2" />
  <text x="260" y="42" font-family="serif" font-size="18" text-anchor="middle">a</text>
  <line x1="240" y1="48" x2="280" y2="48" stroke="black" stroke-width="1" />
  <text x="260" y="65" font-family="serif" font-size="18" text-anchor="middle">s+b</text>
  <line x1="300" y1="50" x2="420" y2="50" stroke="black" stroke-width="2" marker-end="url(#arrow)" />
  <text x="430" y="55" font-family="Arial" font-size="16">y(t)</text>
  <circle cx="360" cy="50" r="3" fill="black" />
  <path d="M 360 50 L 360 120 L 80 120 L 80 55" fill="none" stroke="black" stroke-width="2" marker-end="url(#arrow)" />
</svg>