<?xml version="1.0" encoding="utf-8" standalone="yes"?><svg xmlns="http://www.w3.org/2000/svg" xmlns:xlink="http://www.w3.org/1999/xlink" version="1.1" width="1280" height="720"><defs /><g transform="scale(1.33333)"><g><rect x="0" y="0" width="960" height="540" style="fill: #ffffff; stroke: #000000; stroke-width: 1" /><g transform="matrix(1,0,0,1,0,0)"><path d="M0,0 L960,0 L960,540 L0,540 Z" transform="matrix(1,0,0,1,0,0)" fill="#ffffff" fill-rule="evenodd" /><path d="M225.049987793,69.599998474 L302.249969482,69.599998474 L302.249969482,163.600006104 L225.049987793,163.600006104 Z" transform="matrix(1,0,0,1,0,0)" stroke-width="1" stroke-miterlimit="10" stroke="#000000" fill="none" fill-rule="evenodd" /><text transform="matrix(1,0,0,1,232.249984741,73.199996948)"><tspan x="0.260347366" y="49.448005676" font-family="Calibri" font-weight="normal" font-style="normal" font-size="18" fill="#000000">Count20</tspan></text><path d="M302.557556152,82.650054932 L337.657806396,83.181861877 L337.64263916,84.181747437 L302.542388916,83.649940491 Z" transform="matrix(1,0,0,-1,0,166.850006104)" fill="#000000" fill-rule="evenodd" /><path d="M338.599243164,83.26739502 L338.586242676,84.124794006 L331.155273438,79.511650085 L331.68270874,78.66204834 L331.68270874,78.66204834 L339.821685791,83.71472168 L339.821685791,83.71472168 L331.533325195,88.518417358 L331.533325195,88.518417358 L331.031890869,87.65322113 Z" transform="matrix(1,0,0,-1,0,166.850006104)" fill="#000000" fill-rule="evenodd" /><path d="M331.533325195,88.518417358 L331.031890869,87.65322113 L331.031890869,87.65322113 L338.599243164,83.26739502 L338.586242676,84.124794006 L338.586242676,84.124794006 L331.155273438,79.511650085 L331.68270874,78.66204834 L339.821685791,83.71472168 Z" transform="matrix(1,0,0,-1,0,166.850006104)" fill="#000000" fill-rule="evenodd" /><path d="M302.557556152,142.60005188 L337.657806396,143.131866455 L337.64263916,144.131759644 L302.542388916,143.599945068 Z" transform="matrix(1,0,0,-1,0,286.75)" fill="#000000" fill-rule="evenodd" /><path d="M338.599243164,143.217407227 L338.586242676,144.074798584 L331.155273438,139.461654663 L331.68270874,138.612060547 L331.68270874,138.612060547 L339.821685791,143.664733887 L339.821685791,143.664733887 L331.533325195,148.468414307 L331.533325195,148.468414307 L331.031890869,147.603225708 Z" transform="matrix(1,0,0,-1,0,286.75)" fill="#000000" fill-rule="evenodd" /><path d="M331.533325195,148.468414307 L331.031890869,147.603225708 L331.031890869,147.603225708 L338.599243164,143.217407227 L338.586242676,144.074798584 L338.586242676,144.074798584 L331.155273438,139.461654663 L331.68270874,138.612060547 L339.821685791,143.664733887 Z" transform="matrix(1,0,0,-1,0,286.75)" fill="#000000" fill-rule="evenodd" /><path d="M188.457565308,83.200050354 L223.557846069,83.731864929 L223.542694092,84.731750488 L188.44241333,84.199935913 Z" transform="matrix(1,0,0,-1,0,167.949996948)" fill="#000000" fill-rule="evenodd" /><path d="M224.499267578,83.817398071 L224.486282349,84.674797058 L217.055328369,80.061653137 L217.582748413,79.212051392 L217.582748413,79.212051392 L225.721710205,84.264724731 L225.721710205,84.264724731 L217.433380127,89.06842041 L217.433380127,89.06842041 L216.931930542,88.203224182 Z" transform="matrix(1,0,0,-1,0,167.949996948)" fill="#000000" fill-rule="evenodd" /><path d="M217.433380127,89.06842041 L216.931930542,88.203224182 L216.931930542,88.203224182 L224.499267578,83.817398071 L224.486282349,84.674797058 L224.486282349,84.674797058 L217.055328369,80.061653137 L217.582748413,79.212051392 L225.721710205,84.264724731 Z" transform="matrix(1,0,0,-1,0,167.949996948)" fill="#000000" fill-rule="evenodd" /><path d="M182.207565308,141.500045776 L217.307846069,142.031860352 L217.292694092,143.03175354 L182.19241333,142.499938965 Z" transform="matrix(1,0,0,-1,0,284.549987793)" fill="#000000" fill-rule="evenodd" /><path d="M218.249267578,142.117401123 L218.236282349,142.97479248 L210.805328369,138.36164856 L211.332748413,137.512054443 L211.332748413,137.512054443 L219.471710205,142.564727783 L219.471710205,142.564727783 L211.183380127,147.368408203 L211.183380127,147.368408203 L210.681930542,146.503219604 Z" transform="matrix(1,0,0,-1,0,284.549987793)" fill="#000000" fill-rule="evenodd" /><path d="M211.183380127,147.368408203 L210.681930542,146.503219604 L210.681930542,146.503219604 L218.249267578,142.117401123 L218.236282349,142.97479248 L218.236282349,142.97479248 L210.805328369,138.36164856 L211.332748413,137.512054443 L219.471710205,142.564727783 Z" transform="matrix(1,0,0,-1,0,284.549987793)" fill="#000000" fill-rule="evenodd" /><path d="M218.499984741,142.475006104 C218.499984741,140.74911499 219.831939697,139.350006104 221.474975586,139.349990845 L221.474975586,139.349990845 L221.474945068,139.349990845 L221.474945068,139.349990845 C223.117996216,139.349975586 224.449951172,140.749084473 224.449951172,142.474975586 L224.449951172,142.474975586 C224.449951172,142.474975586 224.449951172,142.474990845 224.449951172,142.474990845 L224.449951172,142.474990845 L224.449920654,142.474975586 L224.449920654,142.474975586 C224.449920654,144.200866699 223.117965698,145.599975586 221.47492981,145.599975586 L221.47492981,145.599975586 L221.474914551,145.599960327 L221.474914551,145.599960327 C219.831863403,145.599975586 218.499908447,144.200866699 218.499908447,142.474975586 L218.499908447,142.474975586 C218.499908447,142.474975586 218.499908447,142.474960327 218.499908447,142.474960327 Z" transform="matrix(1,0,0,1,0,0)" stroke-width="1" stroke-miterlimit="10" stroke="#000000" fill="none" fill-rule="evenodd" /><path d="M221.699996948,89.949996948 L227.067459106,78 L234.75,89.949996948 Z" transform="matrix(0.91354543,-0.406736642,0.406736642,0.91354543,-14.424606323,100.087493896)" stroke-width="1" stroke-miterlimit="10" stroke="#000000" fill="none" fill-rule="evenodd" /><text transform="matrix(1,0,0,1,320.100006104,123.650001526)"><tspan x="0" y="13.104001045" font-family="Calibri" font-weight="normal" font-style="normal" font-size="14" fill="#000000">CO</tspan></text><text transform="matrix(1,0,0,1,319,63.550003052)"><tspan x="0" y="13.104001045" font-family="Calibri" font-weight="normal" font-style="normal" font-size="14" fill="#000000">qout</tspan></text><text transform="matrix(1,0,0,1,182.899993896,123.650001526)"><tspan x="0" y="13.104001045" font-family="Calibri" font-weight="normal" font-style="normal" font-size="14" fill="#000000">Clr</tspan></text><text transform="matrix(1,0,0,1,182.899993896,63.150001526)"><tspan x="0" y="13.104001045" font-family="Calibri" font-weight="normal" font-style="normal" font-size="14" fill="#000000">clk</tspan></text></g></g></g></svg>