<?xml version="1.0" encoding="utf-8" standalone="yes"?><svg xmlns="http://www.w3.org/2000/svg" xmlns:xlink="http://www.w3.org/1999/xlink" version="1.1" width="1280" height="720"><defs /><g transform="scale(1.33333)"><g><rect x="0" y="0" width="960" height="540" style="fill: #ffffff; stroke: #000000; stroke-width: 1" /><g transform="matrix(1,0,0,1,0,0)"><path d="M0,0 L960,0 L960,540 L0,540 Z" transform="matrix(1,0,0,1,0,0)" fill="#ffffff" fill-rule="evenodd" /><path d="M482.799987793,131.75 L551.900024414,131.75 L551.900024414,221.600006104 L482.799987793,221.600006104 Z" transform="matrix(1,0,0,1,0,0)" stroke-width="1" stroke-miterlimit="10" stroke="#000000" fill="none" fill-rule="evenodd" /><text transform="matrix(1,0,0,1,490,135.350006104)"><tspan x="21.812908173" y="47.373008728" font-family="Calibri" font-weight="normal" font-style="normal" font-size="18" fill="#000000">D</tspan></text><path d="M651.799987793,84.399993896 L676.099975586,84.399993896 L676.099975586,121.249984741 L651.799987793,121.249984741 Z" transform="matrix(1,0,0,1,0,0)" stroke-width="1" stroke-miterlimit="10" stroke="#000000" fill="none" fill-rule="evenodd" /><text transform="matrix(1,0,0,1,659,87.999992371)"><tspan x="-1.189165592" y="20.873001099" font-family="Calibri" font-weight="normal" font-style="normal" font-size="18" fill="#000000">&amp;</tspan></text><path d="M482.799987793,131.75 L507.100006104,131.75 L507.100006104,163.399993896 L482.799987793,163.399993896 Z" transform="matrix(1,0,0,1,0,0)" stroke-width="1" stroke-miterlimit="10" stroke="#000000" fill="none" fill-rule="evenodd" /><text transform="matrix(1,0,0,1,490,135.350006104)"><tspan x="-1.189150333" y="18.27299881" font-family="Calibri" font-weight="normal" font-style="normal" font-size="18" fill="#000000">&amp;</tspan></text><path d="M143.899993896,86.849998474 L221.945907593,86.849998474 L221.945907593,144.399993896 L650.099975586,144.399993896 " transform="matrix(1,0,0,-1,0,231.25)" stroke-width="1" stroke-miterlimit="10" stroke="#000000" fill="none" fill-rule="evenodd" /><path d="M140.449996948,143.850006104 L251.600006104,143.850006104 " transform="matrix(1,0,0,1,0,0)" stroke-width="1" stroke-miterlimit="10" stroke="#000000" fill="none" fill-rule="evenodd" /><path d="M220.5,105.25 L436.450012207,107.550003052 " transform="matrix(1,0,0,1,0,0)" stroke-width="1" stroke-miterlimit="10" stroke="#000000" fill="none" fill-rule="evenodd" /><path d="M437.049987793,107 L437.049987793,139.598434448 " transform="matrix(1,0,0,1,0,0)" stroke-width="1" stroke-miterlimit="10" stroke="#000000" fill="none" fill-rule="evenodd" /><path d="M437.049987793,138.399993896 L481.399993896,138.949996948 " transform="matrix(1,0,0,1,0,0)" stroke-width="1" stroke-miterlimit="10" stroke="#000000" fill="none" fill-rule="evenodd" /><path d="M252.199996948,131.75 L321.299987793,131.75 L321.299987793,221.600006104 L252.199996948,221.600006104 Z" transform="matrix(1,0,0,1,0,0)" stroke-width="1" stroke-miterlimit="10" stroke="#000000" fill="none" fill-rule="evenodd" /><text transform="matrix(1,0,0,1,259.399993896,135.350006104)"><tspan x="21.812885284" y="47.373008728" font-family="Calibri" font-weight="normal" font-style="normal" font-size="18" fill="#000000">D</tspan></text><path d="M252.200012207,131.75 L276.500030518,131.75 L276.500030518,163.399993896 L252.200012207,163.399993896 Z" transform="matrix(1,0,0,1,0,0)" stroke-width="1" stroke-miterlimit="10" stroke="#000000" fill="none" fill-rule="evenodd" /><text transform="matrix(1,0,0,1,259.400024414,135.350006104)"><tspan x="-1.189150333" y="18.27299881" font-family="Calibri" font-weight="normal" font-style="normal" font-size="18" fill="#000000">&amp;</tspan></text><path d="M321.849975586,199.224990845 C321.849975586,197.581939697 323.181915283,196.249984741 324.824951172,196.249984741 L324.824951172,196.249984741 L324.824890137,196.249969482 L324.824890137,196.249969482 C326.467956543,196.249969482 327.79989624,197.58190918 327.79989624,199.224960327 L327.79989624,199.224960327 C327.79989624,199.224960327 327.79989624,199.224975586 327.79989624,199.224975586 L327.79989624,199.224975586 L327.799835205,199.224945068 L327.799835205,199.224945068 C327.799835205,200.867996216 326.467895508,202.199951172 324.824859619,202.199951172 L324.824859619,202.199951172 L324.824829102,202.199920654 L324.824829102,202.199920654 C323.181762695,202.199920654 321.849822998,200.867965698 321.849822998,199.22492981 Z" transform="matrix(1,0,0,1,0,0)" stroke-width="1" stroke-miterlimit="10" stroke="#000000" fill="none" fill-rule="evenodd" /><path d="M408.000030518,194 L432.300048828,194 L432.300048828,230.849990845 L408.000030518,230.849990845 Z" transform="matrix(1,0,0,1,0,0)" stroke-width="1" stroke-miterlimit="10" stroke="#000000" fill="none" fill-rule="evenodd" /><text transform="matrix(1,0,0,1,415.200042725,197.600006104)"><tspan x="-1.189150333" y="20.873004913" font-family="Calibri" font-weight="normal" font-style="normal" font-size="18" fill="#000000">&amp;</tspan></text><path d="M432.299957275,211.974990845 C432.299957275,210.331939697 433.631896973,208.999984741 435.274932861,208.999984741 L435.274932861,208.999984741 L435.274871826,208.999969482 L435.274871826,208.999969482 C436.917938232,208.999969482 438.24987793,210.33190918 438.24987793,211.974960327 L438.24987793,211.974960327 C438.24987793,211.974960327 438.24987793,211.974975586 438.24987793,211.974975586 L438.24987793,211.974975586 L438.249816895,211.974945068 L438.249816895,211.974945068 C438.249816895,213.617996216 436.917877197,214.949951172 435.274841309,214.949951172 L435.274841309,214.949951172 L435.274810791,214.949920654 L435.274810791,214.949920654 C433.631744385,214.949920654 432.299804688,213.617965698 432.299804688,211.97492981 Z" transform="matrix(1,0,0,1,0,0)" stroke-width="1" stroke-miterlimit="10" stroke="#000000" fill="none" fill-rule="evenodd" /><path d="M552.749938965,199.224990845 C552.749938965,197.581939697 554.08190918,196.249984741 555.724914551,196.249984741 L555.724914551,196.249984741 L555.724853516,196.249969482 L555.724853516,196.249969482 C557.367919922,196.249969482 558.699890137,197.58190918 558.699890137,199.224960327 L558.699890137,199.224960327 C558.699890137,199.224960327 558.699890137,199.224975586 558.699890137,199.224975586 L558.699890137,199.224975586 L558.699890137,199.224945068 L558.699890137,199.224945068 C558.699890137,200.867996216 557.367919922,202.199951172 555.724914551,202.199951172 L555.724914551,202.199951172 L555.724914551,202.199920654 L555.724914551,202.199920654 C554.081848145,202.199920654 552.74987793,200.867965698 552.74987793,199.22492981 Z" transform="matrix(1,0,0,1,0,0)" stroke-width="1" stroke-miterlimit="10" stroke="#000000" fill="none" fill-rule="evenodd" /><path d="M249.350006104,207.449996948 L254.717468262,195.5 L262.399993896,207.449996948 Z" transform="matrix(0.91354543,-0.406736642,0.406736642,0.91354543,-59.825683594,121.492179871)" stroke-width="1" stroke-miterlimit="10" stroke="#000000" fill="none" fill-rule="evenodd" /><path d="M480.450012207,208 L485.817474365,196.050003052 L493.5,208 Z" transform="matrix(0.91354543,-0.406736642,0.406736642,0.91354543,-40.069732666,215.536560059)" stroke-width="1" stroke-miterlimit="10" stroke="#000000" fill="none" fill-rule="evenodd" /><path d="M551.650024414,113.900001526 L601.199829102,113.900001526 L601.199829102,154.199996948 L650.700012207,154.199996948 " transform="matrix(1,0,0,-1,0,268.100006104)" stroke-width="1" stroke-miterlimit="10" stroke="#000000" fill="none" fill-rule="evenodd" /><path d="M327.799987793,102.850006104 L358.49899292,102.850006104 L358.49899292,199.250015259 L651.799987793,199.250015259 " transform="matrix(1,0,0,-1,0,302.100006104)" stroke-width="1" stroke-miterlimit="10" stroke="#000000" fill="none" fill-rule="evenodd" /><text transform="matrix(1,0,0,1,129.399993896,122.200004578)"><tspan x="0" y="16.84800148" font-family="Calibri" font-weight="normal" font-style="normal" font-size="18" fill="#000000">A</tspan></text><path d="M408,199.25 L389.249908447,199.25 L389.249908447,249.599945068 L577.450073242,249.599945068 L577.450073242,212.449996948 L558.700012207,212.449996948 " transform="matrix(-1,0,0,1,966.700012207,0)" stroke-width="1" stroke-miterlimit="10" stroke="#000000" fill="none" fill-rule="evenodd" /><path d="M252.199996948,149.25 L408.549377441,149.25 L408.549377441,249.75 L389.800018311,249.75 " transform="matrix(-1,0,0,-1,642,399)" stroke-width="1" stroke-miterlimit="10" stroke="#000000" fill="none" fill-rule="evenodd" /><path d="M0,0 L0,0 " transform="matrix(1,0,0,1,0,0)" stroke-width="1" stroke-miterlimit="10" stroke="#4874cb" fill="none" fill-rule="evenodd" /><path d="M327.799987793,199.149993896 L408.249969482,199.25 " transform="matrix(1,0,0,-1,0,398.399993896)" stroke-width="1" stroke-miterlimit="10" stroke="#000000" fill="none" fill-rule="evenodd" /><path d="M438.25,147.600006104 L460.549957275,147.600006104 L460.549957275,212.000015259 L482.799987793,212.000015259 " transform="matrix(1,0,0,-1,0,359.600006104)" stroke-width="1" stroke-miterlimit="10" stroke="#000000" fill="none" fill-rule="evenodd" /><path d="M676.099975586,102.400001526 L722.700012207,102.849998474 " transform="matrix(1,0,0,-1,0,205.25)" stroke-width="1" stroke-miterlimit="10" stroke="#000000" fill="none" fill-rule="evenodd" /><text transform="matrix(1,0,0,1,710.299987793,77.449996948)"><tspan x="0" y="16.84800148" font-family="Calibri" font-weight="normal" font-style="normal" font-size="18" fill="#000000">Y</tspan></text><path d="M118,284.350006104 L468.700012207,284.950012207 " transform="matrix(1,0,0,-1,0,569.299987793)" stroke-width="1" stroke-miterlimit="10" stroke="#000000" fill="none" fill-rule="evenodd" /><path d="M193.449996948,202.600006104 L195.149993896,284.950012207 " transform="matrix(-1,0,0,1,388.600006104,0)" stroke-width="1" stroke-miterlimit="10" stroke="#000000" fill="none" fill-rule="evenodd" /><path d="M468.149993896,202.600006104 L469.299987793,284.950012207 " transform="matrix(-1,0,0,1,937.450012207,0)" stroke-width="1" stroke-miterlimit="10" stroke="#000000" fill="none" fill-rule="evenodd" /><path d="M195.149993896,202.600006104 L252.350006104,203.050003052 " transform="matrix(1,0,0,1,0,0)" stroke-width="1" stroke-miterlimit="10" stroke="#000000" fill="none" fill-rule="evenodd" /><path d="M469.850006104,203.149993896 L483.450012207,203.600006104 " transform="matrix(1,0,0,1,0,0)" stroke-width="1" stroke-miterlimit="10" stroke="#000000" fill="none" fill-rule="evenodd" /></g></g></g></svg>