<?xml version="1.0" encoding="utf-8" standalone="yes"?><svg xmlns="http://www.w3.org/2000/svg" xmlns:xlink="http://www.w3.org/1999/xlink" version="1.1" width="1280" height="720"><defs /><g transform="scale(1.33333)"><g><rect x="0" y="0" width="960" height="540" style="fill: #ffffff; stroke: #000000; stroke-width: 1" /><g transform="matrix(1,0,0,1,0,0)"><path d="M0,0 L960,0 L960,540 L0,540 Z" transform="matrix(1,0,0,1,0,0)" fill="#ffffff" fill-rule="evenodd" /><path d="M187.100006104,111.600006104 L223.399993896,111.600006104 L223.399993896,329.850006104 L187.100006104,329.850006104 Z" transform="matrix(1,0,0,1,0,0)" stroke-width="1" stroke-miterlimit="10" stroke="#000000" fill="none" fill-rule="evenodd" /><text transform="matrix(1,0,0,1,194.300003052,115.200004578)"><tspan x="1.949994087" y="90.441757202" font-family="Microsoft YaHei" font-weight="normal" font-style="normal" font-size="18" fill="#000000">控</tspan></text><text transform="matrix(1,0,0,1,194.300003052,115.200004578)"><tspan x="1.949994087" y="112.041755676" font-family="Microsoft YaHei" font-weight="normal" font-style="normal" font-size="18" fill="#000000">制</tspan></text><text transform="matrix(1,0,0,1,194.300003052,115.200004578)"><tspan x="1.949994087" y="133.64175415" font-family="Microsoft YaHei" font-weight="normal" font-style="normal" font-size="18" fill="#000000">器</tspan></text><path d="M286.75,211.25 L295.649749756,177.850006104 L359.600250244,177.850006104 L368.5,211.25 Z" transform="matrix(1,0,0,1,0,0)" stroke-width="1" stroke-miterlimit="10" stroke="#000000" fill="none" fill-rule="evenodd" /><text transform="matrix(1,0,0,1,299.883178711,183.874084473)"><tspan x="0.741821289" y="18.404720306" font-family="Microsoft YaHei" font-weight="normal" font-style="normal" font-size="18" fill="#000000">加法器</tspan></text><path d="M247.300003052,105.049995422 L296.200012207,105.049995422 L296.200012207,200.549423218 L295.199981689,200.549423218 L295.199981689,105.550003052 L295.700012207,106.050003052 L247.300003052,106.050003052 Z" transform="matrix(0,-1,-1,0,425.149993896,425.149993896)" fill="#000000" fill-rule="evenodd" /><path d="M296.128753662,201.492736816 L295.271240234,201.492752075 L299.771240234,193.992736816 L300.628753662,194.507217407 L300.628753662,194.507217407 L295.700012207,202.721817017 L295.700012207,202.721817017 L290.771209717,194.507232666 L290.771209717,194.507232666 L291.628723145,193.992721558 Z" transform="matrix(0,-1,-1,0,425.149993896,425.149993896)" fill="#000000" fill-rule="evenodd" /><path d="M290.771209717,194.507232666 L291.628723145,193.992721558 L291.628723145,193.992721558 L296.128753662,201.492736816 L295.271240234,201.492752075 L295.271240234,201.492752075 L299.771240234,193.992736816 L300.628753662,194.507217407 L295.700012207,202.721817017 Z" transform="matrix(0,-1,-1,0,425.149993896,425.149993896)" fill="#000000" fill-rule="evenodd" /><path d="M276.649993896,210.5 L247.776092529,210.5 L247.776092529,167.924987793 L486.124420166,167.924987793 L486.124420166,212.399993896 L468.099975586,212.399993896 L468.099975586,211.399978638 L485.624420166,211.399978638 L485.124389648,211.899993896 L485.124389648,168.425003052 L485.624420166,168.925003052 L248.276107788,168.925003052 L248.776107788,168.425003052 L248.776107788,210 L248.276107788,209.499984741 L276.649993896,209.499984741 Z" transform="matrix(0,1,-1,0,582.724975586,-160.824996948)" fill="#000000" fill-rule="evenodd" /><path d="M467.157226563,212.328735352 L467.157226563,211.471237183 L474.657226563,215.971237183 L474.142730713,216.828735352 L474.142730713,216.828735352 L465.928161621,211.899993896 L465.928161621,211.899993896 L474.142730713,206.971221924 L474.142730713,206.971221924 L474.657226563,207.828720093 Z" transform="matrix(0,1,-1,0,582.724975586,-160.824996948)" fill="#000000" fill-rule="evenodd" /><path d="M474.142730713,206.971221924 L474.657226563,207.828720093 L474.657226563,207.828720093 L467.157226563,212.328735352 L467.157226563,211.471237183 L467.157226563,211.471237183 L474.657226563,215.971237183 L474.142730713,216.828735352 L465.928161621,211.899993896 Z" transform="matrix(0,1,-1,0,582.724975586,-160.824996948)" fill="#000000" fill-rule="evenodd" /><path d="M345.999908447,147.890792847 L346.527801514,176.590957642 L345.527954102,176.609344482 L345.000061035,147.909179688 Z" transform="matrix(1,0,0,-1,0,325.699981689)" fill="#000000" fill-rule="evenodd" /><path d="M346.473907471,177.534881592 L345.616577148,177.55065918 L349.977783203,169.969116211 L350.844573975,170.467758179 L350.844573975,170.467758179 L346.067871094,178.771636963 L346.067871094,178.771636963 L340.988769531,170.649154663 L340.988769531,170.649154663 L341.836639404,170.11895752 Z" transform="matrix(1,0,0,-1,0,325.699981689)" fill="#000000" fill-rule="evenodd" /><path d="M340.988769531,170.649154663 L341.836639404,170.11895752 L341.836639404,170.11895752 L346.473907471,177.534881592 L345.616577148,177.55065918 L345.616577148,177.55065918 L349.977783203,169.969116211 L350.844573975,170.467758179 L346.067871094,178.771636963 Z" transform="matrix(1,0,0,-1,0,325.699981689)" fill="#000000" fill-rule="evenodd" /><path d="M268.299987793,275.600006104 L317.799987793,275.600006104 L317.799987793,306.100006104 L268.299987793,306.100006104 Z" transform="matrix(1,0,0,1,0,0)" stroke-width="1" stroke-miterlimit="10" stroke="#000000" fill="none" fill-rule="evenodd" /><text transform="matrix(1,0,0,1,275.5,279.200012207)"><tspan x="7.455762863" y="17.698001862" font-family="Calibri" font-weight="normal" font-style="normal" font-size="18" fill="#000000">RA</tspan></text><path d="M274.049987793,306.249969482 L277.024993896,300.299987793 L279.999969482,306.249969482 Z" transform="matrix(1,0,0,1,0,0)" stroke-width="1" stroke-miterlimit="10" stroke="#000000" fill="none" fill-rule="evenodd" /><path d="M346.049987793,275.600006104 L395.549987793,275.600006104 L395.549987793,306.100006104 L346.049987793,306.100006104 Z" transform="matrix(1,0,0,1,0,0)" stroke-width="1" stroke-miterlimit="10" stroke="#000000" fill="none" fill-rule="evenodd" /><text transform="matrix(1,0,0,1,353.25,279.200012207)"><tspan x="7.767774582" y="17.698001862" font-family="Calibri" font-weight="normal" font-style="normal" font-size="18" fill="#000000">R</tspan></text><text transform="matrix(1,0,0,1,353.25,279.200012207)"><tspan x="17.541210175" y="17.698001862" font-family="Calibri" font-weight="normal" font-style="normal" font-size="18" fill="#000000">B</tspan></text><path d="M351.799987793,306.249969482 L354.774993896,300.299987793 L357.75,306.249969482 Z" transform="matrix(1,0,0,1,0,0)" stroke-width="1" stroke-miterlimit="10" stroke="#000000" fill="none" fill-rule="evenodd" /><path d="M336.799987793,117.300003052 L386.299987793,117.300003052 L386.299987793,147.800003052 L336.799987793,147.800003052 Z" transform="matrix(1,0,0,1,0,0)" stroke-width="1" stroke-miterlimit="10" stroke="#000000" fill="none" fill-rule="evenodd" /><text transform="matrix(1,0,0,1,344,120.900001526)"><tspan x="7.864454269" y="17.698001862" font-family="Calibri" font-weight="normal" font-style="normal" font-size="18" fill="#000000">R</tspan></text><text transform="matrix(1,0,0,1,344,120.900001526)"><tspan x="17.637889862" y="17.698001862" font-family="Calibri" font-weight="normal" font-style="normal" font-size="18" fill="#000000">C</tspan></text><path d="M342.549987793,147.949996948 L345.524993896,142 L348.5,147.949996948 Z" transform="matrix(1,0,0,1,0,0)" stroke-width="1" stroke-miterlimit="10" stroke="#000000" fill="none" fill-rule="evenodd" /><path d="M293.799987793,245.800003052 L303.299987793,226.75 L312.799987793,245.800003052 Z" transform="matrix(1,0,0,1,0,0)" stroke-width="1" stroke-miterlimit="10" stroke="#000000" fill="none" fill-rule="evenodd" /><path d="M226.137008667,305.749969482 L277.660644531,305.749969482 L277.660644531,322.057861328 L276.660614014,322.057861328 L276.660614014,306.25 L277.160644531,306.75 L226.137008667,306.75 Z" transform="matrix(1,0,0,-1,0,629.507873535)" fill="#000000" fill-rule="evenodd" /><path d="M277.589385986,323.000610352 L276.731872559,323.000610352 L281.231872559,315.500579834 L282.089385986,316.015075684 L282.089385986,316.015075684 L277.160644531,324.229675293 L277.160644531,324.229675293 L272.231842041,316.015075684 L272.231842041,316.015075684 L273.089355469,315.500579834 Z" transform="matrix(1,0,0,-1,0,629.507873535)" fill="#000000" fill-rule="evenodd" /><path d="M272.231842041,316.015075684 L273.089355469,315.500579834 L273.089355469,315.500579834 L277.589385986,323.000610352 L276.731872559,323.000610352 L276.731872559,323.000610352 L281.231872559,315.500579834 L282.089385986,316.015075684 L277.160644531,324.229675293 Z" transform="matrix(1,0,0,-1,0,629.507873535)" fill="#000000" fill-rule="evenodd" /><path d="M302.850006104,310.375 L305.825012207,307.399993896 L308.799987793,310.375 L307.3125,310.375 L307.3125,358.649993896 L304.337493896,358.649993896 L304.337493896,310.375 Z" transform="matrix(1,0,0,1,0,0)" stroke-width="1" stroke-miterlimit="10" stroke="#000000" fill="none" fill-rule="evenodd" /><path d="M302.850006104,248.800003052 L305.850006104,245.800003052 L308.850006104,248.800003052 L307.350006104,248.800003052 L307.350006104,275.450012207 L304.350006104,275.450012207 L304.350006104,248.800003052 Z" transform="matrix(1,0,0,1,0,0)" stroke-width="1" stroke-miterlimit="10" stroke="#000000" fill="none" fill-rule="evenodd" /><path d="M253.503631592,233.850006104 L293.503814697,234.141235352 L293.496520996,235.141220093 L253.496353149,234.849990845 Z" transform="matrix(1,0,0,1,0,0)" fill="#000000" fill-rule="evenodd" /><path d="M294.445892334,234.21937561 L294.43963623,235.076843262 L286.97265625,230.522247314 L287.493377686,229.668533325 L287.493377686,229.668533325 L295.671813965,234.657073975 L295.671813965,234.657073975 L287.421447754,239.525756836 L287.421447754,239.525756836 L286.913238525,238.664535522 Z" transform="matrix(1,0,0,1,0,0)" fill="#000000" fill-rule="evenodd" /><path d="M287.421447754,239.525756836 L286.913238525,238.664535522 L286.913238525,238.664535522 L294.445892334,234.21937561 L294.43963623,235.076843262 L294.43963623,235.076843262 L286.97265625,230.522247314 L287.493377686,229.668533325 L295.671813965,234.657073975 Z" transform="matrix(1,0,0,1,0,0)" fill="#000000" fill-rule="evenodd" /><path d="M303.799957275,211.79498291 L303.937896729,225.545059204 L302.937927246,225.555084229 L302.799987793,211.805007935 Z" transform="matrix(1,0,0,-1,0,438.550018311)" fill="#000000" fill-rule="evenodd" /><path d="M303.876098633,226.488449097 L303.01864624,226.497070313 L307.443084717,218.952255249 L308.305725098,219.458099365 L308.305725098,219.458099365 L303.459716797,227.72177124 L303.459716797,227.72177124 L298.448730469,219.55708313 L298.448730469,219.55708313 L299.300994873,219.033996582 Z" transform="matrix(1,0,0,-1,0,438.550018311)" fill="#000000" fill-rule="evenodd" /><path d="M298.448730469,219.55708313 L299.300994873,219.033996582 L299.300994873,219.033996582 L303.876098633,226.488449097 L303.01864624,226.497070313 L303.01864624,226.497070313 L307.443084717,218.952255249 L308.305725098,219.458099365 L303.459716797,227.72177124 Z" transform="matrix(1,0,0,-1,0,438.550018311)" fill="#000000" fill-rule="evenodd" /><path d="M355.200012207,211.800003052 L355.200012207,273.950164795 L354.199981689,273.950164795 L354.199981689,211.800003052 Z" transform="matrix(1,0,0,-1,0,486.950012207)" fill="#000000" fill-rule="evenodd" /><path d="M355.128753662,274.892730713 L354.271240234,274.892730713 L358.771240234,267.392700195 L359.628753662,267.907196045 L359.628753662,267.907196045 L354.700012207,276.121795654 L354.700012207,276.121795654 L349.771209717,267.907196045 L349.771209717,267.907196045 L350.628723145,267.392700195 Z" transform="matrix(1,0,0,-1,0,486.950012207)" fill="#000000" fill-rule="evenodd" /><path d="M349.771209717,267.907196045 L350.628723145,267.392700195 L350.628723145,267.392700195 L355.128753662,274.892730713 L354.271240234,274.892730713 L354.271240234,274.892730713 L358.771240234,267.392700195 L359.628753662,267.907196045 L354.700012207,276.121795654 Z" transform="matrix(1,0,0,-1,0,486.950012207)" fill="#000000" fill-rule="evenodd" /><path d="M293.149963379,234.924987793 C293.149963379,233.281936646 294.481903076,231.949981689 296.124938965,231.949981689 L296.124938965,231.949981689 L296.12487793,231.949966431 L296.12487793,231.949966431 C297.767944336,231.949966431 299.099884033,233.281906128 299.099884033,234.924957275 L299.099884033,234.924957275 C299.099884033,234.924957275 299.099884033,234.924972534 299.099884033,234.924972534 L299.099884033,234.924972534 L299.099822998,234.924942017 L299.099822998,234.924942017 C299.099822998,236.567993164 297.767883301,237.89994812 296.124847412,237.89994812 L296.124847412,237.89994812 L296.124816895,237.899917603 L296.124816895,237.899917603 C294.481750488,237.899917603 293.149810791,236.567962646 293.149810791,234.924926758 Z" transform="matrix(1,0,0,1,0,0)" stroke-width="1" stroke-miterlimit="10" stroke="#000000" fill="none" fill-rule="evenodd" /><text transform="matrix(1,0,0,1,309.950012207,337.5)"><tspan x="0" y="16.84800148" font-family="Calibri" font-weight="normal" font-style="normal" font-size="18" fill="#000000">x</tspan></text><text transform="matrix(1,0,0,1,237.599990845,303.899993896)"><tspan x="0" y="16.84800148" font-family="Calibri" font-weight="normal" font-style="normal" font-size="18" fill="#000000">LA</tspan></text><text transform="matrix(1,0,0,1,341.75,326.850006104)"><tspan x="0" y="16.84800148" font-family="Calibri" font-weight="normal" font-style="normal" font-size="18" fill="#000000">LB</tspan></text><path d="M355.199951172,307.09387207 L355.485198975,330.394012451 L354.485290527,330.40625 L354.200042725,307.106109619 Z" transform="matrix(1,0,0,-1,0,638.700012207)" fill="#000000" fill-rule="evenodd" /><path d="M355.425537109,331.337493896 L354.568115234,331.348022461 L358.975738525,323.793365479 L359.839477539,324.297302246 L359.839477539,324.297302246 L355.011901855,332.571746826 L355.011901855,332.571746826 L349.982727051,324.418243408 L349.982727051,324.418243408 L350.833831787,323.893249512 Z" transform="matrix(1,0,0,-1,0,638.700012207)" fill="#000000" fill-rule="evenodd" /><path d="M349.982727051,324.418243408 L350.833831787,323.893249512 L350.833831787,323.893249512 L355.425537109,331.337493896 L354.568115234,331.348022461 L354.568115234,331.348022461 L358.975738525,323.793365479 L359.839477539,324.297302246 L355.011901855,332.571746826 Z" transform="matrix(1,0,0,-1,0,638.700012207)" fill="#000000" fill-rule="evenodd" /><text transform="matrix(1,0,0,1,250.499984741,108.900001526)"><tspan x="0" y="16.84800148" font-family="Calibri" font-weight="normal" font-style="normal" font-size="18" fill="#000000">OF</tspan></text><text transform="matrix(1,0,0,1,254.900009155,211.400009155)"><tspan x="0" y="16.84800148" font-family="Calibri" font-weight="normal" font-style="normal" font-size="18" fill="#000000">AD</tspan></text><text transform="matrix(1,0,0,1,254.900009155,211.400009155)"><tspan x="21.489253998" y="21.34800148" font-family="Calibri" font-weight="normal" font-style="normal" font-size="11.880000114" fill="#000000">0</tspan></text></g></g></g></svg>