<?xml version="1.0" encoding="UTF-8" standalone="no"?>
<svg
   width="8704"
   height="8704"
   viewBox="0 0 8704 8704"
   fill="none"
   version="1.1"
   id="svg6"
   sodipodi:docname="favicon.svg"
   inkscape:version="1.4.4 (dcaf3e7d9e, 2026-05-05)"
   xmlns:inkscape="http://www.inkscape.org/namespaces/inkscape"
   xmlns:sodipodi="http://sodipodi.sourceforge.net/DTD/sodipodi-0.dtd"
   xmlns="http://www.w3.org/2000/svg"
   xmlns:svg="http://www.w3.org/2000/svg">
  <defs
     id="defs6" />
  <sodipodi:namedview
     id="namedview6"
     pagecolor="#ffffff"
     bordercolor="#111111"
     borderopacity="1"
     inkscape:showpageshadow="0"
     inkscape:pageopacity="0"
     inkscape:pagecheckerboard="1"
     inkscape:deskcolor="#d1d1d1"
     inkscape:zoom="0.06363961"
     inkscape:cx="3119.1266"
     inkscape:cy="5703.9947"
     inkscape:window-width="1731"
     inkscape:window-height="1043"
     inkscape:window-x="0"
     inkscape:window-y="0"
     inkscape:window-maximized="0"
     inkscape:current-layer="svg6" />
  <g
     id="g7"
     inkscape:label="true-icon"
     transform="translate(366.5,779.80348)">
    <g
       id="g8"
       inkscape:label="tablet">
      <path
         d="m 752.10834,5750.9485 c 42.14883,-53.2445 106.32652,-84.2888 174.22756,-84.2888 h 6118.3257 c 67.8999,0 132.0776,31.0443 174.2331,84.2888 l 703.6992,888.8877 c 115.3331,145.6776 11.5778,360.1551 -174.2332,360.1551 H 222.63677 c -185.807546,0 -289.562972,-214.4775 -174.232004,-360.1551 z"
         fill="#5583f9"
         id="path1"
         style="stroke-width:111.111"
         sodipodi:nodetypes="cssccsscc" />
      <path
         d="M 3152.1674,6333.3254 H 4818.832 l 277.7775,333.333 H 2874.39 Z"
         fill="#ffffff"
         id="path2"
         style="stroke-width:111.111"
         sodipodi:nodetypes="ccccc" />
    </g>
    <g
       id="g9"
       inkscape:label="book">
      <rect
         x="652.16998"
         y="555.55487"
         width="6666.6582"
         height="4777.772"
         rx="333.33292"
         fill="#5583f9"
         id="rect1"
         style="stroke-width:111.111;stroke-dasharray:none"
         inkscape:label="rect1" />
      <path
         d="M 985.504,0 3985.5003,364.34066 V 5222.2157 L 985.504,4857.8718 Z"
         fill="#5583f9"
         id="path3"
         style="stroke-width:111.111"
         sodipodi:nodetypes="ccccc" />
      <path
         d="M 6985.4962,0 3985.5,364.34066 V 5222.2157 l 2999.9962,-364.3439 z"
         fill="#5583f9"
         id="path5"
         style="stroke-width:111.111"
         sodipodi:nodetypes="ccccc" />
      <path
         d="M 1207.726,222.22194 3985.5,569.44352 V 5013.8825 L 1207.726,4666.6609 Z"
         fill="#ffffff"
         id="path4"
         style="stroke-width:111.111"
         sodipodi:nodetypes="ccccc" />
      <path
         d="M 6763.2744,222.22194 3985.5,569.44352 V 5013.8825 l 2777.7744,-347.2216 z"
         fill="#ffffff"
         id="path6"
         style="stroke-width:111.111"
         sodipodi:nodetypes="ccccc" />
    </g>
    <path
       style="fill:none;stroke:none;stroke-width:0;stroke-linecap:round;stroke-linejoin:round;stroke-dasharray:none"
       d="M 0,0 V 6999.991 H 7971 V 0 Z"
       id="path7"
       sodipodi:nodetypes="ccccc"
       inkscape:label="border" />
  </g>
  <path
     d="m 3916.334,4945.18 c -3.0835,12.186 -19.7921,18.2733 -50.2515,18.2733 -30.4592,0 -47.2022,-6.053 -50.2515,-18.2733 L 2660.0465,2473.7199 c -63.9564,-134.0002 -118.7762,-220.7983 -164.4593,-260.3941 -42.6339,-42.6338 -108.1208,-63.9565 -196.4377,-63.9565 -9.1366,0 -13.7051,-9.1367 -13.7051,-27.4099 0,-18.2732 4.5685,-27.4099 13.7051,-27.4099 l 118.7763,4.5683 c 73.0929,6.053 149.2354,9.1367 228.4158,9.1367 173.5962,0 327.3999,-3.0837 461.4002,-9.1367 42.6338,-3.0835 95.9345,-4.5683 159.891,-4.5683 9.1367,0 13.705,9.1367 13.705,27.4099 0,18.2732 -4.5683,27.4099 -13.705,27.4099 -79.1803,0 -137.0494,9.1367 -173.5961,27.4101 -36.5464,15.2237 -54.8198,44.1639 -54.8198,86.798 0,45.6832 28.929,130.9622 86.7981,255.8257 l 913.6637,1950.6718 -182.7329,283.2357 548.1983,-1425.3152 82.2296,118.7762 z M 6502.002,2094.5495 c 6.053,0 9.1367,9.1367 9.1367,27.4099 0,18.2732 -3.0837,27.4099 -9.1367,27.4099 -109.6396,0 -210.1425,41.1149 -301.509,123.3445 -91.3663,82.2299 -167.5087,201.0061 -228.4158,356.3289 L 5085.8235,4945.18 c -3.0837,12.186 -19.7922,18.2733 -50.2516,18.2733 -30.4591,0 -47.202,-6.053 -50.2513,-18.2733 L 3829.5359,2473.7199 c -51.7703,-109.6396 -102.0218,-190.3503 -150.7545,-242.1207 -48.7324,-54.8198 -105.0712,-82.2299 -169.0276,-82.2299 -9.1367,0 -13.7049,-9.1367 -13.7049,-27.4099 0,-18.2732 4.5682,-27.4099 13.7049,-27.4099 l 109.6395,4.5683 c 67.0058,6.053 134.0004,9.1367 201.0061,9.1367 143.1368,0 269.5308,-3.0837 379.1704,-9.1367 30.4591,-3.0835 70.0436,-4.5683 118.7762,-4.5683 9.1367,0 13.705,9.1367 13.705,27.4099 0,18.2732 -4.5683,27.4099 -13.705,27.4099 -45.683,0 -79.1804,6.053 -100.5031,18.2734 -21.3224,9.1367 -31.9782,28.9286 -31.9782,59.388 0,24.3607 9.1366,62.4376 27.41,114.208 21.3227,51.7705 47.2023,111.1585 77.6614,178.1644 l 922.8003,1950.6718 -182.7327,283.2357 808.5924,-2110.5629 c 30.459,-79.1804 45.6831,-153.8037 45.6831,-223.8476 0,-85.2791 -25.891,-150.7545 -77.6614,-196.4376 -48.7327,-48.7326 -118.7763,-73.0932 -210.1428,-73.0932 -9.1366,0 -13.7048,-9.1367 -13.7048,-27.4099 0,-18.2732 4.5682,-27.4099 13.7048,-27.4099 l 201.0061,4.5683 c 109.6397,6.053 208.6236,9.1367 296.9406,9.1367 60.9072,0 130.9622,-3.0837 210.1427,-9.1367 z m -1795.3489,516.22 c 54.8198,-143.1369 82.2296,-251.2576 82.2296,-324.3505 0,-91.3665 -45.6831,-137.0497 -137.0494,-137.0497 -9.1367,0 -13.7051,-9.1367 -13.7051,-27.4099 0,-18.2732 4.5684,-27.4099 13.7051,-27.4099 27.4098,0 59.388,3.0837 95.9347,9.1367 36.5465,3.0837 103.5523,4.5683 201.0059,4.5683 54.8198,0 118.7763,-3.0837 191.8693,-9.1367 l 178.1644,-4.5683 c 6.0533,0 9.1367,9.1367 9.1367,27.4099 0,18.2732 -3.0834,27.4099 -9.1367,27.4099 -103.5523,0 -194.9186,38.0656 -274.099,114.2081 -79.1803,76.1423 -150.7546,197.9565 -214.711,365.4653 l -315.2139,817.7289 -82.2297,-118.7762 z"
     fill="#494949"
     id="path7-3"
     inkscape:label="letter W"
     style="display:inline;stroke-width:114.209" />
  <rect
     style="display:none;fill:none;stroke:#000000;stroke-width:10;stroke-linecap:round;stroke-linejoin:round;stroke-dasharray:79.9994, 39.9998;stroke-dashoffset:0;stroke-opacity:1;paint-order:normal"
     id="rect2"
     width="8693.9805"
     height="8693.9775"
     x="5.0182776"
     y="5.0009928"
     rx="1740.8"
     ry="1740.8"
     inkscape:label="helping line" />
</svg>
