<svg width="24" height="24" viewBox="0 0 24 24" fill="none" xmlns="http://www.w3.org/2000/svg">
<path d="M20.4258 17.9854C20.6161 17.9854 20.7958 18.0727 20.9141 18.2227L22.8887 20.7305C23.2119 21.1414 22.9206 21.7461 22.3994 21.7461H1.28809C0.767124 21.7458 0.476412 21.1413 0.799805 20.7305L2.77344 18.2227C2.89167 18.0725 3.07222 17.9854 3.2627 17.9854H20.4258ZM9.50586 19.8662L8.72656 20.8057H14.9609L14.1816 19.8662H9.50586Z" fill="black"/>
<path d="M20.2598 3.56738C20.7762 3.56738 21.1953 3.9885 21.1953 4.50781V16.1045C21.1953 16.6238 20.7762 17.0449 20.2598 17.0449H3.42871C2.91231 17.0449 2.49319 16.6238 2.49316 16.1045V4.50781C2.49316 3.9885 2.91229 3.56739 3.42871 3.56738V2L11.8438 3.02637L20.2598 2V3.56738ZM4.05176 15.1641L11.8438 16.1045V3.56738L4.05176 2.62695V15.1641ZM11.8447 3.56641V16.1035L19.6367 15.1641V2.62695L11.8447 3.56641Z" fill="black"/>
<path d="M10.6848 13.898C10.6765 13.9314 10.6308 13.9481 10.5477 13.9481C10.4645 13.9481 10.4188 13.9314 10.4105 13.898L7.25622 7.1153C7.08168 6.74755 6.93207 6.50934 6.80739 6.40068C6.69104 6.28367 6.51232 6.22515 6.27129 6.22515C6.24635 6.22515 6.23389 6.20008 6.23389 6.14993C6.23389 6.09978 6.24635 6.07471 6.27129 6.07471L6.59545 6.08724C6.79493 6.10395 7.00273 6.11232 7.21882 6.11232C7.69259 6.11232 8.11234 6.10395 8.47804 6.08724C8.5944 6.07888 8.73986 6.07471 8.91441 6.07471C8.93934 6.07471 8.95181 6.09978 8.95181 6.14993C8.95181 6.20008 8.93934 6.22515 8.91441 6.22515C8.69831 6.22515 8.54038 6.25023 8.44064 6.30038C8.3409 6.34216 8.29103 6.42158 8.29103 6.53859C8.29103 6.66396 8.36998 6.898 8.52791 7.24068L11.0214 12.5941L10.5227 13.3714L12.0188 9.45978L12.2432 9.78575L10.6848 13.898ZM17.7414 6.07471C17.758 6.07471 17.7664 6.09978 17.7664 6.14993C17.7664 6.20008 17.758 6.22515 17.7414 6.22515C17.4422 6.22515 17.1679 6.33799 16.9186 6.56366C16.6692 6.78933 16.4614 7.1153 16.2952 7.54157L13.8765 13.898C13.8682 13.9314 13.8225 13.9481 13.7393 13.9481C13.6562 13.9481 13.6105 13.9314 13.6022 13.898L10.4479 7.1153C10.3066 6.81441 10.1695 6.59291 10.0365 6.45083C9.90349 6.30038 9.74973 6.22515 9.57519 6.22515C9.55025 6.22515 9.53778 6.20008 9.53778 6.14993C9.53778 6.09978 9.55025 6.07471 9.57519 6.07471L9.87441 6.08724C10.0573 6.10395 10.2401 6.11232 10.423 6.11232C10.8136 6.11232 11.1586 6.10395 11.4578 6.08724C11.5409 6.07888 11.6489 6.07471 11.7819 6.07471C11.8069 6.07471 11.8193 6.09978 11.8193 6.14993C11.8193 6.20008 11.8069 6.22515 11.7819 6.22515C11.6573 6.22515 11.5658 6.24186 11.5077 6.2753C11.4495 6.30038 11.4204 6.3547 11.4204 6.43829C11.4204 6.50514 11.4453 6.60964 11.4952 6.75172C11.5534 6.8938 11.624 7.05679 11.7071 7.24068L14.2256 12.5941L13.7269 13.3714L15.9336 7.57918C16.0168 7.36188 16.0583 7.15708 16.0583 6.96486C16.0583 6.73082 15.9876 6.55112 15.8464 6.42575C15.7134 6.29201 15.5222 6.22515 15.2728 6.22515C15.2479 6.22515 15.2354 6.20008 15.2354 6.14993C15.2354 6.09978 15.2479 6.07471 15.2728 6.07471L15.8214 6.08724C16.1206 6.10395 16.3908 6.11232 16.6318 6.11232C16.798 6.11232 16.9892 6.10395 17.2053 6.08724L17.7414 6.07471ZM12.8417 7.49142C12.9913 7.0986 13.0661 6.80187 13.0661 6.60127C13.0661 6.35053 12.9414 6.22515 12.6921 6.22515C12.6671 6.22515 12.6547 6.20008 12.6547 6.14993C12.6547 6.09978 12.6671 6.07471 12.6921 6.07471C12.7669 6.07471 12.8541 6.08308 12.9539 6.09978C13.0536 6.10815 13.2365 6.11232 13.5025 6.11232C13.6521 6.11232 13.8266 6.10395 14.0261 6.08724L14.5123 6.07471C14.5289 6.07471 14.5373 6.09978 14.5373 6.14993C14.5373 6.20008 14.5289 6.22515 14.5123 6.22515C14.2297 6.22515 13.9804 6.32962 13.7643 6.53859C13.5482 6.74755 13.3528 7.08186 13.1783 7.54157L12.318 9.78575L12.0936 9.45978L12.8417 7.49142Z" fill="black"/>
</svg>
