<?xml version="1.0" encoding="UTF-8" standalone="no"?>
<!-- Created with Inkscape (http://www.inkscape.org/) -->

<svg
   version="1.1"
   id="svg1"
   width="281.05334"
   height="275.58667"
   viewBox="0 0 281.05334 275.58667"
   sodipodi:docname="25-26-2-电路分析基础-期末-题图4.pdf"
   xmlns:inkscape="http://www.inkscape.org/namespaces/inkscape"
   xmlns:sodipodi="http://sodipodi.sourceforge.net/DTD/sodipodi-0.dtd"
   xmlns="http://www.w3.org/2000/svg"
   xmlns:svg="http://www.w3.org/2000/svg">
  <defs
     id="defs1" />
  <sodipodi:namedview
     id="namedview1"
     pagecolor="#ffffff"
     bordercolor="#111111"
     borderopacity="1"
     inkscape:showpageshadow="0"
     inkscape:pageopacity="0"
     inkscape:pagecheckerboard="1"
     inkscape:deskcolor="#d1d1d1">
    <inkscape:page
       x="0"
       y="0"
       inkscape:label="1"
       id="page1"
       width="281.05334"
       height="275.58667"
       margin="0"
       bleed="0" />
  </sodipodi:namedview>
  <g
     id="g1"
     inkscape:groupmode="layer"
     inkscape:label="1">
    <path
       id="path1"
       d="m 0,0 h 35.4335 m 0,0 h 35.43353 70.86706 v 26.64603 m 0,31.74838 v 26.64603 85.04045 H 74.83551 m -7.93695,0 H 0 V 85.04044 54.42593 M 0,30.6145 V 0"
       style="fill:none;stroke:#000000;stroke-width:0.3985;stroke-linecap:butt;stroke-linejoin:miter;stroke-miterlimit:10;stroke-dasharray:none;stroke-opacity:1"
       transform="matrix(1.3333333,0,0,-1.3333333,67.836,261.82667)" />
    <path
       id="path2"
       d="m 72.4542,0 c 0,0.87656 -0.7106,1.58714 -1.58717,1.58714 -0.87655,0 -1.58714,-0.71058 -1.58714,-1.58714 0,-0.87656 0.71059,-1.58714 1.58714,-1.58714 0.87657,0 1.58717,0.71058 1.58717,1.58714 z"
       style="fill:#000000;fill-opacity:1;fill-rule:nonzero;stroke:#000000;stroke-width:0.3985;stroke-linecap:butt;stroke-linejoin:miter;stroke-miterlimit:10;stroke-dasharray:none;stroke-opacity:1"
       transform="matrix(1.3333333,0,0,-1.3333333,67.836,261.82667)" />
    <path
       id="path3"
       d="M 70.86703,0 V -9.92134"
       style="fill:none;stroke:#000000;stroke-width:0.3985;stroke-linecap:butt;stroke-linejoin:miter;stroke-miterlimit:10;stroke-dasharray:none;stroke-opacity:1"
       transform="matrix(1.3333333,0,0,-1.3333333,67.836,261.82667)" />
    <path
       id="path4"
       d="M 64.91418,-9.92134 H 76.81989"
       style="fill:none;stroke:#000000;stroke-width:0.797;stroke-linecap:round;stroke-linejoin:miter;stroke-miterlimit:10;stroke-dasharray:none;stroke-opacity:1"
       transform="matrix(1.3333333,0,0,-1.3333333,67.836,261.82667)" />
    <path
       id="path5"
       d="M 147.68694,58.39441 V 26.64603 h -11.90571 v 31.74838 z"
       style="fill:none;stroke:#000000;stroke-width:0.797;stroke-linecap:butt;stroke-linejoin:miter;stroke-miterlimit:10;stroke-dasharray:none;stroke-opacity:1"
       transform="matrix(1.3333333,0,0,-1.3333333,67.836,261.82667)" />
    <path
       id="path6"
       d="m 2.9298984,-6.3749297 c 0,-0.234375 0,-0.2578125 -0.234375,-0.2578125 -0.609375,0.6328125 -1.4882812,0.6328125 -1.80468746,0.6328125 v 0.3164063 c 0.19921876,0 0.78515626,0 1.30078126,-0.2578125 v 5.15624996 c 0,0.3515625 -0.035156,0.48046875 -0.9257813,0.48046875 H 0.94942969 V 7.03125e-5 C 1.3009922,-0.03508594 2.1564609,-0.03508594 2.5548984,-0.03508594 c 0.3984375,0 1.265625,0 1.6171875,0.0351562525 V -0.30461719 H 3.8556797 c -0.9023438,0 -0.9257813,-0.1171875 -0.9257813,-0.48046875 z m 10.4443356,4.7578125 h -0.246093 c -0.04687,0.2578125 -0.08203,0.4921875 -0.175782,0.72656251 -0.04687,0.1640625 -0.08203,0.24609375 -0.65625,0.24609375 h -0.796875 c 0.128907,-0.56249996 0.433594,-1.04296876 0.878907,-1.69921876 0.46875,-0.703125 0.878906,-1.3945312 0.878906,-2.1796875 0,-1.3828125 -1.335938,-2.4960937 -3.023438,-2.4960937 -1.7109371,0 -3.0351559,1.1367187 -3.0351559,2.4960937 0,0.7851563 0.3984375,1.4765625 0.8671875,2.1796875 0.4453125,0.65625 0.7617188,1.1367188 0.890625,1.69921876 h -0.796875 c -0.5742187,0 -0.609375,-0.0820313 -0.65625,-0.234375 C 7.4211094,-1.1014922 7.3742344,-1.3593047 7.3273594,-1.6171172 H 7.0695469 L 7.3976719,7.03125e-5 h 1.59375 c 0.2226562,0 0.2578125,0 0.2578125,-0.2109375025 0,-0.69140625 -0.3164063,-1.57031251 -0.5390625,-2.21484371 -0.2109375,-0.5742188 -0.4921875,-1.359375 -0.4921875,-2.109375 0,-1.59375 1.1015625,-2.2734375 2.0039066,-2.2734375 0.960937,0 2.015625,0.7265625 2.015625,2.2734375 0,0.75 -0.269532,1.5117187 -0.5625,2.3203125 -0.152344,0.421875 -0.46875,1.31249996 -0.46875,2.00390621 0,0.2109375025 0.03516,0.2109375025 0.257812,0.2109375025 h 1.582031 z m 0,0"
       style="fill:#000000;fill-opacity:1;fill-rule:nonzero;stroke:none"
       aria-label="1Ω"
       transform="matrix(1.3333333,0,0,1.3333333,227.488,207.996)" />
    <path
       id="path7"
       d="m 2.78955,1.39478 c 0,0.7703 -0.62447,1.39477 -1.39477,1.39477 C 0.62447,2.78955 0,2.16508 0,1.39478 0,0.62447 0.62447,0 1.39478,0 2.16508,0 2.78955,0.62447 2.78955,1.39478 Z"
       style="fill:#ffffff;fill-opacity:1;fill-rule:nonzero;stroke:#000000;stroke-width:0.39851;stroke-linecap:butt;stroke-linejoin:miter;stroke-miterlimit:10;stroke-dasharray:none;stroke-opacity:1"
       transform="matrix(4.7421383,0,0,-4.7421383,262.45653,155.05436)" />
    <path
       id="path8"
       d="m 4.5466592,-1.7014447 c 0,-0.8211699 -0.6245518,-1.5960768 -1.6539056,-1.8042607 0.8096041,-0.2660128 1.3878928,-0.971525 1.3878928,-1.7579977 0,-0.8096041 -0.8789988,-1.3647613 -1.8273922,-1.3647613 -1.0062224,0 -1.76956346,0.5898545 -1.76956346,1.3531956 0,0.3238416 0.2197497,0.508894 0.50889406,0.508894 0.3122759,0 0.508894,-0.2081839 0.508894,-0.4973283 0,-0.508894 -0.4626309,-0.508894 -0.612986,-0.508894 0.3122759,-0.4857625 0.9599593,-0.612986 1.3184983,-0.612986 0.4163678,0 0.9599592,0.2197497 0.9599592,1.12188 0,0.1156578 -0.023132,0.6939465 -0.2775786,1.1334459 -0.3007101,0.4741967 -0.6361175,0.508894 -0.8905646,0.508894 -0.08096,0.011566 -0.3122759,0.034697 -0.3816705,0.034697 -0.08096,0.011566 -0.1503551,0.023131 -0.1503551,0.1156577 0,0.1156577 0.069395,0.1156577 0.2313155,0.1156577 h 0.4394994 c 0.82117,0 1.1912747,0.6708149 1.1912747,1.6539057 0,1.35319557 -0.6939464,1.64233992 -1.1334458,1.64233992 -0.4279337,0 -1.1681432,-0.17348661 -1.51511641,-0.76334108 0.34697321,0.0578289 0.65924911,-0.16192083 0.65924911,-0.54359134 0,-0.358539 -0.2775786,-0.5551572 -0.56672291,-0.5551572 -0.23131548,0 -0.55515715,0.1387893 -0.55515715,0.5782887 0,0.90213038 0.92526196,1.5613795 2.01244466,1.5613795 1.2144063,0 2.1165366,-0.90213037 2.1165366,-1.9199181 z m 0,0"
       style="fill:#000000;fill-opacity:1;fill-rule:nonzero;stroke:none"
       aria-label="3"
       transform="matrix(1.3509688,0,0,1.3509688,265.70526,152.77516)" />
    <path
       id="path9"
       d="M 74.83551,158.17517 V 181.9866 M 66.89856,158.17517 V 181.9866"
       style="fill:none;stroke:#000000;stroke-width:0.797;stroke-linecap:butt;stroke-linejoin:miter;stroke-miterlimit:10;stroke-dasharray:none;stroke-opacity:1"
       transform="matrix(1.3333333,0,0,-1.3333333,67.836,261.82667)" />
    <g
       id="g9"
       aria-label="4F"
       transform="matrix(1.3333333,0,0,1.3333333,153.56,13.296)">
      <path
         id="path10"
         d="m 2.9286328,-1.6399687 v 0.86718745 c 0,0.3515625 -0.023437,0.46875 -0.7617187,0.46875 H 1.9559766 V 6.5625e-4 C 2.3661328,-0.0345 2.8934766,-0.0345 3.3036328,-0.0345 c 0.421875,0 0.9492188,0 1.359375,0.03515625 v -0.3046875 H 4.4520703 c -0.7382812,0 -0.7617187,-0.1171875 -0.7617187,-0.46875 V -1.6399687 H 4.6864453 V -1.956375 H 3.6903516 v -4.5234375 c 0,-0.1992187 0,-0.2578125 -0.1523438,-0.2578125 -0.09375,0 -0.1171875,0 -0.1992187,0.1171875 L 0.28019531,-1.956375 v 0.3164063 z M 2.9872266,-1.956375 H 0.56144531 L 2.9872266,-5.6712187 Z m 0,0"
         style="fill:#000000;fill-opacity:1;fill-rule:nonzero;stroke:none" />
      <path
         id="path11"
         d="m 12.722578,-4.5345 -0.28125,-2.2382812 H 6.9686719 v 0.3046875 h 0.234375 c 0.7734375,0 0.796875,0.1171875 0.796875,0.46875 v 5.22656245 c 0,0.3515625 -0.023437,0.46875 -0.796875,0.46875 H 6.9686719 V 6.5625e-4 C 7.3202344,-0.0345 8.0936719,-0.0345 8.4803906,-0.0345 c 0.4101563,0 1.3125,0 1.6757814,0.03515625 v -0.3046875 H 9.8280469 c -0.9492188,0 -0.9492188,-0.12890625 -0.9492188,-0.48046875 v -2.4492187 h 0.8554688 c 0.9609371,0 1.0546871,0.3164062 1.0546871,1.1601562 h 0.257813 v -2.6367187 h -0.257813 c 0,0.8320312 -0.09375,1.1601562 -1.0546871,1.1601562 H 8.8788281 v -2.5195312 c 0,-0.328125 0.023437,-0.3984375 0.4921875,-0.3984375 h 1.1953124 c 1.488281,0 1.746094,0.5625 1.898438,1.9335937 z m 0,0"
         style="fill:#000000;fill-opacity:1;fill-rule:nonzero;stroke:none" />
    </g>
    <path
       id="path12"
       d="m 2.78955,1.39478 c 0,0.7703 -0.62447,1.39477 -1.39477,1.39477 C 0.62447,2.78955 0,2.16508 0,1.39478 0,0.62447 0.62447,0 1.39478,0 2.16508,0 2.78955,0.62447 2.78955,1.39478 Z"
       style="fill:#ffffff;fill-opacity:1;fill-rule:nonzero;stroke:#000000;stroke-width:0.39851;stroke-linecap:butt;stroke-linejoin:miter;stroke-miterlimit:10;stroke-dasharray:none;stroke-opacity:1"
       transform="matrix(4.7421383,0,0,-4.7421383,48.973864,155.05436)" />
    <path
       id="path13"
       d="M 4.1764985,-1.9685049e-4 V -0.31368594 H 3.8518134 c -0.8956832,0 -0.9180752,-0.10076435 -0.9180752,-0.47023363 V -6.381939 c 0,-0.2351169 0,-0.2575089 -0.2351168,-0.2575089 -0.6157822,0.6381742 -1.4890732,0.6381742 -1.81375835,0.6381742 v 0.3134891 c 0.20152865,0 0.79491875,0 1.30993655,-0.2575089 v 5.16137393 c 0,0.35827324 -0.033588,0.47023363 -0.9292712,0.47023363 H 0.95203928 V -1.9685049e-4 C 1.2991165,-0.03378497 2.1612115,-0.03378497 2.5642689,-0.03378497 c 0.3918613,0 1.2651524,0 1.6122296,0.0335881195 z m 0,0"
       style="fill:#000000;fill-opacity:1;fill-rule:nonzero;stroke:none"
       aria-label="1"
       transform="matrix(1.3955829,0,0,1.3955829,52.112757,153.07059)" />
    <path
       id="path14"
       d="m 11.90572,42.52022 c 0,6.57541 -5.33031,11.90571 -11.90572,11.90571 -6.57541,0 -11.90572,-5.3303 -11.90572,-11.90571 0,-6.57542 5.33031,-11.90572 11.90572,-11.90572 6.57541,0 11.90572,5.3303 11.90572,11.90572 z"
       style="fill:none;stroke:#000000;stroke-width:0.797;stroke-linecap:butt;stroke-linejoin:miter;stroke-miterlimit:10;stroke-dasharray:none;stroke-opacity:1"
       transform="matrix(1.3333333,0,0,-1.3333333,67.836,261.82667)" />
    <path
       id="path15"
       d="M 0,54.42593 V 30.6145"
       style="fill:none;stroke:#000000;stroke-width:0.797;stroke-linecap:butt;stroke-linejoin:miter;stroke-miterlimit:10;stroke-dasharray:none;stroke-opacity:1"
       transform="matrix(1.3333333,0,0,-1.3333333,67.836,261.82667)" />
    <path
       id="path16"
       d="m 4.0772578,-2.2972734 h 2.7773438 c 0.140625,0 0.328125,0 0.328125,-0.1992188 0,-0.1992187 -0.1875,-0.1992187 -0.328125,-0.1992187 H 4.0772578 v -2.7890625 c 0,-0.1289063 0,-0.328125 -0.1992187,-0.328125 -0.1992188,0 -0.1992188,0.1992187 -0.1992188,0.328125 v 2.7890625 H 0.88975781 c -0.140625,0 -0.328125,0 -0.328125,0.1992187 0,0.1992188 0.1875,0.1992188 0.328125,0.1992188 H 3.6788203 v 2.80078121 c 0,0.12890625 0,0.328125 0.1992188,0.328125 0.1992187,0 0.1992187,-0.19921875 0.1992187,-0.328125 z m 0,0"
       style="fill:#000000;fill-opacity:1;fill-rule:nonzero;stroke:none"
       aria-label="+"
       transform="matrix(1.3333333,0,0,1.3333333,41.716,196.356)" />
    <path
       id="path17"
       d="m 6.5616328,-2.2977891 c 0.1757813,0 0.3515625,0 0.3515625,-0.1992187 0,-0.1992188 -0.1757812,-0.1992188 -0.3515625,-0.1992188 h -5.390625 c -0.1640625,0 -0.33984374,0 -0.33984374,0.1992188 0,0.1992187 0.17578124,0.1992187 0.33984374,0.1992187 z m 0,0"
       style="fill:#000000;fill-opacity:1;fill-rule:nonzero;stroke:none"
       aria-label="−"
       transform="matrix(1.3333333,0,0,1.3333333,41.716,220.552)" />
    <g
       id="g17"
       aria-label="u&#10;s2&#10;(t)"
       transform="matrix(1.3333333,0,0,1.3333333,7.0786667,208.45333)">
      <path
         id="path18"
         d="M 3.4917813,-0.56265625 C 3.59725,-0.1525 3.9488125,0.1053125 4.3706875,0.1053125 c 0.3515625,0 0.5742188,-0.22265625 0.7382813,-0.5390625 0.1757812,-0.36328125 0.3046875,-0.9726562 0.3046875,-0.9960937 0,-0.09375 -0.09375,-0.09375 -0.1289063,-0.09375 -0.09375,0 -0.1054687,0.035156 -0.140625,0.1757812 -0.1289062,0.5625 -0.328125,1.2421875 -0.7382812,1.2421875 -0.2109375,0 -0.3164063,-0.12890625 -0.3164063,-0.45703125 0,-0.22265625 0.1289063,-0.69140625 0.1992188,-1.04296875 l 0.28125,-1.078125 c 0.035156,-0.140625 0.1289062,-0.5273437 0.1757812,-0.6679687 0.046875,-0.234375 0.140625,-0.609375 0.140625,-0.6679688 0,-0.1875 -0.140625,-0.2695312 -0.28125,-0.2695312 -0.058594,0 -0.3164062,0 -0.3867187,0.3398437 -0.1992188,0.7265625 -0.6328125,2.4726563 -0.75,3 -0.011719,0.046875 -0.4101563,0.84375 -1.1367188,0.84375 -0.515625,0 -0.6210937,-0.45703125 -0.6210937,-0.8203125 0,-0.5625 0.28125,-1.3476562 0.5390625,-2.0273437 0.1171875,-0.3046875 0.1757812,-0.4453125 0.1757812,-0.6328125 0,-0.4453125 -0.328125,-0.8203125 -0.8203125,-0.8203125 -0.94921875,0 -1.3125,1.453125 -1.3125,1.5351562 0,0.1054688 0.09375,0.1054688 0.1171875,0.1054688 0.09375,0 0.10546875,-0.023437 0.15234375,-0.1875 C 0.81990625,-3.8204687 1.1949063,-4.18375 1.5699063,-4.18375 c 0.09375,0 0.2578125,0.011719 0.2578125,0.328125 0,0.234375 -0.1171875,0.5273438 -0.1757813,0.6796875 -0.3632812,0.984375 -0.5742187,1.6054688 -0.5742187,2.0859375 0,0.94921875 0.6796875,1.1953125 1.21875,1.1953125 0.65625,0 1.0195312,-0.4453125 1.1953125,-0.66796875 z m 0,0"
         style="fill:#000000;fill-opacity:1;fill-rule:nonzero;stroke:none" />
      <path
         id="path19"
         d="m 8.7036953,-1.1310156 c -0.1757812,0.046875 -0.2929687,0.18749998 -0.2929687,0.32812498 0,0.1640625 0.140625,0.22265625 0.234375,0.22265625 0.070312,0 0.3398437,-0.0351563 0.3398437,-0.3984375 0,-0.44531253 -0.5039062,-0.59765623 -0.9257812,-0.59765623 -1.0898438,0 -1.2890625,0.79687498 -1.2890625,1.00781248 0,0.2578125 0.1523437,0.43359375 0.2460937,0.515625 0.1757813,0.140625 0.3046875,0.1640625 0.7851563,0.24609375 0.1523437,0.0351563 0.5976562,0.1171875 0.5976562,0.46875 0,0.1171875 -0.082031,0.37499997 -0.375,0.55078127 -0.2695312,0.1523437 -0.609375,0.1523437 -0.6914062,0.1523437 -0.28125,0 -0.6796875,-0.058594 -0.84375,-0.2929687 0.234375,-0.023437 0.3867187,-0.19921877 0.3867187,-0.39843752 0,-0.1640625 -0.1289062,-0.2578125 -0.2695312,-0.2578125 -0.1992188,0 -0.4101563,0.1640625 -0.4101563,0.46875 0,0.42187502 0.4453125,0.67968752 1.125,0.67968752 1.2890625,0 1.5234375,-0.87890627 1.5234375,-1.14843752 0,-0.64453125 -0.703125,-0.7734375 -0.9609375,-0.8203125 -0.070312,-0.0117188 -0.2460937,-0.0351563 -0.28125,-0.0585938 -0.2578125,-0.046875 -0.3867187,-0.1875 -0.3867187,-0.33984375 0,-0.1640625 0.1289062,-0.35156253 0.28125,-0.44531253 0.1875,-0.1289062 0.4335937,-0.140625 0.5507812,-0.140625 0.140625,0 0.5039063,0.023437 0.65625,0.2578126 z m 0,0"
         style="fill:#000000;fill-opacity:1;fill-rule:nonzero;stroke:none" />
      <path
         id="path20"
         d="m 12.981039,0.22835938 h -0.234375 c -0.02344,0.15234375 -0.08203,0.5625 -0.175781,0.6328125 -0.05859,0.0351563 -0.597656,0.0351563 -0.691406,0.0351563 h -1.289063 c 0.738281,-0.64453125 0.984375,-0.84375 1.394531,-1.171875 0.515625,-0.41015625 0.996094,-0.84374998 0.996094,-1.49999998 0,-0.8437501 -0.738281,-1.3593751 -1.628906,-1.3593751 -0.867188,0 -1.4531252,0.609375 -1.4531252,1.2421876 0,0.3632812 0.3046872,0.3984375 0.3750002,0.3984375 0.164062,0 0.375,-0.1171875 0.375,-0.375 0,-0.1289062 -0.05859,-0.3632813 -0.421875,-0.3632813 0.222656,-0.5039063 0.691406,-0.6562499 1.019531,-0.6562499 0.703125,0 1.066406,0.5507811 1.066406,1.1132812 0,0.609375 -0.433593,1.08984373 -0.65625,1.33593748 L 9.9693203,1.2244531 c -0.070312,0.058594 -0.070312,0.070312 -0.070312,0.2695313 H 12.78182 Z m 0,0"
         style="fill:#000000;fill-opacity:1;fill-rule:nonzero;stroke:none" />
      <path
         id="path21"
         d="m 17.226156,2.3904688 c 0,-0.035156 0,-0.046875 -0.164062,-0.2226563 -1.242188,-1.25390625 -1.570313,-3.12890625 -1.570313,-4.6640625 0,-1.7226562 0.386719,-3.4570312 1.605469,-4.7109375 0.128906,-0.1171875 0.128906,-0.1289062 0.128906,-0.1640625 0,-0.070312 -0.03516,-0.1054687 -0.09375,-0.1054687 -0.105468,0 -0.996093,0.6796875 -1.582031,1.9453125 -0.515625,1.1015625 -0.632812,2.203125 -0.632812,3.0351562 0,0.7851563 0.117187,1.9921875 0.65625,3.1171875 0.597656,1.21875 1.453125,1.875 1.558593,1.875 0.05859,0 0.09375,-0.035156 0.09375,-0.1054687 z m 0,0"
         style="fill:#000000;fill-opacity:1;fill-rule:nonzero;stroke:none" />
      <path
         id="path22"
         d="m 19.859945,-3.9845312 h 0.9375 c 0.199219,0 0.304688,0 0.304688,-0.1992188 0,-0.1054687 -0.105469,-0.1054687 -0.28125,-0.1054687 h -0.878906 c 0.363281,-1.4179688 0.410156,-1.6171875 0.410156,-1.6757813 0,-0.1757812 -0.117188,-0.2695312 -0.292969,-0.2695312 -0.02344,0 -0.304687,0.011719 -0.398437,0.3515625 l -0.386719,1.59375 h -0.9375 c -0.199219,0 -0.292969,0 -0.292969,0.1875 0,0.1171875 0.07031,0.1171875 0.269531,0.1171875 h 0.878907 c -0.714844,2.8242187 -0.75,2.99999995 -0.75,3.1757812 0,0.5390625 0.375,0.9140625 0.914062,0.9140625 1.007813,0 1.582031,-1.453125 1.582031,-1.5351562 0,-0.09375 -0.08203,-0.09375 -0.117187,-0.09375 -0.09375,0 -0.105469,0.023437 -0.152344,0.140625 -0.433594,1.03124995 -0.960937,1.2773437 -1.300781,1.2773437 -0.199219,0 -0.304688,-0.12890625 -0.304688,-0.45703125 0,-0.24609375 0.02344,-0.31640625 0.05859,-0.48046875 z m 0,0"
         style="fill:#000000;fill-opacity:1;fill-rule:nonzero;stroke:none" />
      <path
         id="path23"
         d="m 24.286703,-2.49625 c 0,-0.7734375 -0.117187,-1.9804687 -0.65625,-3.1054687 -0.597656,-1.21875 -1.464844,-1.875 -1.558594,-1.875 -0.05859,0 -0.105468,0.046875 -0.105468,0.1054687 0,0.035156 0,0.046875 0.199218,0.234375 0.972657,0.984375 1.535157,2.5664063 1.535157,4.640625 0,1.7109375 -0.363282,3.45703125 -1.59375,4.7226563 -0.140625,0.1171875 -0.140625,0.1289062 -0.140625,0.1640625 0,0.058594 0.04687,0.1054687 0.105468,0.1054687 0.09375,0 0.996094,-0.6796875 1.582032,-1.9453125 0.503906,-1.1015625 0.632812,-2.203125 0.632812,-3.046875 z m 0,0"
         style="fill:#000000;fill-opacity:1;fill-rule:nonzero;stroke:none" />
    </g>
    <path
       id="path24"
       d="m 0,85.04044 h 19.55931 m 31.7484,0 h 19.55932 23.52781 m 23.81143,0 h 23.52782"
       style="fill:none;stroke:#000000;stroke-width:0.3985;stroke-linecap:butt;stroke-linejoin:miter;stroke-miterlimit:10;stroke-dasharray:none;stroke-opacity:1"
       transform="matrix(1.3333333,0,0,-1.3333333,67.836,261.82667)" />
    <path
       id="path25"
       d="M 19.55931,90.99329 H 51.30769 V 79.08759 H 19.55931 Z"
       style="fill:none;stroke:#000000;stroke-width:0.797;stroke-linecap:butt;stroke-linejoin:miter;stroke-miterlimit:10;stroke-dasharray:none;stroke-opacity:1"
       transform="matrix(1.3333333,0,0,-1.3333333,67.836,261.82667)" />
    <path
       id="path26"
       d="m 1.58714,85.04044 c 0,0.87655 -0.71058,1.58714 -1.58714,1.58714 -0.87656,0 -1.58714,-0.71059 -1.58714,-1.58714 0,-0.87656 0.71058,-1.58714 1.58714,-1.58714 0.87656,0 1.58714,0.71058 1.58714,1.58714 z"
       style="fill:#000000;fill-opacity:1;fill-rule:nonzero;stroke:#000000;stroke-width:0.3985;stroke-linecap:butt;stroke-linejoin:miter;stroke-miterlimit:10;stroke-dasharray:none;stroke-opacity:1"
       transform="matrix(1.3333333,0,0,-1.3333333,67.836,261.82667)" />
    <path
       id="path27"
       d="m 72.4542,85.04044 c 0,0.87655 -0.7106,1.58714 -1.58717,1.58714 -0.87655,0 -1.58714,-0.71059 -1.58714,-1.58714 0,-0.87656 0.71059,-1.58714 1.58714,-1.58714 0.87657,0 1.58717,0.71058 1.58717,1.58714 z"
       style="fill:#000000;fill-opacity:1;fill-rule:nonzero;stroke:#000000;stroke-width:0.3985;stroke-linecap:butt;stroke-linejoin:miter;stroke-miterlimit:10;stroke-dasharray:none;stroke-opacity:1"
       transform="matrix(1.3333333,0,0,-1.3333333,67.836,261.82667)" />
    <path
       id="path28"
       d="m 2.9292891,-6.3754531 c 0,-0.234375 0,-0.2578125 -0.234375,-0.2578125 -0.609375,0.6328125 -1.4882813,0.6328125 -1.80468754,0.6328125 v 0.3164062 c 0.19921874,0 0.78515624,0 1.30078124,-0.2578125 v 5.15625002 c 0,0.3515625 -0.035156,0.48046875 -0.9257812,0.48046875 H 0.94882031 V -4.53125e-4 C 1.3003828,-0.03560938 2.1558516,-0.03560938 2.5542891,-0.03560938 c 0.3984375,0 1.265625,0 1.6171875,0.035156255 V -0.30514063 H 3.8550703 c -0.9023437,0 -0.9257812,-0.1171875 -0.9257812,-0.48046875 z m 10.4443359,4.7578125 h -0.246094 c -0.04687,0.2578125 -0.08203,0.4921875 -0.175781,0.72656247 -0.04687,0.1640625 -0.08203,0.24609375 -0.65625,0.24609375 h -0.796875 c 0.128906,-0.56250002 0.433594,-1.04296872 0.878906,-1.69921872 0.46875,-0.703125 0.878907,-1.3945313 0.878907,-2.1796875 0,-1.3828125 -1.335938,-2.4960938 -3.023438,-2.4960938 -1.7109375,0 -3.0351562,1.1367188 -3.0351562,2.4960938 0,0.7851562 0.3984375,1.4765625 0.8671875,2.1796875 0.4453125,0.65625 0.7617187,1.1367187 0.890625,1.69921872 h -0.796875 c -0.5742188,0 -0.609375,-0.0820313 -0.65625,-0.234375 C 7.4205,-1.1020156 7.373625,-1.3598281 7.32675,-1.6176406 H 7.0689375 l 0.328125,1.617187475 h 1.59375 c 0.2226563,0 0.2578125,0 0.2578125,-0.210937505 0,-0.69140625 -0.3164062,-1.57031247 -0.5390625,-2.21484377 -0.2109375,-0.5742187 -0.4921875,-1.359375 -0.4921875,-2.109375 0,-1.59375 1.1015625,-2.2734375 2.003906,-2.2734375 0.960938,0 2.015625,0.7265625 2.015625,2.2734375 0,0.75 -0.269531,1.5117188 -0.5625,2.3203125 -0.152343,0.421875 -0.46875,1.31250002 -0.46875,2.00390627 0,0.210937505 0.03516,0.210937505 0.257813,0.210937505 H 13.0455 Z m 0,0"
       style="fill:#000000;fill-opacity:1;fill-rule:nonzero;stroke:none"
       aria-label="1Ω"
       transform="matrix(1.3333333,0,0,1.3333333,105.856,135.41467)" />
    <path
       id="path29"
       d="m 2.78955,1.39478 c 0,0.7703 -0.62447,1.39477 -1.39477,1.39477 C 0.62447,2.78955 0,2.16508 0,1.39478 0,0.62447 0.62447,0 1.39478,0 2.16508,0 2.78955,0.62447 2.78955,1.39478 Z"
       style="fill:#ffffff;fill-opacity:1;fill-rule:nonzero;stroke:#000000;stroke-width:0.39851;stroke-linecap:butt;stroke-linejoin:miter;stroke-miterlimit:10;stroke-dasharray:none;stroke-opacity:1"
       transform="matrix(4.7421383,0,0,-4.7421383,155.7152,142.80236)" />
    <path
       id="path30"
       d="M 4.4794036,-1.7341498 H 4.2218947 c -0.044784,0.3022931 -0.1119604,0.73893858 -0.2127247,0.88448708 -0.067176,0.0783723 -0.7277426,0.0783723 -0.9516634,0.0783723 H 1.2661404 L 2.3185681,-1.79013 c 1.5562494,-1.3771128 2.1608355,-1.9145226 2.1608355,-2.9109701 0,-1.141996 -0.8956831,-1.9369147 -2.1160514,-1.9369147 -1.1307999,0 -1.86973846,0.9180752 -1.86973846,1.8025622 0,0.559802 0.50382175,0.559802 0.53740986,0.559802 0.1679406,0 0.5150178,-0.1119604 0.5150178,-0.5262139 0,-0.2575088 -0.1791366,-0.5150177 -0.5262138,-0.5150177 -0.0783723,0 -0.10076438,0 -0.1343525,0.011196 0.2351168,-0.6493703 0.7725267,-1.0188395 1.3435247,-1.0188395 0.9068791,0 1.3435246,0.8061148 1.3435246,1.6234256 0,0.7949188 -0.5038217,1.5786415 -1.0524276,2.2056197 L 0.60557413,-0.36823304 C 0.49361374,-0.25627265 0.49361374,-0.23388057 0.49361374,0.00123624 H 4.1995026 Z m 0,0"
       style="fill:#000000;fill-opacity:1;fill-rule:nonzero;stroke:none"
       aria-label="2"
       transform="matrix(1.3955829,0,0,1.3955829,158.85409,140.81859)" />
    <path
       id="path31"
       d="m 106.30055,96.94615 c -6.57541,0 -11.90571,-5.33029 -11.90571,-11.90571 0,-6.57543 5.3303,-11.90572 11.90571,-11.90572 6.57543,0 11.90572,5.33029 11.90572,11.90572 0,6.57542 -5.33029,11.90571 -11.90572,11.90571 z"
       style="fill:none;stroke:#000000;stroke-width:0.797;stroke-linecap:butt;stroke-linejoin:miter;stroke-miterlimit:10;stroke-dasharray:none;stroke-opacity:1"
       transform="matrix(1.3333333,0,0,-1.3333333,67.836,261.82667)" />
    <path
       id="path32"
       d="m 94.39484,85.04044 h 23.81143"
       style="fill:none;stroke:#000000;stroke-width:0.797;stroke-linecap:butt;stroke-linejoin:miter;stroke-miterlimit:10;stroke-dasharray:none;stroke-opacity:1"
       transform="matrix(1.3333333,0,0,-1.3333333,67.836,261.82667)" />
    <path
       id="path33"
       d="m 4.0776406,-2.2954297 h 2.7773438 c 0.140625,0 0.328125,0 0.328125,-0.1992187 0,-0.1992188 -0.1875,-0.1992188 -0.328125,-0.1992188 H 4.0776406 v -2.7890625 c 0,-0.1289062 0,-0.328125 -0.1992187,-0.328125 -0.1992188,0 -0.1992188,0.1992188 -0.1992188,0.328125 v 2.7890625 H 0.89014063 c -0.140625,0 -0.328125,0 -0.328125,0.1992188 0,0.1992187 0.1875,0.1992187 0.328125,0.1992187 H 3.6792031 v 2.80078126 c 0,0.12890625 0,0.328125 0.1992188,0.328125 0.1992187,0 0.1992187,-0.19921875 0.1992187,-0.328125 z m 0,0"
       style="fill:#000000;fill-opacity:1;fill-rule:nonzero;stroke:none"
       aria-label="+"
       transform="matrix(1.3333333,0,0,1.3333333,192.30533,130.80667)" />
    <path
       id="path34"
       d="m 6.5634297,-2.2954297 c 0.1757812,0 0.3515625,0 0.3515625,-0.1992187 0,-0.1992188 -0.1757813,-0.1992188 -0.3515625,-0.1992188 h -5.390625 c -0.1640625,0 -0.33984376,0 -0.33984376,0.1992188 0,0.1992187 0.17578126,0.1992187 0.33984376,0.1992187 z m 0,0"
       style="fill:#000000;fill-opacity:1;fill-rule:nonzero;stroke:none"
       aria-label="−"
       transform="matrix(1.3333333,0,0,1.3333333,216.50267,130.80667)" />
    <g
       id="g34"
       aria-label="u&#10;s&#10;(t)"
       transform="matrix(1.3333333,0,0,1.3333333,195.364,118.06667)">
      <path
         id="path35"
         d="m 3.4916484,-0.56269531 c 0.1054688,0.41015625 0.4570313,0.66796875 0.8789063,0.66796875 0.3515625,0 0.5742187,-0.22265625 0.7382812,-0.5390625 0.1757813,-0.36328125 0.3046875,-0.97265624 0.3046875,-0.99609374 0,-0.09375 -0.09375,-0.09375 -0.1289062,-0.09375 -0.09375,0 -0.1054688,0.035156 -0.140625,0.1757812 -0.1289063,0.56250004 -0.328125,1.24218754 -0.7382813,1.24218754 -0.2109375,0 -0.3164062,-0.12890625 -0.3164062,-0.45703125 0,-0.22265625 0.1289062,-0.69140629 0.1992187,-1.04296879 l 0.28125,-1.078125 c 0.035156,-0.140625 0.1289063,-0.5273437 0.1757813,-0.6679687 0.046875,-0.234375 0.140625,-0.609375 0.140625,-0.6679688 0,-0.1875 -0.140625,-0.2695312 -0.28125,-0.2695312 -0.058594,0 -0.3164063,0 -0.3867188,0.3398437 -0.1992187,0.7265625 -0.6328125,2.4726563 -0.75,3.00000004 -0.011719,0.046875 -0.4101562,0.84375 -1.1367187,0.84375 -0.515625,0 -0.6210938,-0.45703125 -0.6210938,-0.8203125 0,-0.56250004 0.28125,-1.34765624 0.5390625,-2.02734374 0.1171875,-0.3046875 0.1757813,-0.4453125 0.1757813,-0.6328125 0,-0.4453125 -0.328125,-0.8203125 -0.8203125,-0.8203125 -0.94921876,0 -1.31250001,1.453125 -1.31250001,1.5351562 0,0.1054688 0.09375,0.1054688 0.1171875,0.1054688 0.09375,0 0.10546875,-0.023437 0.15234375,-0.1875 0.2578125,-0.8671875 0.63281246,-1.2304688 1.00781246,-1.2304688 0.09375,0 0.2578125,0.011719 0.2578125,0.328125 0,0.234375 -0.1171875,0.5273438 -0.1757812,0.6796875 -0.3632813,0.984375 -0.5742188,1.6054688 -0.5742188,2.0859375 0,0.94921879 0.6796875,1.19531254 1.21875,1.19531254 0.65625,0 1.0195313,-0.4453125 1.1953125,-0.66796875 z m 0,0"
         style="fill:#000000;fill-opacity:1;fill-rule:nonzero;stroke:none" />
      <path
         id="path36"
         d="m 8.7035625,-1.1310547 c -0.1757812,0.046875 -0.2929687,0.18750001 -0.2929687,0.32812501 0,0.1640625 0.140625,0.22265625 0.234375,0.22265625 0.070312,0 0.3398437,-0.0351563 0.3398437,-0.3984375 0,-0.44531246 -0.5039062,-0.59765626 -0.9257812,-0.59765626 -1.0898438,0 -1.2890625,0.79687501 -1.2890625,1.00781251 0,0.2578125 0.1523437,0.43359375 0.2460937,0.515625 0.1757813,0.140625 0.3046875,0.1640625 0.7851563,0.24609375 0.1523437,0.0351563 0.5976562,0.1171875 0.5976562,0.46875 0,0.1171875 -0.082031,0.37500004 -0.375,0.55078124 C 7.7543438,1.3650391 7.4145,1.3650391 7.3324688,1.3650391 c -0.28125,0 -0.6796875,-0.058594 -0.84375,-0.2929688 0.234375,-0.023437 0.3867187,-0.19921874 0.3867187,-0.39843749 0,-0.1640625 -0.1289062,-0.2578125 -0.2695312,-0.2578125 -0.1992188,0 -0.4101563,0.1640625 -0.4101563,0.46875 0,0.42187499 0.4453125,0.67968749 1.125,0.67968749 1.2890625,0 1.5234375,-0.87890624 1.5234375,-1.14843749 0,-0.64453125 -0.703125,-0.7734375 -0.9609375,-0.8203125 -0.070312,-0.0117188 -0.2460937,-0.0351563 -0.28125,-0.0585938 -0.2578125,-0.046875 -0.3867187,-0.1875 -0.3867187,-0.33984375 0,-0.1640625 0.1289062,-0.35156256 0.28125,-0.44531256 0.1875,-0.1289062 0.4335937,-0.140625 0.5507812,-0.140625 0.140625,0 0.5039063,0.023437 0.65625,0.2578126 z m 0,0"
         style="fill:#000000;fill-opacity:1;fill-rule:nonzero;stroke:none" />
      <path
         id="path37"
         d="m 13.256297,2.3904297 c 0,-0.035156 0,-0.046875 -0.164063,-0.2226563 -1.242187,-1.25390621 -1.570312,-3.12890621 -1.570312,-4.6640625 0,-1.7226562 0.386719,-3.4570312 1.605469,-4.7109375 0.128906,-0.1171875 0.128906,-0.1289062 0.128906,-0.1640625 0,-0.070312 -0.03516,-0.1054687 -0.09375,-0.1054687 -0.105469,0 -0.996094,0.6796875 -1.582031,1.9453125 -0.515625,1.1015625 -0.632813,2.203125 -0.632813,3.0351562 0,0.7851563 0.117188,1.99218754 0.65625,3.11718754 0.597656,1.21874996 1.453125,1.87499996 1.558594,1.87499996 0.05859,0 0.09375,-0.035156 0.09375,-0.1054687 z m 0,0"
         style="fill:#000000;fill-opacity:1;fill-rule:nonzero;stroke:none" />
      <path
         id="path38"
         d="m 15.887156,-3.9845703 h 0.9375 c 0.199219,0 0.304688,0 0.304688,-0.1992188 0,-0.1054687 -0.105469,-0.1054687 -0.28125,-0.1054687 h -0.878906 c 0.363281,-1.4179688 0.410156,-1.6171875 0.410156,-1.6757813 0,-0.1757812 -0.117188,-0.2695312 -0.292969,-0.2695312 -0.02344,0 -0.304687,0.011719 -0.398437,0.3515625 l -0.386719,1.59375 h -0.9375 c -0.199219,0 -0.292969,0 -0.292969,0.1875 0,0.1171875 0.07031,0.1171875 0.269531,0.1171875 h 0.878907 c -0.714844,2.8242187 -0.75,2.99999999 -0.75,3.17578124 0,0.5390625 0.375,0.9140625 0.914062,0.9140625 1.007813,0 1.582031,-1.45312504 1.582031,-1.53515624 0,-0.09375 -0.08203,-0.09375 -0.117187,-0.09375 -0.09375,0 -0.105469,0.023437 -0.152344,0.140625 -0.433594,1.03124999 -0.960937,1.27734374 -1.300781,1.27734374 -0.199219,0 -0.304688,-0.12890625 -0.304688,-0.45703125 0,-0.24609375 0.02344,-0.31640625 0.05859,-0.48046879 z m 0,0"
         style="fill:#000000;fill-opacity:1;fill-rule:nonzero;stroke:none" />
      <path
         id="path39"
         d="m 20.316844,-2.4962891 c 0,-0.7734375 -0.117188,-1.9804687 -0.65625,-3.1054687 -0.597656,-1.21875 -1.464844,-1.875 -1.558594,-1.875 -0.05859,0 -0.105469,0.046875 -0.105469,0.1054687 0,0.035156 0,0.046875 0.199219,0.234375 0.972656,0.984375 1.535156,2.5664063 1.535156,4.640625 0,1.71093754 -0.363281,3.45703129 -1.59375,4.7226563 -0.140625,0.1171875 -0.140625,0.1289062 -0.140625,0.1640625 0,0.058594 0.04687,0.1054687 0.105469,0.1054687 0.09375,0 0.996094,-0.6796875 1.582031,-1.94531246 0.503907,-1.1015625 0.632813,-2.20312504 0.632813,-3.04687504 z m 0,0"
         style="fill:#000000;fill-opacity:1;fill-rule:nonzero;stroke:none" />
    </g>
    <path
       id="path40"
       d="m 128.23395,85.04044 v -1.98426 l 4.21655,1.98426 -4.21655,1.98425 z"
       style="fill:#000000;fill-opacity:1;fill-rule:nonzero;stroke:#000000;stroke-width:0.3985;stroke-linecap:butt;stroke-linejoin:miter;stroke-miterlimit:10;stroke-dasharray:none;stroke-opacity:1"
       transform="matrix(1.3333333,0,0,-1.3333333,67.836,261.82667)" />
    <g
       id="g40"
       aria-label="i&#10;0"
       transform="matrix(1.3333333,0,0,1.3333333,235.86133,161.89333)">
      <path
         id="path41"
         d="m 2.8256797,-6.2217578 c 0,-0.1992188 -0.1289063,-0.3632813 -0.3632813,-0.3632813 -0.2695312,0 -0.5390625,0.2578125 -0.5390625,0.5273438 0,0.1875 0.140625,0.3632812 0.375,0.3632812 0.234375,0 0.5273438,-0.234375 0.5273438,-0.5273437 z m -0.75,3.7382812 c 0.1171875,-0.28125 0.1171875,-0.3046875 0.2226562,-0.5742187 0.070312,-0.1992188 0.1289063,-0.3398438 0.1289063,-0.5273438 0,-0.4453125 -0.328125,-0.8203125 -0.8203125,-0.8203125 -0.93750001,0 -1.31250001,1.453125 -1.31250001,1.5351563 0,0.1054687 0.09375,0.1054687 0.1171875,0.1054687 0.09375,0 0.10546875,-0.023437 0.15234375,-0.1875 0.26953125,-0.9375 0.66796876,-1.2304687 1.00781246,-1.2304687 0.082031,0 0.2578125,0 0.2578125,0.3164062 0,0.2109375 -0.070312,0.421875 -0.1171875,0.515625 -0.082031,0.2578125 -0.5273437,1.4179688 -0.6796875,1.8515625 -0.10546871,0.2578125 -0.23437496,0.58593754 -0.23437496,0.79687504 0,0.46875 0.33984376,0.80859375 0.82031246,0.80859375 0.9375,0 1.3007813,-1.44140629 1.3007813,-1.53515629 0,-0.09375 -0.09375,-0.09375 -0.1171875,-0.09375 -0.1054688,0 -0.1054688,0.023437 -0.1523438,0.1757813 -0.1757812,0.63281249 -0.5039062,1.24218749 -1.0195312,1.24218749 -0.1640625,0 -0.234375,-0.10546875 -0.234375,-0.328125 0,-0.2578125 0.058594,-0.3984375 0.2929687,-0.99609379 z m 0,0"
         style="fill:#000000;fill-opacity:1;fill-rule:nonzero;stroke:none" />
      <path
         id="path42"
         d="m 7.0297812,-0.73152344 c 0,-0.76171876 -0.09375,-1.31249996 -0.4101562,-1.80468746 -0.2226563,-0.3164063 -0.6445313,-0.5976563 -1.2070313,-0.5976563 -1.6171875,0 -1.6171875,1.8984375 -1.6171875,2.40234376 0,0.50390625 0,2.36718754 1.6171875,2.36718754 1.6171875,0 1.6171875,-1.86328129 1.6171875,-2.36718754 z M 5.4125937,1.4364453 c -0.3164062,0 -0.75,-0.1875 -0.890625,-0.76171874 -0.09375,-0.41015625 -0.09375,-0.984375 -0.09375,-1.5 0,-0.50390626 0,-1.03124996 0.1054688,-1.41796876 0.1523437,-0.5507812 0.5976562,-0.6914062 0.8789062,-0.6914062 0.375,0 0.7382813,0.2226562 0.8671875,0.6328125 0.1054688,0.375 0.1171875,0.8789062 0.1171875,1.47656246 0,0.515625 0,1.04296875 -0.09375,1.4765625 C 6.1625937,1.2841016 5.6938437,1.4364453 5.4125937,1.4364453 Z m 0,0"
         style="fill:#000000;fill-opacity:1;fill-rule:nonzero;stroke:none" />
    </g>
    <path
       id="path43"
       d="m 0,127.56065 58.96132,-10e-6 m 23.81143,0 58.96134,10e-6"
       style="fill:none;stroke:#000000;stroke-width:0.3985;stroke-linecap:butt;stroke-linejoin:miter;stroke-miterlimit:10;stroke-dasharray:none;stroke-opacity:1"
       transform="matrix(1.3333333,0,0,-1.3333333,67.836,261.82667)" />
    <path
       id="path44"
       d="m 70.86703,139.46637 c -6.5754,0 -11.90571,-5.33031 -11.90571,-11.90573 0,-6.57541 5.33031,-11.90572 11.90571,-11.90572 6.57543,0 11.90572,5.33031 11.90572,11.90572 0,6.57542 -5.33029,11.90573 -11.90572,11.90573 z m 0,0 v -23.81145"
       style="fill:none;stroke:#000000;stroke-width:0.797;stroke-linecap:butt;stroke-linejoin:miter;stroke-miterlimit:10;stroke-dasharray:none;stroke-opacity:1"
       transform="matrix(1.3333333,0,0,-1.3333333,67.836,261.82667)" />
    <path
       id="path45"
       d="m 1.58714,127.56065 c 0,0.87658 -0.71058,1.58716 -1.58714,1.58716 -0.87656,0 -1.58714,-0.71058 -1.58714,-1.58716 0,-0.87655 0.71058,-1.58714 1.58714,-1.58714 0.87656,0 1.58714,0.71059 1.58714,1.58714 z"
       style="fill:#000000;fill-opacity:1;fill-rule:nonzero;stroke:#000000;stroke-width:0.3985;stroke-linecap:butt;stroke-linejoin:miter;stroke-miterlimit:10;stroke-dasharray:none;stroke-opacity:1"
       transform="matrix(1.3333333,0,0,-1.3333333,67.836,261.82667)" />
    <path
       id="path46"
       d="m 143.32123,127.56065 c 0,0.87658 -0.71059,1.58716 -1.58714,1.58716 -0.87656,0 -1.58715,-0.71058 -1.58715,-1.58716 0,-0.87655 0.71059,-1.58714 1.58715,-1.58714 0.87655,0 1.58714,0.71059 1.58714,1.58714 z"
       style="fill:#000000;fill-opacity:1;fill-rule:nonzero;stroke:#000000;stroke-width:0.3985;stroke-linecap:butt;stroke-linejoin:miter;stroke-miterlimit:10;stroke-dasharray:none;stroke-opacity:1"
       transform="matrix(1.3333333,0,0,-1.3333333,67.836,261.82667)" />
    <path
       id="path47"
       d="m 110.51721,127.56064 v -1.98425 l 4.21654,1.98425 -4.21654,1.98425 z"
       style="fill:#000000;fill-opacity:1;fill-rule:nonzero;stroke:#000000;stroke-width:0.3985;stroke-linecap:butt;stroke-linejoin:miter;stroke-miterlimit:10;stroke-dasharray:none;stroke-opacity:1"
       transform="matrix(1.3333333,0,0,-1.3333333,67.836,261.82667)" />
    <g
       id="g47"
       aria-label="i&#10;s&#10;(t)"
       transform="matrix(1.3333333,0,0,1.3333333,204.816,83.732)">
      <path
         id="path48"
         d="m 2.8245234,-6.2238047 c 0,-0.1992187 -0.1289062,-0.3632812 -0.3632812,-0.3632812 -0.2695313,0 -0.5390625,0.2578125 -0.5390625,0.5273437 0,0.1875 0.140625,0.3632813 0.375,0.3632813 0.234375,0 0.5273437,-0.234375 0.5273437,-0.5273438 z m -0.75,3.7382813 c 0.1171875,-0.28125 0.1171875,-0.3046875 0.2226563,-0.5742188 0.070312,-0.1992187 0.1289062,-0.3398437 0.1289062,-0.5273437 0,-0.4453125 -0.328125,-0.8203125 -0.8203125,-0.8203125 -0.93749996,0 -1.31249996,1.453125 -1.31249996,1.5351562 0,0.1054688 0.09375,0.1054688 0.1171875,0.1054688 0.09375,0 0.10546875,-0.023437 0.15234375,-0.1875 0.26953125,-0.9375 0.66796871,-1.2304688 1.00781251,-1.2304688 0.082031,0 0.2578125,0 0.2578125,0.3164063 0,0.2109375 -0.070312,0.421875 -0.1171875,0.515625 -0.082031,0.2578125 -0.5273438,1.4179687 -0.6796875,1.8515625 -0.10546876,0.2578125 -0.23437501,0.58593746 -0.23437501,0.79687496 0,0.46875 0.33984371,0.80859375 0.82031251,0.80859375 0.9375,0 1.3007812,-1.44140621 1.3007812,-1.53515621 0,-0.09375 -0.09375,-0.09375 -0.1171875,-0.09375 -0.1054687,0 -0.1054687,0.023437 -0.1523437,0.1757812 -0.1757813,0.63281251 -0.5039063,1.24218751 -1.0195313,1.24218751 -0.1640625,0 -0.234375,-0.10546875 -0.234375,-0.328125 0,-0.2578125 0.058594,-0.3984375 0.2929688,-0.99609371 z m 0,0"
         style="fill:#000000;fill-opacity:1;fill-rule:nonzero;stroke:none" />
      <path
         id="path49"
         d="m 6.4338984,-1.1320078 c -0.1757812,0.046875 -0.2929687,0.18749999 -0.2929687,0.32812499 0,0.1640625 0.140625,0.22265625 0.234375,0.22265625 0.070312,0 0.3398437,-0.0351563 0.3398437,-0.3984375 0,-0.44531254 -0.5039062,-0.59765624 -0.9257812,-0.59765624 -1.0898438,0 -1.2890625,0.79687499 -1.2890625,1.00781249 0,0.2578125 0.1523437,0.43359375 0.2460937,0.515625 0.1757813,0.140625 0.3046875,0.1640625 0.7851563,0.24609375 0.1523437,0.0351563 0.5976562,0.1171875 0.5976562,0.46875 0,0.1171875 -0.082031,0.37499996 -0.375,0.55078126 -0.2695312,0.1523437 -0.609375,0.1523437 -0.6914062,0.1523437 -0.28125,0 -0.6796875,-0.058594 -0.84375,-0.2929687 0.234375,-0.023437 0.3867187,-0.19921876 0.3867187,-0.39843751 0,-0.1640625 -0.1289062,-0.2578125 -0.2695312,-0.2578125 -0.1992188,0 -0.4101563,0.1640625 -0.4101563,0.46875 0,0.42187501 0.4453125,0.67968751 1.125,0.67968751 1.2890625,0 1.5234375,-0.87890626 1.5234375,-1.14843751 0,-0.64453125 -0.703125,-0.7734375 -0.9609375,-0.8203125 -0.070312,-0.0117188 -0.2460937,-0.0351563 -0.28125,-0.0585938 -0.2578125,-0.046875 -0.3867187,-0.1875 -0.3867187,-0.33984375 0,-0.1640625 0.1289062,-0.35156244 0.28125,-0.44531244 0.1875,-0.1289063 0.4335937,-0.140625 0.5507812,-0.140625 0.140625,0 0.5039063,0.023437 0.65625,0.2578125 z m 0,0"
         style="fill:#000000;fill-opacity:1;fill-rule:nonzero;stroke:none" />
      <path
         id="path50"
         d="m 10.983703,2.3894766 c 0,-0.035156 0,-0.046875 -0.164062,-0.2226563 -1.2421879,-1.25390624 -1.5703129,-3.12890624 -1.5703129,-4.6640625 0,-1.7226562 0.3867188,-3.4570312 1.6054689,-4.7109375 0.128906,-0.1171875 0.128906,-0.1289062 0.128906,-0.1640625 0,-0.070312 -0.03516,-0.1054687 -0.09375,-0.1054687 -0.105469,0 -0.9960936,0.6796875 -1.5820311,1.9453125 -0.515625,1.1015625 -0.6328125,2.203125 -0.6328125,3.0351562 0,0.7851563 0.1171875,1.99218751 0.65625,3.11718751 0.5976562,1.21874999 1.4531246,1.87499999 1.5585936,1.87499999 0.05859,0 0.09375,-0.035156 0.09375,-0.1054687 z m 0,0"
         style="fill:#000000;fill-opacity:1;fill-rule:nonzero;stroke:none" />
      <path
         id="path51"
         d="m 13.614563,-3.9855234 h 0.9375 c 0.199218,0 0.304687,0 0.304687,-0.1992188 0,-0.1054687 -0.105469,-0.1054687 -0.28125,-0.1054687 h -0.878906 c 0.363281,-1.4179688 0.410156,-1.6171875 0.410156,-1.6757813 0,-0.1757812 -0.117187,-0.2695312 -0.292969,-0.2695312 -0.02344,0 -0.304687,0.011719 -0.398437,0.3515625 l -0.386719,1.59375 h -0.9375 c -0.199219,0 -0.292969,0 -0.292969,0.1875 0,0.1171875 0.07031,0.1171875 0.269532,0.1171875 h 0.878906 c -0.714844,2.8242187 -0.75,2.99999996 -0.75,3.17578121 0,0.5390625 0.375,0.9140625 0.914062,0.9140625 1.007813,0 1.582032,-1.45312501 1.582032,-1.53515621 0,-0.09375 -0.08203,-0.09375 -0.117188,-0.09375 -0.09375,0 -0.105469,0.023437 -0.152344,0.140625 -0.433593,1.03124996 -0.960937,1.27734371 -1.300781,1.27734371 -0.199219,0 -0.304687,-0.12890625 -0.304687,-0.45703125 0,-0.24609375 0.02344,-0.31640625 0.05859,-0.48046876 z m 0,0"
         style="fill:#000000;fill-opacity:1;fill-rule:nonzero;stroke:none" />
      <path
         id="path52"
         d="m 18.04718,-2.4972422 c 0,-0.7734375 -0.117188,-1.9804687 -0.65625,-3.1054687 -0.597657,-1.21875 -1.464844,-1.875 -1.558594,-1.875 -0.05859,0 -0.105469,0.046875 -0.105469,0.1054687 0,0.035156 0,0.046875 0.199219,0.234375 0.972656,0.984375 1.535156,2.5664063 1.535156,4.640625 0,1.71093751 -0.363281,3.45703126 -1.59375,4.7226563 -0.140625,0.1171875 -0.140625,0.1289062 -0.140625,0.1640625 0,0.058594 0.04687,0.1054687 0.105469,0.1054687 0.09375,0 0.996094,-0.6796875 1.582031,-1.94531249 0.503906,-1.1015625 0.632813,-2.20312501 0.632813,-3.04687501 z m 0,0"
         style="fill:#000000;fill-opacity:1;fill-rule:nonzero;stroke:none" />
    </g>
    <path
       id="path53"
       d="m 70.86703,0 -1e-5,5.3859 m 0,31.7484 1e-5,5.38592 -1e-5,5.38591 m 0,31.74838 1e-5,5.38593"
       style="fill:none;stroke:#000000;stroke-width:0.3985;stroke-linecap:butt;stroke-linejoin:miter;stroke-miterlimit:10;stroke-dasharray:none;stroke-opacity:1"
       transform="matrix(1.3333333,0,0,-1.3333333,67.836,261.82667)" />
    <path
       id="path54"
       d="m 71.02641,4.9874 c -3.28755,0 -5.95256,1.82136 -5.95256,4.06817 0,2.2468 2.66501,4.06816 5.95256,4.06816 -3.28755,0 -5.95256,1.82137 -5.95256,4.06818 0,2.24681 2.66501,4.06818 5.95256,4.06818 -3.28755,0 -5.95256,1.82136 -5.95256,4.06816 0,2.24681 2.66501,4.06817 5.95256,4.06817 -3.28755,0 -5.95256,1.82137 -5.95256,4.06818 0,2.2468 2.66501,4.06816 5.95256,4.06816"
       style="fill:none;stroke:#000000;stroke-width:0.797;stroke-linecap:butt;stroke-linejoin:bevel;stroke-miterlimit:10;stroke-dasharray:none;stroke-opacity:1"
       transform="matrix(1.3333333,0,0,-1.3333333,67.836,261.82667)" />
    <g
       id="g54"
       aria-label="4H"
       transform="matrix(1.3333333,0,0,1.3333333,132.62933,236.34267)">
      <path
         id="path55"
         d="m 2.9293672,-1.6398125 v 0.8671875 c 0,0.3515625 -0.023437,0.46875 -0.7617188,0.46875 H 1.9567109 V 8.125e-4 c 0.4101563,-0.03515625 0.9375,-0.03515625 1.3476563,-0.03515625 0.421875,0 0.9492187,0 1.359375,0.03515625 V -0.303875 H 4.4528047 c -0.7382813,0 -0.7617188,-0.1171875 -0.7617188,-0.46875 V -1.6398125 H 4.6871797 V -1.9562187 H 3.6910859 v -4.5234375 c 0,-0.1992188 0,-0.2578125 -0.1523437,-0.2578125 -0.09375,0 -0.1171875,0 -0.1992188,0.1171875 l -3.05859371,4.6640625 v 0.3164062 z m 0.058594,-0.3164062 H 0.56217969 L 2.9879609,-5.6710625 Z m 0,0"
         style="fill:#000000;fill-opacity:1;fill-rule:nonzero;stroke:none" />
      <path
         id="path56"
         d="M 13.778,8.125e-4 V -0.303875 h -0.246094 c -0.761719,0 -0.785156,-0.1171875 -0.785156,-0.46875 v -5.25 c 0,-0.3632812 0.02344,-0.46875 0.785156,-0.46875 H 13.778 v -0.3164062 c -0.351563,0.035156 -1.089844,0.035156 -1.464844,0.035156 -0.386719,0 -1.125,0 -1.476562,-0.035156 v 0.3164062 h 0.234375 c 0.773437,0 0.785156,0.1054688 0.785156,0.46875 v 2.3320313 H 8.8795625 V -6.022625 c 0,-0.3632812 0.023437,-0.46875 0.7851562,-0.46875 h 0.2460938 v -0.3164062 c -0.3515625,0.035156 -1.0898438,0.035156 -1.4648438,0.035156 -0.375,0 -1.125,0 -1.4765625,-0.035156 v 0.3164062 h 0.234375 c 0.7734375,0 0.796875,0.1054688 0.796875,0.46875 v 5.25 c 0,0.3515625 -0.023437,0.46875 -0.796875,0.46875 H 6.9694062 V 8.125e-4 C 7.3209687,-0.03434375 8.05925,-0.03434375 8.43425,-0.03434375 c 0.375,0 1.125,0 1.4765625,0.03515625 V -0.303875 H 9.6647187 c -0.7617187,0 -0.7851562,-0.1171875 -0.7851562,-0.46875 v -2.6132812 h 2.9765625 v 2.6132812 c 0,0.3515625 -0.01172,0.46875 -0.785156,0.46875 H 10.836594 V 8.125e-4 c 0.351562,-0.03515625 1.089843,-0.03515625 1.464843,-0.03515625 0.375,0 1.125,0 1.476563,0.03515625 z m 0,0"
         style="fill:#000000;fill-opacity:1;fill-rule:nonzero;stroke:none" />
    </g>
    <path
       id="path57"
       d="M 76.81987,79.65451 V 47.90613 h -11.9057 v 31.74838 z"
       style="fill:none;stroke:#000000;stroke-width:0.797;stroke-linecap:butt;stroke-linejoin:miter;stroke-miterlimit:10;stroke-dasharray:none;stroke-opacity:1"
       transform="matrix(1.3333333,0,0,-1.3333333,67.836,261.82667)" />
    <path
       id="path58"
       d="m 2.9287578,-6.3756719 c 0,-0.234375 0,-0.2578125 -0.234375,-0.2578125 -0.609375,0.6328125 -1.4882812,0.6328125 -1.80468749,0.6328125 v 0.3164063 c 0.19921879,0 0.78515629,0 1.30078129,-0.2578125 v 5.15624998 c 0,0.3515625 -0.035156,0.48046875 -0.9257813,0.48046875 H 0.94828906 V -6.71875e-4 C 1.2998516,-0.03582812 2.1553203,-0.03582812 2.5537578,-0.03582812 c 0.3984375,0 1.265625,0 1.6171875,0.035156245 V -0.30535937 H 3.8545391 c -0.9023438,0 -0.9257813,-0.1171875 -0.9257813,-0.48046875 z M 13.373094,-1.6178594 H 13.127 c -0.04687,0.2578125 -0.08203,0.4921875 -0.175781,0.72656253 -0.04687,0.1640625 -0.08203,0.24609375 -0.65625,0.24609375 H 11.498094 C 11.627,-1.2077031 11.931688,-1.6881719 12.377,-2.3444219 c 0.46875,-0.703125 0.878906,-1.3945312 0.878906,-2.1796875 0,-1.3828125 -1.335937,-2.4960937 -3.023437,-2.4960937 -1.7109377,0 -3.0351565,1.1367187 -3.0351565,2.4960937 0,0.7851563 0.3984375,1.4765625 0.8671875,2.1796875 0.4453125,0.65625 0.7617188,1.1367188 0.890625,1.69921878 H 8.15825 c -0.5742187,0 -0.609375,-0.0820313 -0.65625,-0.234375 C 7.4199688,-1.1022344 7.3730938,-1.3600469 7.3262188,-1.6178594 H 7.0684063 l 0.328125,1.617187525 h 1.59375 c 0.2226562,0 0.2578125,0 0.2578125,-0.210937495 0,-0.69140625 -0.3164063,-1.57031253 -0.5390625,-2.21484373 -0.2109375,-0.5742188 -0.4921875,-1.359375 -0.4921875,-2.109375 0,-1.59375 1.1015625,-2.2734375 2.0039062,-2.2734375 0.960938,0 2.015625,0.7265625 2.015625,2.2734375 0,0.75 -0.269531,1.5117187 -0.5625,2.3203125 -0.152344,0.421875 -0.46875,1.31249998 -0.46875,2.00390623 0,0.210937495 0.03516,0.210937495 0.257813,0.210937495 h 1.582031 z m 0,0"
       style="fill:#000000;fill-opacity:1;fill-rule:nonzero;stroke:none"
       aria-label="1Ω"
       transform="matrix(1.3333333,0,0,1.3333333,132.99733,179.64933)" />
  </g>
</svg>
