<?xml version="1.0" encoding="UTF-8" standalone="no"?>
<!-- Created with Inkscape (http://www.inkscape.org/) -->

<svg
   version="1.1"
   id="svg1"
   width="187.96001"
   height="151.84"
   viewBox="0 0 187.96001 151.84"
   sodipodi:docname="25-26-2-电路分析基础-期末-题图8.pdf"
   xmlns:inkscape="http://www.inkscape.org/namespaces/inkscape"
   xmlns:sodipodi="http://sodipodi.sourceforge.net/DTD/sodipodi-0.dtd"
   xmlns="http://www.w3.org/2000/svg"
   xmlns:svg="http://www.w3.org/2000/svg">
  <defs
     id="defs1" />
  <sodipodi:namedview
     id="namedview1"
     pagecolor="#ffffff"
     bordercolor="#111111"
     borderopacity="1"
     inkscape:showpageshadow="0"
     inkscape:pageopacity="0"
     inkscape:pagecheckerboard="1"
     inkscape:deskcolor="#d1d1d1">
    <inkscape:page
       x="0"
       y="0"
       inkscape:label="1"
       id="page1"
       width="187.96001"
       height="151.84"
       margin="0"
       bleed="0" />
  </sodipodi:namedview>
  <g
     id="g1"
     inkscape:groupmode="layer"
     inkscape:label="1">
    <path
       id="path1"
       d="m 0,0 v 13.6064 m 0,23.81143 v 13.60643 9.63794 m 0,31.74838 v 9.63796 h 25.51212 m 0,0 h 25.51214 l -10e-6,-35.15009 m 0,-31.74838 L 51.02426,0 H 0"
       style="fill:none;stroke:#000000;stroke-width:0.3985;stroke-linecap:butt;stroke-linejoin:miter;stroke-miterlimit:10;stroke-dasharray:none;stroke-opacity:1"
       transform="matrix(1.3333333,0,0,-1.3333333,20.829333,151.57467)" />
    <path
       id="path2"
       d="M -11.90572,25.51212 C -11.90572,18.9367 -6.57541,13.6064 0,13.6064 c 6.57541,0 11.90572,5.3303 11.90572,11.90572 0,6.57542 -5.33031,11.90571 -11.90572,11.90571 -6.57541,0 -11.90572,-5.33029 -11.90572,-11.90571 z"
       style="fill:none;stroke:#000000;stroke-width:0.797;stroke-linecap:butt;stroke-linejoin:miter;stroke-miterlimit:10;stroke-dasharray:none;stroke-opacity:1"
       transform="matrix(1.3333333,0,0,-1.3333333,20.829333,151.57467)" />
    <path
       id="path3"
       d="M 0,13.6064 V 37.41783"
       style="fill:none;stroke:#000000;stroke-width:0.797;stroke-linecap:butt;stroke-linejoin:miter;stroke-miterlimit:10;stroke-dasharray:none;stroke-opacity:1"
       transform="matrix(1.3333333,0,0,-1.3333333,20.829333,151.57467)" />
    <path
       id="path4"
       d="m 6.5623906,-2.2974531 c 0.1757813,0 0.3515625,0 0.3515625,-0.1992188 0,-0.1992187 -0.1757812,-0.1992187 -0.3515625,-0.1992187 h -5.390625 c -0.1640625,0 -0.33984373,0 -0.33984373,0.1992187 0,0.1992188 0.17578123,0.1992188 0.33984373,0.1992188 z m 0,0"
       style="fill:#000000;fill-opacity:1;fill-rule:nonzero;stroke:none"
       aria-label="−"
       transform="matrix(1.3333333,0,0,1.3333333,36.617333,132.97733)" />
    <path
       id="path5"
       d="m 4.0780156,-2.2969375 h 2.7773438 c 0.140625,0 0.328125,0 0.328125,-0.1992187 0,-0.1992188 -0.1875,-0.1992188 -0.328125,-0.1992188 H 4.0780156 v -2.7890625 c 0,-0.1289062 0,-0.328125 -0.1992187,-0.328125 -0.1992188,0 -0.1992188,0.1992188 -0.1992188,0.328125 V -2.695375 H 0.89051562 c -0.140625,0 -0.328125,0 -0.328125,0.1992188 0,0.1992187 0.1875,0.1992187 0.328125,0.1992187 H 3.6795781 v 2.80078125 c 0,0.12890625 0,0.328125 0.1992188,0.328125 0.1992187,0 0.1992187,-0.19921875 0.1992187,-0.328125 z m 0,0"
       style="fill:#000000;fill-opacity:1;fill-rule:nonzero;stroke:none"
       aria-label="+"
       transform="matrix(1.3333333,0,0,1.3333333,36.617333,108.78133)" />
    <g
       id="g5"
       aria-label="˙&#10;U&#10;s"
       transform="matrix(1.3333333,0,0,1.3333333,51.662667,119.31867)">
      <path
         id="path6"
         d="m 1.9112031,-6.1393906 c 0,-0.2695313 -0.2226562,-0.5273438 -0.5273437,-0.5273438 -0.3398438,0 -0.53906252,0.28125 -0.53906252,0.5273438 0,0.2695312 0.23437502,0.5273437 0.52734372,0.5273437 0.3398438,0 0.5390625,-0.2695312 0.5390625,-0.5273437 z m 0,0"
         style="fill:#000000;fill-opacity:1;fill-rule:nonzero;stroke:none" />
      <path
         id="path7"
         d="m 3.4903047,-3.2360703 c 0.09375,-0.4101563 0.28125,-0.7148438 1.078125,-0.7382813 0.046875,0 0.1640625,-0.011719 0.1640625,-0.1992187 0,-0.011719 0,-0.1171875 -0.1289063,-0.1171875 -0.328125,0 -0.6796875,0.035156 -1.0195312,0.035156 -0.3398438,0 -0.703125,-0.035156 -1.03125,-0.035156 -0.058594,0 -0.1757813,0 -0.1757813,0.1992187 0,0.1171875 0.09375,0.1171875 0.1757813,0.1171875 0.5625,0.011719 0.6796875,0.2109375 0.6796875,0.4335938 0,0.035156 -0.023437,0.1757812 -0.035156,0.2109375 L 2.3067109,0.22096094 C 1.9668672,1.5568984 0.81842969,2.4240859 -0.17766406,2.4240859 c -0.6796875,0 -1.21875004,-0.4335937 -1.21875004,-1.2890625 0,-0.023437 0,-0.33984371 0.1171875,-0.77343746 l 0.96093754,-3.87890624 c 0.09375,-0.3632813 0.10546875,-0.4570313 0.83203125,-0.4570313 0.26953125,0 0.33984375,0 0.33984375,-0.1992187 0,-0.1171875 -0.10546875,-0.1171875 -0.140625,-0.1171875 -0.26953125,0 -0.99609375,0.035156 -1.265625,0.035156 -0.29296875,0 -0.99609374,-0.035156 -1.28906254,-0.035156 -0.082031,0 -0.1875,0 -0.1875,0.1992187 0,0.1171875 0.09375,0.1171875 0.28125,0.1171875 0.011719,0 0.2109375,0 0.375,0.011719 0.1757813,0.023437 0.2695313,0.035156 0.2695313,0.1640625 0,0.058594 -0.1054688,0.4804687 -0.1757813,0.703125 l -0.2109375,0.8789062 c -0.09375,0.3867188 -0.5742187,2.27343754 -0.609375,2.46093754 -0.070312,0.28125 -0.070312,0.43359375 -0.070312,0.57421875 0,1.21875001 0.9023438,1.92187501 1.95703129,1.92187501 1.25390621,0 2.48437501,-1.125 2.81250001,-2.44921876 z m 0,0"
         style="fill:#000000;fill-opacity:1;fill-rule:nonzero;stroke:none" />
      <path
         id="path8"
         d="m 6.9649141,1.3869766 c -0.1757813,0.046875 -0.2929688,0.1875 -0.2929688,0.328125 0,0.1640625 0.140625,0.2226562 0.234375,0.2226562 0.070312,0 0.3398438,-0.035156 0.3398438,-0.3984375 0,-0.4453125 -0.5039063,-0.59765624 -0.9257813,-0.59765624 -1.0898437,0 -1.2890625,0.79687504 -1.2890625,1.00781254 0,0.2578125 0.1523438,0.4335937 0.2460938,0.515625 0.1757812,0.140625 0.3046875,0.1640625 0.7851562,0.2460937 0.1523438,0.035156 0.5976563,0.1171875 0.5976563,0.46875 0,0.1171875 -0.082031,0.375 -0.375,0.5507813 -0.2695313,0.1523437 -0.609375,0.1523437 -0.6914063,0.1523437 -0.28125,0 -0.6796875,-0.058594 -0.84375,-0.2929687 0.234375,-0.023437 0.3867188,-0.1992188 0.3867188,-0.3984375 0,-0.1640625 -0.1289063,-0.2578125 -0.2695313,-0.2578125 -0.1992187,0 -0.4101562,0.1640625 -0.4101562,0.46875 0,0.421875 0.4453125,0.6796875 1.125,0.6796875 1.2890625,0 1.5234375,-0.8789063 1.5234375,-1.1484375 0,-0.6445313 -0.703125,-0.7734375 -0.9609375,-0.8203125 -0.070312,-0.011719 -0.2460938,-0.035156 -0.28125,-0.058594 -0.2578125,-0.046875 -0.3867188,-0.1875 -0.3867188,-0.3398437 0,-0.1640625 0.1289063,-0.3515625 0.28125,-0.4453125 0.1875,-0.1289063 0.4335938,-0.140625 0.5507813,-0.140625 0.140625,0 0.5039062,0.023437 0.65625,0.2578127 z m 0,0"
         style="fill:#000000;fill-opacity:1;fill-rule:nonzero;stroke:none" />
    </g>
    <path
       id="path9"
       d="M 5.95285,92.41058 V 60.6622 h -11.9057 v 31.74838 z"
       style="fill:none;stroke:#000000;stroke-width:0.797;stroke-linecap:butt;stroke-linejoin:miter;stroke-miterlimit:10;stroke-dasharray:none;stroke-opacity:1"
       transform="matrix(1.3333333,0,0,-1.3333333,20.829333,151.57467)" />
    <path
       id="path10"
       d="m 23.7759,102.04854 v -1.98425 l 4.21655,1.98425 -4.21655,1.98425 z"
       style="fill:#000000;fill-opacity:1;fill-rule:nonzero;stroke:#000000;stroke-width:0.3985;stroke-linecap:butt;stroke-linejoin:miter;stroke-miterlimit:10;stroke-dasharray:none;stroke-opacity:1"
       transform="matrix(1.3333333,0,0,-1.3333333,20.829333,151.57467)" />
    <g
       id="g10"
       aria-label="˙&#10;I&#10;1"
       transform="matrix(1.3333333,0,0,1.3333333,52.018667,29.073333)">
      <path
         id="path11"
         d="m 1.9108047,-6.1399609 c 0,-0.2695313 -0.2226563,-0.5273438 -0.5273438,-0.5273438 -0.3398437,0 -0.53906246,0.28125 -0.53906246,0.5273438 0,0.2695312 0.23437496,0.5273437 0.52734376,0.5273437 0.3398437,0 0.5390625,-0.2695312 0.5390625,-0.5273437 z m 0,0"
         style="fill:#000000;fill-opacity:1;fill-rule:nonzero;stroke:none" />
      <path
         id="path12"
         d="m 1.4215469,-3.5149609 c 0.09375,-0.3632813 0.1171875,-0.4570313 0.9023437,-0.4570313 0.2460938,0 0.3164063,0 0.3164063,-0.1875 0,-0.1289062 -0.1054688,-0.1289062 -0.140625,-0.1289062 -0.2929688,0 -1.03125,0.035156 -1.3125,0.035156 -0.30468753,0 -1.03125003,-0.035156 -1.33593753,-0.035156 -0.0585938,0 -0.19921875,0 -0.19921875,0.1992187 0,0.1171875 0.09375,0.1171875 0.28125,0.1171875 0.421875,0 0.69140625,0 0.69140625,0.1875 0,0.046875 0,0.070312 -0.0234375,0.1640625 l -1.34765625,5.3671875 c -0.0820313,0.3632813 -0.1171875,0.46875 -0.90234372,0.46875 -0.2226563,0 -0.3164063,0 -0.3164063,0.1992188 0,0.1054687 0.1171875,0.1054687 0.1523438,0.1054687 0.28125,0 1.00781247,-0.035156 1.30078122,-0.035156 0.3046875,0 1.03125,0.035156 1.3359375,0.035156 0.0820313,0 0.19921878,0 0.19921878,-0.1875 0,-0.1171875 -0.0820313,-0.1171875 -0.30468753,-0.1171875 -0.17578125,0 -0.22265625,0 -0.421875,-0.023437 -0.2109375,-0.023437 -0.24609375,-0.058594 -0.24609375,-0.1757812 0,-0.070312 0.01171875,-0.1523438 0.03515625,-0.2226563 z m 0,0"
         style="fill:#000000;fill-opacity:1;fill-rule:nonzero;stroke:none" />
      <path
         id="path13"
         d="m 4.4068984,-0.41535156 c 0,-0.1875 -0.011719,-0.19921875 -0.2109375,-0.19921875 -0.4453125,0.43359375 -1.078125,0.4453125 -1.359375,0.4453125 v 0.24609375 c 0.1640625,0 0.6210938,0 1.0078125,-0.1875 V 3.4401172 c 0,0.234375 0,0.328125 -0.6914062,0.328125 H 2.8834609 v 0.2460937 c 0.1289063,-0.011719 0.984375,-0.023437 1.2421875,-0.023437 0.2109375,0 1.0898438,0.011719 1.2421875,0.023437 V 3.7682422 H 5.1100234 c -0.703125,0 -0.703125,-0.09375 -0.703125,-0.328125 z m 0,0"
         style="fill:#000000;fill-opacity:1;fill-rule:nonzero;stroke:none" />
    </g>
    <path
       id="path14"
       d="m 50.86485,67.29697 c 3.28755,0 5.95256,-1.82137 5.95256,-4.06818 0,-2.24681 -2.66501,-4.06818 -5.95256,-4.06818 3.28755,0 5.95256,-1.82136 5.95256,-4.06816 0,-2.24681 -2.66501,-4.06817 -5.95256,-4.06817 3.28755,0 5.95256,-1.82137 5.95256,-4.06818 0,-2.2468 -2.66501,-4.06816 -5.95256,-4.06816 3.28755,0 5.95256,-1.82137 5.95256,-4.06818 0,-2.24681 -2.66501,-4.06817 -5.95256,-4.06817"
       style="fill:none;stroke:#000000;stroke-width:0.797;stroke-linecap:butt;stroke-linejoin:bevel;stroke-miterlimit:10;stroke-dasharray:none;stroke-opacity:1"
       transform="matrix(1.3333333,0,0,-1.3333333,20.829333,151.57467)" />
    <path
       id="path15"
       d="m 76.53639,0 v 35.15007 m 0,31.74838 v 35.15009 h 12.75608 m 0,0 h 12.75607 V 66.89845 m 0,-31.74838 V 0 H 76.53639"
       style="fill:none;stroke:#000000;stroke-width:0.3985;stroke-linecap:butt;stroke-linejoin:miter;stroke-miterlimit:10;stroke-dasharray:none;stroke-opacity:1"
       transform="matrix(1.3333333,0,0,-1.3333333,20.829333,151.57467)" />
    <path
       id="path16"
       d="m 76.69579,34.75156 c -3.28756,0 -5.95256,1.82136 -5.95256,4.06817 0,2.24681 2.665,4.06818 5.95256,4.06818 -3.28756,0 -5.95256,1.82136 -5.95256,4.06816 0,2.24681 2.665,4.06818 5.95256,4.06818 -3.28756,0 -5.95256,1.82136 -5.95256,4.06817 0,2.2468 2.665,4.06816 5.95256,4.06816 -3.28756,0 -5.95256,1.82137 -5.95256,4.06818 0,2.24681 2.665,4.06818 5.95256,4.06818"
       style="fill:none;stroke:#000000;stroke-width:0.797;stroke-linecap:butt;stroke-linejoin:bevel;stroke-miterlimit:10;stroke-dasharray:none;stroke-opacity:1"
       transform="matrix(1.3333333,0,0,-1.3333333,20.829333,151.57467)" />
    <path
       id="path17"
       d="m 87.55624,102.04854 v -1.98425 l 4.21654,1.98425 -4.21654,1.98425 z"
       style="fill:#000000;fill-opacity:1;fill-rule:nonzero;stroke:#000000;stroke-width:0.3985;stroke-linecap:butt;stroke-linejoin:miter;stroke-miterlimit:10;stroke-dasharray:none;stroke-opacity:1"
       transform="matrix(1.3333333,0,0,-1.3333333,20.829333,151.57467)" />
    <g
       id="g17"
       aria-label="˙&#10;I&#10;2"
       transform="matrix(1.3333333,0,0,1.3333333,137.05867,29.073333)">
      <path
         id="path18"
         d="m 1.9101016,-6.1399609 c 0,-0.2695313 -0.2226563,-0.5273438 -0.5273438,-0.5273438 -0.3398437,0 -0.53906249,0.28125 -0.53906249,0.5273438 0,0.2695312 0.23437499,0.5273437 0.52734379,0.5273437 0.3398437,0 0.5390625,-0.2695312 0.5390625,-0.5273437 z m 0,0"
         style="fill:#000000;fill-opacity:1;fill-rule:nonzero;stroke:none" />
      <path
         id="path19"
         d="m 1.4237734,-3.5149609 c 0.09375,-0.3632813 0.1171875,-0.4570313 0.9023438,-0.4570313 0.2460937,0 0.3164062,0 0.3164062,-0.1875 0,-0.1289062 -0.1054687,-0.1289062 -0.140625,-0.1289062 -0.2929687,0 -1.03125,0.035156 -1.3125,0.035156 -0.30468746,0 -1.03124996,-0.035156 -1.33593746,-0.035156 -0.0585938,0 -0.19921875,0 -0.19921875,0.1992187 0,0.1171875 0.09375,0.1171875 0.28125,0.1171875 0.421875,0 0.69140625,0 0.69140625,0.1875 0,0.046875 0,0.070312 -0.0234375,0.1640625 l -1.34765625,5.3671875 c -0.0820313,0.3632813 -0.1171875,0.46875 -0.90234379,0.46875 -0.2226562,0 -0.3164062,0 -0.3164062,0.1992188 0,0.1054687 0.1171875,0.1054687 0.1523437,0.1054687 0.28125,0 1.00781254,-0.035156 1.30078129,-0.035156 0.3046875,0 1.03125,0.035156 1.3359375,0.035156 0.0820313,0 0.19921871,0 0.19921871,-0.1875 0,-0.1171875 -0.0820312,-0.1171875 -0.30468746,-0.1171875 -0.17578125,0 -0.22265625,0 -0.421875,-0.023437 -0.2109375,-0.023437 -0.24609375,-0.058594 -0.24609375,-0.1757812 0,-0.070312 0.01171875,-0.1523438 0.03515625,-0.2226563 z m 0,0"
         style="fill:#000000;fill-opacity:1;fill-rule:nonzero;stroke:none" />
      <path
         id="path20"
         d="m 5.5897891,2.7487109 h -0.234375 c -0.023437,0.1523438 -0.082031,0.5625 -0.1757813,0.6328125 -0.058594,0.035156 -0.5976562,0.035156 -0.6914062,0.035156 H 3.1991641 c 0.7382812,-0.6445313 0.984375,-0.84375 1.3945312,-1.171875 0.515625,-0.4101563 0.9960938,-0.84375 0.9960938,-1.50000001 0,-0.84375 -0.7382813,-1.359375 -1.6289063,-1.359375 -0.8671875,0 -1.453125,0.609375 -1.453125,1.2421875 0,0.36328125 0.3046875,0.39843751 0.375,0.39843751 0.1640625,0 0.375,-0.11718751 0.375,-0.37500001 0,-0.12890625 -0.058594,-0.36328125 -0.421875,-0.36328125 0.2226563,-0.50390625 0.6914063,-0.65625 1.0195313,-0.65625 0.703125,0 1.0664062,0.55078125 1.0664062,1.11328125 0,0.60937501 -0.4335937,1.08984371 -0.65625,1.33593751 l -1.6875,1.6640625 c -0.070312,0.058594 -0.070312,0.070312 -0.070312,0.2695312 h 2.8828125 z m 0,0"
         style="fill:#000000;fill-opacity:1;fill-rule:nonzero;stroke:none" />
    </g>
    <path
       id="path21"
       d="m 96.09569,35.15007 v 31.74838 h 11.9057 V 35.15007 Z"
       style="fill:none;stroke:#000000;stroke-width:0.797;stroke-linecap:butt;stroke-linejoin:miter;stroke-miterlimit:10;stroke-dasharray:none;stroke-opacity:1"
       transform="matrix(1.3333333,0,0,-1.3333333,20.829333,151.57467)" />
    <g
       id="g21"
       aria-label="R&#10;L"
       transform="matrix(1.3333333,0,0,1.3333333,167.772,86.405333)">
      <path
         id="path22"
         d="m 3.7393594,-6.1165 c 0.058594,-0.234375 0.082031,-0.3398437 0.28125,-0.3632812 C 4.1026406,-6.4915 4.4190469,-6.4915 4.6182656,-6.4915 c 0.7148438,0 1.8164063,0 1.8164063,0.984375 0,0.3398438 -0.1523438,1.0195313 -0.5507813,1.4179688 -0.2578125,0.2578125 -0.7851562,0.5742187 -1.6757812,0.5742187 H 3.0948281 Z m 1.4296875,2.7304688 c 1.0078125,-0.2226563 2.1914062,-0.9140625 2.1914062,-1.921875 0,-0.8554688 -0.890625,-1.5 -2.203125,-1.5 H 2.3213906 c -0.1992187,0 -0.2929687,0 -0.2929687,0.1992187 0,0.1171875 0.09375,0.1171875 0.28125,0.1171875 0.023437,0 0.2109375,0 0.3867187,0.011719 0.1757813,0.023437 0.2578125,0.035156 0.2578125,0.1640625 0,0.035156 0,0.070312 -0.035156,0.1875 L 1.5831094,-0.77275 c -0.09375,0.38671875 -0.1171875,0.46875 -0.90234377,0.46875 -0.17578125,0 -0.26953125,0 -0.26953125,0.19921875 0,0.10546875 0.1171875,0.10546875 0.140625,0.10546875 0.28125,0 0.97265622,-0.03515625 1.25390622,-0.03515625 0.28125,0 0.984375,0.03515625 1.265625,0.03515625 0.082031,0 0.1992188,0 0.1992188,-0.19921875 C 3.2706094,-0.304 3.1768594,-0.304 2.9893594,-0.304 c -0.3632813,0 -0.6445313,0 -0.6445313,-0.1875 0,-0.0585938 0.011719,-0.10546875 0.023437,-0.1640625 l 0.65625,-2.6367187 h 1.1953125 c 0.9023438,0 1.078125,0.5507812 1.078125,0.9023437 0,0.1523438 -0.082031,0.4570313 -0.140625,0.6914063 C 5.0870156,-1.429 5.0049844,-1.054 5.0049844,-0.85478125 c 0,1.078125 1.1953125,1.078125 1.3242187,1.078125 0.84375,0 1.1953125,-1.0078125 1.1953125,-1.1484375 0,-0.11718745 -0.1171875,-0.11718745 -0.1171875,-0.11718745 -0.09375,0 -0.1171875,0.0703124 -0.1289062,0.14062495 C 7.0206094,-0.163375 6.5987344,6.875e-4 6.3643594,6.875e-4 c -0.328125,0 -0.3984375,-0.22265625 -0.3984375,-0.609375 0,-0.3046875 0.058594,-0.8203125 0.1054687,-1.1367187 0.011719,-0.140625 0.035156,-0.328125 0.035156,-0.46875 0,-0.7617188 -0.6679688,-1.078125 -0.9374997,-1.171875 z m 0,0"
         style="fill:#000000;fill-opacity:1;fill-rule:nonzero;stroke:none" />
      <path
         id="path23"
         d="m 10.433695,-2.7004844 c 0.05859,-0.2460937 0.08203,-0.3164062 0.726563,-0.3164062 0.210937,0 0.28125,0 0.28125,-0.1523438 0,-0.011719 0,-0.09375 -0.117188,-0.09375 -0.152343,0 -0.339843,0.011719 -0.515625,0.011719 -0.175781,0.011719 -0.375,0.011719 -0.550781,0.011719 -0.152344,0 -0.3398437,-0.011719 -0.4804687,-0.011719 -0.1523437,0 -0.3164062,-0.011719 -0.4570312,-0.011719 -0.046875,0 -0.1523438,0 -0.1523438,0.1523438 0,0.09375 0.09375,0.09375 0.2226563,0.09375 0.011719,0 0.140625,0 0.2695312,0.011719 0.1523438,0.011719 0.1640625,0.035156 0.1640625,0.1054688 0,0.011719 0,0.046875 -0.035156,0.1523437 L 8.8633828,0.95576563 C 8.8047891,1.1901406 8.7930703,1.2487344 8.2540078,1.2487344 c -0.1171875,0 -0.2109375,0 -0.2109375,0.140625 0,0.1054687 0.082031,0.1054687 0.2109375,0.1054687 h 3.5039062 c 0.175781,0 0.1875,-0.011719 0.234375,-0.140625 0.07031,-0.1875 0.597656,-1.53515622 0.597656,-1.59374997 0,-0.0234375 -0.01172,-0.09375 -0.117187,-0.09375 -0.08203,0 -0.09375,0.0234375 -0.140625,0.140625 C 12.062602,0.47529688 11.757914,1.2487344 10.48057,1.2487344 H 9.6954141 c -0.2109375,0 -0.2226563,-0.011719 -0.2226563,-0.070312 0,-0.011719 0,-0.046875 0.023437,-0.1523438 z m 0,0"
         style="fill:#000000;fill-opacity:1;fill-rule:nonzero;stroke:none" />
    </g>
    <path
       id="path24"
       d="m 47.45218,71.43365 c 0,0.84537 -0.68529,1.53066 -1.53066,1.53066 -0.84536,0 -1.53065,-0.68529 -1.53065,-1.53066 0,-0.84536 0.68529,-1.53067 1.53065,-1.53067 0.84537,0 1.53066,0.68531 1.53066,1.53067 z"
       style="fill:#000000;fill-opacity:1;fill-rule:nonzero;stroke:#000000;stroke-width:0.3985;stroke-linecap:butt;stroke-linejoin:miter;stroke-miterlimit:10;stroke-dasharray:none;stroke-opacity:1"
       transform="matrix(1.3333333,0,0,-1.3333333,20.829333,151.57467)" />
    <path
       id="path25"
       d="m 83.16978,30.61487 c 0,0.84537 -0.68528,1.53065 -1.53065,1.53065 -0.84537,0 -1.53066,-0.68528 -1.53066,-1.53065 0,-0.84537 0.68529,-1.53067 1.53066,-1.53067 0.84537,0 1.53065,0.6853 1.53065,1.53067 z"
       style="fill:#000000;fill-opacity:1;fill-rule:nonzero;stroke:#000000;stroke-width:0.3985;stroke-linecap:butt;stroke-linejoin:miter;stroke-miterlimit:10;stroke-dasharray:none;stroke-opacity:1"
       transform="matrix(1.3333333,0,0,-1.3333333,20.829333,151.57467)" />
    <g
       id="g25"
       aria-label="n:1"
       transform="matrix(1.3333333,0,0,1.3333333,93.028,12.986667)">
      <path
         id="path26"
         d="m 0.87841406,-0.58472656 c -0.0351563,0.15234375 -0.09375,0.375 -0.09375,0.421875 0,0.1875 0.140625,0.26953125 0.29296874,0.26953125 0.1171875,0 0.2929688,-0.0703125 0.3632813,-0.26953125 0.011719,-0.0234375 0.1289062,-0.4921875 0.1875,-0.73828125 L 1.8510703,-1.8034766 c 0.058594,-0.2226562 0.1171875,-0.4335937 0.1757813,-0.6679687 0.035156,-0.1640625 0.1171875,-0.4570313 0.1289062,-0.4921875 0.140625,-0.3164063 0.6679688,-1.21875 1.6171875,-1.21875 0.4453125,0 0.5390625,0.3632812 0.5390625,0.6914062 0,0.6210938 -0.4921875,1.8984375 -0.6445312,2.3320313 -0.09375,0.22265624 -0.1054688,0.33984374 -0.1054688,0.45703124 0,0.46875 0.3515625,0.80859375 0.8203125,0.80859375 0.9375,0 1.3007813,-1.45312499 1.3007813,-1.53515629 0,-0.09375 -0.082031,-0.09375 -0.1171875,-0.09375 -0.09375,0 -0.09375,0.023437 -0.1523438,0.1757813 -0.1992187,0.67968749 -0.5273437,1.24218749 -1.0078125,1.24218749 -0.1757812,0 -0.2460937,-0.10546875 -0.2460937,-0.328125 0,-0.2578125 0.09375,-0.4921875 0.1875,-0.71484379 0.1875,-0.5273437 0.5976562,-1.6171875 0.5976562,-2.1914062 0,-0.6679688 -0.421875,-1.0664063 -1.1367187,-1.0664063 -0.9023438,0 -1.3828125,0.6445313 -1.5585938,0.8671875 -0.046875,-0.5507812 -0.4570312,-0.8671875 -0.9140625,-0.8671875 -0.45703124,0 -0.64453124,0.3867188 -0.74999999,0.5742188 -0.15234375,0.3398437 -0.29296875,0.9257812 -0.29296875,0.9609375 0,0.1054687 0.09375,0.1054687 0.1171875,0.1054687 0.09375,0 0.10546875,-0.011719 0.1640625,-0.234375 0.17578125,-0.703125 0.375,-1.1835937 0.72656254,-1.1835937 0.1992187,0 0.3164062,0.1289062 0.3164062,0.4570312 0,0.2109375 -0.035156,0.3164063 -0.1640625,0.8320313 z m 0,0"
         style="fill:#000000;fill-opacity:1;fill-rule:nonzero;stroke:none" />
      <path
         id="path27"
         d="m 10.657711,-3.7605078 c 0,-0.2929688 -0.234375,-0.5273438 -0.527344,-0.5273438 -0.2812498,0 -0.5273436,0.234375 -0.5273436,0.5273438 0,0.28125 0.2460938,0.5273437 0.5273436,0.5273437 0.292969,0 0.527344,-0.2460937 0.527344,-0.5273437 z m 0,3.23437499 c 0,-0.29296875 -0.234375,-0.52734379 -0.527344,-0.52734379 -0.2812498,0 -0.5273436,0.23437504 -0.5273436,0.52734379 0,0.29296875 0.2460938,0.52734375 0.5273436,0.52734375 0.292969,0 0.527344,-0.234375 0.527344,-0.52734375 z m 6.539062,-5.84765629 c 0,-0.234375 0,-0.2578125 -0.234375,-0.2578125 -0.609375,0.6328125 -1.488281,0.6328125 -1.804687,0.6328125 v 0.3164063 c 0.199219,0 0.785156,0 1.300781,-0.2578125 v 5.15624999 c 0,0.3515625 -0.03516,0.48046875 -0.925781,0.48046875 h -0.316406 v 0.3046875 c 0.351562,-0.03515625 1.207031,-0.03515625 1.605468,-0.03515625 0.398438,0 1.265625,0 1.617188,0.03515625 v -0.3046875 h -0.316406 c -0.902344,0 -0.925782,-0.1171875 -0.925782,-0.48046875 z m 0,0"
         style="fill:#000000;fill-opacity:1;fill-rule:nonzero;stroke:none" />
    </g>
  </g>
</svg>
