<?xml version="1.0" encoding="UTF-8" standalone="no"?>
<!-- Created with Inkscape (http://www.inkscape.org/) -->

<svg
   version="1.1"
   id="svg1"
   width="187.69333"
   height="122.46667"
   viewBox="0 0 187.69333 122.46667"
   sodipodi:docname="25-26-2-电路分析基础-期末-题图7.pdf"
   xmlns:inkscape="http://www.inkscape.org/namespaces/inkscape"
   xmlns:sodipodi="http://sodipodi.sourceforge.net/DTD/sodipodi-0.dtd"
   xmlns="http://www.w3.org/2000/svg"
   xmlns:svg="http://www.w3.org/2000/svg">
  <defs
     id="defs1" />
  <sodipodi:namedview
     id="namedview1"
     pagecolor="#ffffff"
     bordercolor="#111111"
     borderopacity="1"
     inkscape:showpageshadow="0"
     inkscape:pageopacity="0"
     inkscape:pagecheckerboard="1"
     inkscape:deskcolor="#d1d1d1">
    <inkscape:page
       x="0"
       y="0"
       inkscape:label="1"
       id="page1"
       width="187.69333"
       height="122.46667"
       margin="0"
       bleed="0" />
  </sodipodi:namedview>
  <g
     id="g1"
     inkscape:groupmode="layer"
     inkscape:label="1">
    <path
       id="path1"
       d="M 0,0 V 17.85843 M 0,41.66986 V 59.5283 l 13.88995,-1e-5 m 31.74839,0 13.88996,1e-5 13.88996,-1e-5 m 31.7484,0 13.88997,1e-5 m 0,-59.5283 H 89.29247 m 0,0 H 59.5283 0"
       style="fill:none;stroke:#000000;stroke-width:0.3985;stroke-linecap:butt;stroke-linejoin:miter;stroke-miterlimit:10;stroke-dasharray:none;stroke-opacity:1"
       transform="matrix(1.3333333,0,0,-1.3333333,20.829333,120.08533)" />
    <path
       id="path2"
       d="m -11.90572,29.76414 c 0,-6.57542 5.33031,-11.90571 11.90572,-11.90571 6.57541,0 11.90572,5.33029 11.90572,11.90571 0,6.57543 -5.33031,11.90572 -11.90572,11.90572 -6.57541,0 -11.90572,-5.33029 -11.90572,-11.90572 z"
       style="fill:none;stroke:#000000;stroke-width:0.797;stroke-linecap:butt;stroke-linejoin:miter;stroke-miterlimit:10;stroke-dasharray:none;stroke-opacity:1"
       transform="matrix(1.3333333,0,0,-1.3333333,20.829333,120.08533)" />
    <path
       id="path3"
       d="M 0,17.85843 V 41.66986"
       style="fill:none;stroke:#000000;stroke-width:0.797;stroke-linecap:butt;stroke-linejoin:miter;stroke-miterlimit:10;stroke-dasharray:none;stroke-opacity:1"
       transform="matrix(1.3333333,0,0,-1.3333333,20.829333,120.08533)" />
    <path
       id="path4"
       d="m 6.5623906,-2.2956406 c 0.1757813,0 0.3515625,0 0.3515625,-0.1992188 0,-0.1992187 -0.1757812,-0.1992187 -0.3515625,-0.1992187 h -5.390625 c -0.1640625,0 -0.33984373,0 -0.33984373,0.1992187 0,0.1992188 0.17578123,0.1992188 0.33984373,0.1992188 z m 0,0"
       style="fill:#000000;fill-opacity:1;fill-rule:nonzero;stroke:none"
       aria-label="−"
       transform="matrix(1.3333333,0,0,1.3333333,36.617333,95.818667)" />
    <path
       id="path5"
       d="m 4.0780156,-2.2980547 h 2.7773438 c 0.140625,0 0.328125,0 0.328125,-0.1992187 0,-0.1992188 -0.1875,-0.1992188 -0.328125,-0.1992188 H 4.0780156 v -2.7890625 c 0,-0.1289062 0,-0.328125 -0.1992187,-0.328125 -0.1992188,0 -0.1992188,0.1992188 -0.1992188,0.328125 v 2.7890625 H 0.89051562 c -0.140625,0 -0.328125,0 -0.328125,0.1992188 0,0.1992187 0.1875,0.1992187 0.328125,0.1992187 H 3.6795781 v 2.80078126 c 0,0.12890625 0,0.328125 0.1992188,0.328125 0.1992187,0 0.1992187,-0.19921875 0.1992187,-0.328125 z m 0,0"
       style="fill:#000000;fill-opacity:1;fill-rule:nonzero;stroke:none"
       aria-label="+"
       transform="matrix(1.3333333,0,0,1.3333333,36.617333,71.622667)" />
    <g
       id="g5"
       aria-label="U&#10;s"
       transform="matrix(1.3333333,0,0,1.3333333,47.88,83.942667)">
      <path
         id="path6"
         d="m 6.3273047,-5.7548516 c 0.09375,-0.4101562 0.28125,-0.7148437 1.078125,-0.7382812 0.046875,0 0.1640625,-0.011719 0.1640625,-0.1992188 0,-0.011719 0,-0.1171875 -0.1289063,-0.1171875 -0.328125,0 -0.6796875,0.035156 -1.0195312,0.035156 -0.3398438,0 -0.703125,-0.035156 -1.03125,-0.035156 -0.058594,0 -0.1757813,0 -0.1757813,0.1992188 0,0.1171875 0.09375,0.1171875 0.1757813,0.1171875 0.5625,0.011719 0.6796875,0.2109375 0.6796875,0.4335937 0,0.035156 -0.023437,0.1757813 -0.035156,0.2109375 l -0.890625,3.5507813 c -0.3398437,1.33593749 -1.4882812,2.20312499 -2.484375,2.20312499 -0.6796875,0 -1.21875,-0.43359375 -1.21875,-1.28906249 0,-0.023437 0,-0.3398438 0.1171875,-0.7734375 l 0.9609375,-3.8789063 c 0.09375,-0.3632812 0.1054688,-0.4570312 0.8320313,-0.4570312 0.2695312,0 0.3398437,0 0.3398437,-0.1992188 0,-0.1171875 -0.1054687,-0.1171875 -0.140625,-0.1171875 -0.2695312,0 -0.9960937,0.035156 -1.265625,0.035156 -0.2929687,0 -0.9960937,-0.035156 -1.28906246,-0.035156 -0.0820313,0 -0.1875,0 -0.1875,0.1992188 0,0.1171875 0.09375,0.1171875 0.28124996,0.1171875 0.011719,0 0.2109375,0 0.375,0.011719 0.1757813,0.023437 0.2695313,0.035156 0.2695313,0.1640625 0,0.058594 -0.1054688,0.4804688 -0.1757813,0.703125 L 1.3468362,-4.73532 c -0.09375,0.3867187 -0.57421871,2.2734375 -0.60937496,2.4609375 -0.0703125,0.28125 -0.0703125,0.4335937 -0.0703125,0.5742187 0,1.21875004 0.90234376,1.92187504 1.95703126,1.92187504 1.2539062,0 2.484375,-1.125 2.8125,-2.44921874 z m 0,0"
         style="fill:#000000;fill-opacity:1;fill-rule:nonzero;stroke:none" />
      <path
         id="path7"
         d="m 9.8019141,-1.1318047 c -0.1757813,0.046875 -0.2929688,0.18750001 -0.2929688,0.32812501 0,0.1640625 0.140625,0.22265625 0.234375,0.22265625 0.070312,0 0.3398437,-0.0351563 0.3398437,-0.3984375 0,-0.44531246 -0.5039062,-0.59765626 -0.9257812,-0.59765626 -1.0898437,0 -1.2890625,0.79687501 -1.2890625,1.00781251 0,0.2578125 0.1523438,0.43359375 0.2460938,0.515625 0.1757812,0.140625 0.3046875,0.1640625 0.7851562,0.24609375 0.1523438,0.0351563 0.5976563,0.1171875 0.5976563,0.46875 0,0.1171875 -0.082031,0.37500004 -0.375,0.55078124 -0.2695313,0.1523438 -0.609375,0.1523438 -0.6914063,0.1523438 -0.28125,0 -0.6796875,-0.058594 -0.84375,-0.2929688 0.234375,-0.023437 0.3867188,-0.19921874 0.3867188,-0.39843749 0,-0.1640625 -0.1289063,-0.2578125 -0.2695313,-0.2578125 -0.1992187,0 -0.4101562,0.1640625 -0.4101562,0.46875 0,0.42187499 0.4453125,0.67968749 1.125,0.67968749 1.2890625,0 1.5234375,-0.87890624 1.5234375,-1.14843749 0,-0.64453125 -0.703125,-0.7734375 -0.9609375,-0.8203125 -0.070312,-0.0117188 -0.2460938,-0.0351563 -0.28125,-0.0585938 -0.2578125,-0.046875 -0.3867188,-0.1875 -0.3867188,-0.33984375 0,-0.1640625 0.1289063,-0.35156256 0.28125,-0.44531256 0.1875,-0.1289062 0.4335938,-0.140625 0.5507813,-0.140625 0.140625,0 0.5039062,0.023437 0.65625,0.2578126 z m 0,0"
         style="fill:#000000;fill-opacity:1;fill-rule:nonzero;stroke:none" />
    </g>
    <path
       id="path8"
       d="m 13.49144,59.3689 c 0,3.28755 1.82136,5.95256 4.06818,5.95256 2.24681,0 4.06817,-2.66501 4.06817,-5.95256 0,3.28755 1.82137,5.95256 4.06816,5.95256 2.24681,0 4.06818,-2.66501 4.06818,-5.95256 0,3.28755 1.82137,5.95256 4.06817,5.95256 2.2468,0 4.06817,-2.66501 4.06817,-5.95256 0,3.28755 1.82136,5.95256 4.06817,5.95256 2.24681,0 4.06818,-2.66501 4.06818,-5.95256"
       style="fill:none;stroke:#000000;stroke-width:0.797;stroke-linecap:butt;stroke-linejoin:bevel;stroke-miterlimit:10;stroke-dasharray:none;stroke-opacity:1"
       transform="matrix(1.3333333,0,0,-1.3333333,20.829333,120.08533)" />
    <g
       id="g8"
       aria-label="L&#10;1"
       transform="matrix(1.3333333,0,0,1.3333333,53.014667,56.929333)">
      <path
         id="path9"
         d="m 3.7272812,-6.0231719 c 0.09375,-0.3632812 0.1171875,-0.46875 1.0546875,-0.46875 0.3046875,0 0.375,0 0.375,-0.1875 0,-0.1289062 -0.1054687,-0.1289062 -0.1523437,-0.1289062 -0.328125,0 -1.1484375,0.035156 -1.4765625,0.035156 -0.3046875,0 -1.03125,-0.035156 -1.3242188,-0.035156 -0.070312,0 -0.1875,0 -0.1875,0.1992187 0,0.1171875 0.082031,0.1171875 0.28125,0.1171875 0.011719,0 0.1992188,0 0.375,0.011719 0.1757813,0.023437 0.2695313,0.035156 0.2695313,0.1640625 0,0.035156 -0.011719,0.070312 -0.046875,0.1875 l -1.3359375,5.35546873 c -0.09375,0.38671875 -0.1171875,0.46875 -0.90234375,0.46875 -0.1640625,0 -0.26953125,0 -0.26953125,0.19921875 0,0.105468745 0.09375,0.105468745 0.26953125,0.105468745 H 5.2741562 c 0.234375,0 0.2460938,0 0.3046875,-0.164062495 L 6.364,-2.3200469 c 0.046875,-0.1054687 0.046875,-0.1289062 0.046875,-0.140625 0,-0.035156 -0.035156,-0.1054687 -0.1289063,-0.1054687 -0.082031,0 -0.09375,0.046875 -0.1640625,0.2109375 -0.3398437,0.9140625 -0.7734375,2.05078123 -2.4960937,2.05078123 h -0.9375 c -0.140625,0 -0.1640625,0 -0.2226563,-0.0117188 -0.1054687,-0.0117187 -0.1289062,-0.0234374 -0.1289062,-0.1054687 0,-0.0234375 0,-0.046875 0.046875,-0.22265625 z m 0,0"
         style="fill:#000000;fill-opacity:1;fill-rule:nonzero;stroke:none" />
      <path
         id="path10"
         d="m 9.1120469,-2.9352812 c 0,-0.1875 -0.011719,-0.1992188 -0.2109375,-0.1992188 -0.4453125,0.4335938 -1.078125,0.4453125 -1.359375,0.4453125 v 0.2460938 c 0.1640625,0 0.6210937,0 1.0078125,-0.1875 v 3.5507812 c 0,0.234375 0,0.328125 -0.6914063,0.328125 H 7.5886094 v 0.2460938 c 0.1289062,-0.011719 0.984375,-0.023437 1.2421875,-0.023437 0.2109375,0 1.0898437,0.011719 1.2421871,0.023437 V 1.2483125 H 9.8151719 c -0.703125,0 -0.703125,-0.09375 -0.703125,-0.328125 z m 0,0"
         style="fill:#000000;fill-opacity:1;fill-rule:nonzero;stroke:none" />
    </g>
    <path
       id="path11"
       d="m 73.01976,59.3689 c 0,3.28755 1.82137,5.95256 4.06818,5.95256 2.24679,0 4.06816,-2.66501 4.06816,-5.95256 0,3.28755 1.82136,5.95256 4.06817,5.95256 2.24681,0 4.06818,-2.66501 4.06818,-5.95256 0,3.28755 1.82137,5.95256 4.06816,5.95256 2.24681,0 4.06818,-2.66501 4.06818,-5.95256 0,3.28755 1.82136,5.95256 4.06817,5.95256 2.2468,0 4.06816,-2.66501 4.06816,-5.95256"
       style="fill:none;stroke:#000000;stroke-width:0.797;stroke-linecap:butt;stroke-linejoin:bevel;stroke-miterlimit:10;stroke-dasharray:none;stroke-opacity:1"
       transform="matrix(1.3333333,0,0,-1.3333333,20.829333,120.08533)" />
    <path
       id="path12"
       d="m 61.11546,59.5283 c 0,0.87658 -0.71058,1.58716 -1.58716,1.58716 -0.87655,0 -1.58714,-0.71058 -1.58714,-1.58716 0,-0.87655 0.71059,-1.58714 1.58714,-1.58714 0.87658,0 1.58716,0.71059 1.58716,1.58714 z"
       style="fill:#000000;fill-opacity:1;fill-rule:nonzero;stroke:#000000;stroke-width:0.3985;stroke-linecap:butt;stroke-linejoin:miter;stroke-miterlimit:10;stroke-dasharray:none;stroke-opacity:1"
       transform="matrix(1.3333333,0,0,-1.3333333,20.829333,120.08533)" />
    <path
       id="path13"
       d="m 120.64377,59.5283 c 0,0.87658 -0.71059,1.58716 -1.58714,1.58716 -0.87656,0 -1.58715,-0.71058 -1.58715,-1.58716 0,-0.87655 0.71059,-1.58714 1.58715,-1.58714 0.87655,0 1.58714,0.71059 1.58714,1.58714 z"
       style="fill:#ffffff;fill-opacity:1;fill-rule:nonzero;stroke:#000000;stroke-width:0.3985;stroke-linecap:butt;stroke-linejoin:miter;stroke-miterlimit:10;stroke-dasharray:none;stroke-opacity:1"
       transform="matrix(1.3333333,0,0,-1.3333333,20.829333,120.08533)" />
    <g
       id="g13"
       aria-label="L&#10;2"
       transform="matrix(1.3333333,0,0,1.3333333,132.38667,56.929333)">
      <path
         id="path14"
         d="m 3.7266016,-6.0231719 c 0.09375,-0.3632812 0.1171875,-0.46875 1.0546875,-0.46875 0.3046875,0 0.375,0 0.375,-0.1875 0,-0.1289062 -0.1054688,-0.1289062 -0.1523438,-0.1289062 -0.328125,0 -1.1484375,0.035156 -1.4765625,0.035156 -0.3046875,0 -1.03125,-0.035156 -1.3242187,-0.035156 -0.070312,0 -0.1875,0 -0.1875,0.1992187 0,0.1171875 0.082031,0.1171875 0.28125,0.1171875 0.011719,0 0.1992187,0 0.375,0.011719 0.1757812,0.023437 0.2695312,0.035156 0.2695312,0.1640625 0,0.035156 -0.011719,0.070312 -0.046875,0.1875 l -1.3359375,5.35546873 c -0.09375,0.38671875 -0.1171875,0.46875 -0.90234374,0.46875 -0.1640625,0 -0.26953125,0 -0.26953125,0.19921875 0,0.105468745 0.09375,0.105468745 0.26953125,0.105468745 H 5.2734766 c 0.234375,0 0.2460937,0 0.3046875,-0.164062495 L 6.3633203,-2.3200469 c 0.046875,-0.1054687 0.046875,-0.1289062 0.046875,-0.140625 0,-0.035156 -0.035156,-0.1054687 -0.1289062,-0.1054687 -0.082031,0 -0.09375,0.046875 -0.1640625,0.2109375 -0.3398438,0.9140625 -0.7734375,2.05078123 -2.4960938,2.05078123 h -0.9375 c -0.140625,0 -0.1640625,0 -0.2226562,-0.0117188 -0.1054688,-0.0117188 -0.1289063,-0.0234375 -0.1289063,-0.10546875 0,-0.0234375 0,-0.046875 0.046875,-0.22265625 z m 0,0"
         style="fill:#000000;fill-opacity:1;fill-rule:nonzero;stroke:none" />
      <path
         id="path15"
         d="M 10.294961,0.22878125 H 10.060586 C 10.037146,0.381125 9.978555,0.79128125 9.8848047,0.86159375 9.8262109,0.89675 9.2871484,0.89675 9.1933984,0.89675 H 7.9043359 C 8.6426172,0.25221875 8.8887109,0.053 9.2988672,-0.275125 c 0.515625,-0.41015625 0.9960938,-0.84375 0.9960938,-1.5 0,-0.84375 -0.7382813,-1.359375 -1.6289063,-1.359375 -0.8671875,0 -1.453125,0.609375 -1.453125,1.2421875 0,0.3632813 0.3046875,0.3984375 0.375,0.3984375 0.1640625,0 0.375,-0.1171875 0.375,-0.375 0,-0.1289062 -0.058594,-0.3632812 -0.421875,-0.3632812 0.2226562,-0.5039063 0.6914062,-0.65625 1.0195312,-0.65625 0.703125,0 1.0664063,0.5507812 1.0664063,1.1132812 0,0.609375 -0.4335938,1.08984375 -0.65625,1.3359375 l -1.6875,1.6640625 c -0.070312,0.058594 -0.070312,0.070312 -0.070312,0.2695313 h 2.8828128 z m 0,0"
         style="fill:#000000;fill-opacity:1;fill-rule:nonzero;stroke:none" />
    </g>
    <path
       id="path16"
       d="M 4.8159062,-0.89009375 V -1.440875 H 4.5580937 v 0.55078125 c 0,0.5859375 -0.2460937,0.64453125 -0.3515625,0.64453125 -0.328125,0 -0.375,-0.45703125 -0.375,-0.50390625 V -2.7416562 c 0,-0.4101563 0,-0.8085938 -0.3515625,-1.171875 C 3.09325,-4.30025 2.5893437,-4.4643125 2.108875,-4.4643125 c -0.8085938,0 -1.5,0.46875 -1.5,1.125 0,0.3046875 0.19921875,0.46875 0.4570312,0.46875 0.28125,0 0.4570313,-0.1992187 0.4570313,-0.4570312 0,-0.1171875 -0.046875,-0.4453125 -0.5039063,-0.4570313 0.2695313,-0.3515625 0.75,-0.4570312 1.078125,-0.4570312 0.4804688,0 1.0546875,0.3867187 1.0546875,1.2773437 v 0.3632813 C 2.6362187,-2.565875 1.9448125,-2.5424375 1.312,-2.23775 c -0.75,0.3398438 -0.99609375,0.8554688 -0.99609375,1.2890625 0,0.80859375 0.97265625,1.0546875 1.59374995,1.0546875 0.65625,0 1.1132813,-0.3984375 1.3125,-0.8671875 0.035156,0.3984375 0.3046875,0.8203125 0.7734375,0.8203125 0.2109375,0 0.8203125,-0.140625 0.8203125,-0.94921875 z M 3.1518437,-1.394 c 0,0.94921875 -0.7265625,1.2890625 -1.171875,1.2890625 -0.4804687,0 -0.890625,-0.3515625 -0.890625,-0.85546875 0,-0.53906245 0.4101563,-1.37109375 2.0625,-1.42968745 z m 0,0"
       style="fill:#000000;fill-opacity:1;fill-rule:nonzero;stroke:none"
       aria-label="a"
       transform="matrix(1.3333333,0,0,1.3333333,176.25067,51.358667)" />
    <path
       id="path17"
       d="m 5.1915859,-2.1566797 c 0,-1.265625 -0.9726562,-2.25 -2.109375,-2.25 -0.7851562,0 -1.2070312,0.46875 -1.3710937,0.65625 v -3.1640625 l -1.42968751,0.1054688 v 0.3164062 c 0.69140625,0 0.77343751,0.070312 0.77343751,0.5507813 V -4.296875e-4 H 1.3009609 L 1.6642422,-0.62152344 c 0.1523437,0.234375 0.5625,0.7265625 1.3007812,0.7265625 1.1835938,0 2.2265625,-0.97265625 2.2265625,-2.26171876 z m -0.8320312,0 c 0,0.3632813 -0.011719,0.9609375 -0.3046875,1.40625001 -0.2109375,0.31640625 -0.5859375,0.64453125 -1.125,0.64453125 -0.4453125,0 -0.8085938,-0.24609375 -1.0429688,-0.609375 -0.140625,-0.2109375 -0.140625,-0.24609375 -0.140625,-0.42187496 v -2.0507813 c 0,-0.1875 0,-0.1992187 0.1054688,-0.3632812 0.3867187,-0.5507813 0.9375,-0.6328125 1.171875,-0.6328125 0.4570312,0 0.8085937,0.2578125 1.0546875,0.6328125 0.2578125,0.4101562 0.28125,0.984375 0.28125,1.3945312 z m 0,0"
       style="fill:#000000;fill-opacity:1;fill-rule:nonzero;stroke:none"
       aria-label="b"
       transform="matrix(1.3333333,0,0,1.3333333,175.87867,115.24667)" />
    <path
       id="path18"
       d="m 120.64377,0 c 0,0.87656 -0.71059,1.58714 -1.58714,1.58714 -0.87656,0 -1.58715,-0.71058 -1.58715,-1.58714 0,-0.87656 0.71059,-1.58714 1.58715,-1.58714 0.87655,0 1.58714,0.71058 1.58714,1.58714 z"
       style="fill:#ffffff;fill-opacity:1;fill-rule:nonzero;stroke:#000000;stroke-width:0.3985;stroke-linecap:butt;stroke-linejoin:miter;stroke-miterlimit:10;stroke-dasharray:none;stroke-opacity:1"
       transform="matrix(1.3333333,0,0,-1.3333333,20.829333,120.08533)" />
    <path
       id="path19"
       d="m 61.11546,0 c 0,0.87656 -0.71058,1.58714 -1.58716,1.58714 -0.87655,0 -1.58714,-0.71058 -1.58714,-1.58714 0,-0.87656 0.71059,-1.58714 1.58714,-1.58714 0.87658,0 1.58716,0.71058 1.58716,1.58714 z"
       style="fill:#000000;fill-opacity:1;fill-rule:nonzero;stroke:#000000;stroke-width:0.3985;stroke-linecap:butt;stroke-linejoin:miter;stroke-miterlimit:10;stroke-dasharray:none;stroke-opacity:1"
       transform="matrix(1.3333333,0,0,-1.3333333,20.829333,120.08533)" />
    <path
       id="path20"
       d="m 59.5283,59.5283 -1e-5,-13.88996 m 0,-31.74839 L 59.5283,0"
       style="fill:none;stroke:#000000;stroke-width:0.3985;stroke-linecap:butt;stroke-linejoin:miter;stroke-miterlimit:10;stroke-dasharray:none;stroke-opacity:1"
       transform="matrix(1.3333333,0,0,-1.3333333,20.829333,120.08533)" />
    <path
       id="path21"
       d="m 59.3689,46.03685 c 3.28755,0 5.95256,-1.82137 5.95256,-4.06818 0,-2.24681 -2.66501,-4.06817 -5.95256,-4.06817 3.28755,0 5.95256,-1.82137 5.95256,-4.06816 0,-2.24681 -2.66501,-4.06818 -5.95256,-4.06818 3.28755,0 5.95256,-1.82136 5.95256,-4.06818 0,-2.24679 -2.66501,-4.06816 -5.95256,-4.06816 3.28755,0 5.95256,-1.82136 5.95256,-4.06817 0,-2.24681 -2.66501,-4.06818 -5.95256,-4.06818"
       style="fill:none;stroke:#000000;stroke-width:0.797;stroke-linecap:butt;stroke-linejoin:bevel;stroke-miterlimit:10;stroke-dasharray:none;stroke-opacity:1"
       transform="matrix(1.3333333,0,0,-1.3333333,20.829333,120.08533)" />
    <g
       id="g21"
       aria-label="L&#10;3"
       transform="matrix(1.3333333,0,0,1.3333333,80.144,83.262667)">
      <path
         id="path22"
         d="m 3.7269609,-6.0241484 c 0.09375,-0.3632813 0.1171875,-0.46875 1.0546875,-0.46875 0.3046875,0 0.375,0 0.375,-0.1875 0,-0.1289063 -0.1054687,-0.1289063 -0.1523437,-0.1289063 -0.328125,0 -1.1484375,0.035156 -1.4765625,0.035156 -0.3046875,0 -1.03125,-0.035156 -1.3242188,-0.035156 -0.070312,0 -0.1875,0 -0.1875,0.1992188 0,0.1171875 0.082031,0.1171875 0.28125,0.1171875 0.011719,0 0.1992188,0 0.375,0.011719 0.1757813,0.023437 0.2695313,0.035156 0.2695313,0.1640625 0,0.035156 -0.011719,0.070312 -0.046875,0.1875 l -1.3359375,5.35546876 c -0.09375,0.38671875 -0.1171875,0.46875 -0.90234376,0.46875 -0.1640625,0 -0.26953125,0 -0.26953125,0.19921875 0,0.1054687525 0.09375,0.1054687525 0.26953125,0.1054687525 H 5.2738359 c 0.234375,0 0.2460938,0 0.3046875,-0.1640625025 L 6.3636797,-2.3210234 c 0.046875,-0.1054688 0.046875,-0.1289063 0.046875,-0.140625 0,-0.035156 -0.035156,-0.1054688 -0.1289063,-0.1054688 -0.082031,0 -0.09375,0.046875 -0.1640625,0.2109375 -0.3398437,0.9140625 -0.7734375,2.05078126 -2.4960937,2.05078126 h -0.9375 c -0.140625,0 -0.1640625,0 -0.2226563,-0.0117188 -0.1054687,-0.0117188 -0.1289062,-0.0234375 -0.1289062,-0.10546875 0,-0.0234375 0,-0.046875 0.046875,-0.22265625 z m 0,0"
         style="fill:#000000;fill-opacity:1;fill-rule:nonzero;stroke:none" />
      <path
         id="path23"
         d="m 8.6781328,-0.83860156 c 0.5507813,0 0.9375,0.375 0.9375,1.125 0,0.86718746 -0.5039062,1.12499996 -0.9023437,1.12499996 -0.28125,0 -0.890625,-0.082031 -1.1835938,-0.49218746 0.328125,-0.0117188 0.3984375,-0.24609375 0.3984375,-0.38671875 0,-0.22265625 -0.1640625,-0.38671875 -0.3867187,-0.38671875 -0.1875,0 -0.3867188,0.1171875 -0.3867188,0.41015625 0,0.65625001 0.7265625,1.07812501 1.5703125,1.07812501 0.9726563,0 1.6406252,-0.64453126 1.6406252,-1.34765626 0,-0.5390625 -0.4453127,-1.08984375 -1.2187502,-1.2421875 0.7382813,-0.26953124 0.9960942,-0.79687504 0.9960942,-1.21875004 0,-0.5507812 -0.6328129,-0.9609375 -1.4062504,-0.9609375 -0.7734375,0 -1.359375,0.375 -1.359375,0.9375 0,0.234375 0.1523437,0.3632813 0.3632812,0.3632813 0.2109375,0 0.3515625,-0.1640625 0.3515625,-0.3515625 0,-0.1992188 -0.140625,-0.3515625 -0.3515625,-0.3632813 0.234375,-0.3046875 0.7148438,-0.3867187 0.9726563,-0.3867187 0.3164062,0 0.7617187,0.1523437 0.7617187,0.7617187 0,0.2929688 -0.1054687,0.609375 -0.28125,0.8320313 -0.234375,0.2578125 -0.421875,0.28125 -0.7734375,0.2929687 -0.1757812,0.023437 -0.1875,0.023437 -0.2226562,0.023437 -0.011719,0 -0.070312,0.011719 -0.070312,0.09375 0,0.09375 0.058594,0.09375 0.1757812,0.09375 z m 0,0"
         style="fill:#000000;fill-opacity:1;fill-rule:nonzero;stroke:none" />
    </g>
    <path
       id="path24"
       d="m 9.2224687,-6.0362266 c 0.09375,-0.3632812 0.1054688,-0.4570312 0.8554683,-0.4570312 0.234375,0 0.316407,0 0.316407,-0.1992188 0,-0.1171875 -0.09375,-0.1171875 -0.269532,-0.1171875 H 8.8123125 c -0.2578125,0 -0.2695313,0 -0.3867188,0.1992188 L 4.7927812,-0.93857031 4.0193437,-6.5752891 c -0.035156,-0.234375 -0.058594,-0.234375 -0.3164062,-0.234375 h -1.359375 c -0.1875,0 -0.3046875,0 -0.3046875,0.1992188 0,0.1171875 0.09375,0.1171875 0.2929687,0.1171875 0.1289063,0 0.3046875,0.011719 0.421875,0.011719 0.1640625,0.023437 0.2226563,0.058594 0.2226563,0.1640625 0,0.035156 -0.011719,0.070312 -0.035156,0.1875 l -1.265625,5.0742188 c -0.1054687,0.39843749 -0.2695312,0.71484374 -1.07812495,0.74999999 -0.046875,0 -0.17578125,0 -0.17578125,0.1875 0,0.08203125 0.0585938,0.1171875 0.140625,0.1171875 0.31640625,0 0.6679687,-0.03515625 0.9960937,-0.03515625 0.3398438,0 0.6914063,0.03515625 1.0195313,0.03515625 0.046875,0 0.1757812,0 0.1757812,-0.19921875 0,-0.10546875 -0.1054687,-0.10546875 -0.1757812,-0.10546875 -0.5625,-0.0117188 -0.6796875,-0.2109375 -0.6796875,-0.4453125 0,-0.0703125 0.011719,-0.1171875 0.046875,-0.22265625 L 3.2927812,-6.4112266 H 3.3045 l 0.8554687,6.17578129 c 0.023437,0.12890625 0.035156,0.234375 0.1523438,0.234375 0.1054687,0 0.1757812,-0.10546875 0.2226562,-0.17578125 L 8.5545,-6.4815391 h 0.011719 l -1.4296875,5.70703129 c -0.09375,0.38671875 -0.1171875,0.46875 -0.9023437,0.46875 -0.1640625,0 -0.28125,0 -0.28125,0.1875 0,0.1171875 0.1289062,0.1171875 0.1523437,0.1171875 0.28125,0 0.9609375,-0.03515625 1.2304688,-0.03515625 0.4101562,0 0.84375,0.03515625 1.2539062,0.03515625 0.058594,0 0.1875,0 0.1875,-0.19921875 0,-0.10546875 -0.09375,-0.10546875 -0.28125,-0.10546875 -0.3632812,0 -0.6445312,0 -0.6445312,-0.1875 0,-0.0351563 0,-0.0585938 0.046875,-0.234375 z m 0,0"
       style="fill:#000000;fill-opacity:1;fill-rule:nonzero;stroke:none"
       aria-label="M"
       transform="matrix(1.3333333,0,0,1.3333333,116.844,13.505333)" />
    <path
       id="path25"
       d="m 48.81363,65.48149 c 0,0.65767 -0.53314,1.19083 -1.19081,1.19083 -0.65767,0 -1.19082,-0.53316 -1.19082,-1.19083 0,-0.65767 0.53315,-1.19081 1.19082,-1.19081 0.65767,0 1.19081,0.53314 1.19081,1.19081 z"
       style="fill:#000000;fill-opacity:1;fill-rule:nonzero;stroke:#000000;stroke-width:0.3985;stroke-linecap:butt;stroke-linejoin:miter;stroke-miterlimit:10;stroke-dasharray:none;stroke-opacity:1"
       transform="matrix(1.3333333,0,0,-1.3333333,20.829333,120.08533)" />
    <path
       id="path26"
       d="m 108.34195,65.48149 c 0,0.65767 -0.53315,1.19083 -1.19081,1.19083 -0.65767,0 -1.19081,-0.53316 -1.19081,-1.19083 0,-0.65767 0.53314,-1.19081 1.19081,-1.19081 0.65766,0 1.19081,0.53314 1.19081,1.19081 z"
       style="fill:#000000;fill-opacity:1;fill-rule:nonzero;stroke:#000000;stroke-width:0.3985;stroke-linecap:butt;stroke-linejoin:miter;stroke-miterlimit:10;stroke-dasharray:none;stroke-opacity:1"
       transform="matrix(1.3333333,0,0,-1.3333333,20.829333,120.08533)" />
    <path
       id="path27"
       d="M 68.49142,78.39809 50.94775,68.65073"
       style="fill:none;stroke:#000000;stroke-width:0.3985;stroke-linecap:butt;stroke-linejoin:miter;stroke-miterlimit:10;stroke-dasharray:none;stroke-opacity:1"
       transform="matrix(1.3333333,0,0,-1.3333333,20.829333,120.08533)" />
    <path
       id="path28"
       d="M -2.07224,2.39104 C -1.69365,0.95639 -0.84999,0.27895 0,0 -0.84999,-0.27895 -1.69365,-0.95639 -2.07224,-2.39104"
       style="fill:none;stroke:#000000;stroke-width:0.3985;stroke-linecap:round;stroke-linejoin:round;stroke-miterlimit:10;stroke-dasharray:none;stroke-opacity:1"
       transform="matrix(-1.16548,0.64754667,0.64754667,1.16548,88.527427,28.680053)" />
    <path
       id="path29"
       d="M 86.28255,78.39809 103.8262,68.65073"
       style="fill:none;stroke:#000000;stroke-width:0.3985;stroke-linecap:butt;stroke-linejoin:miter;stroke-miterlimit:10;stroke-dasharray:none;stroke-opacity:1"
       transform="matrix(1.3333333,0,0,-1.3333333,20.829333,120.08533)" />
    <path
       id="path30"
       d="M -2.07224,2.39104 C -1.69365,0.95639 -0.84999,0.27895 0,0 -0.84999,-0.27895 -1.69365,-0.95639 -2.07224,-2.39104"
       style="fill:none;stroke:#000000;stroke-width:0.3985;stroke-linecap:round;stroke-linejoin:round;stroke-miterlimit:10;stroke-dasharray:none;stroke-opacity:1"
       transform="matrix(1.16548,0.64754667,0.64754667,-1.16548,159.49651,28.680053)" />
  </g>
</svg>
