<?xml version="1.0" encoding="UTF-8" standalone="no"?>
<!-- Created with Inkscape (http://www.inkscape.org/) -->

<svg
   version="1.1"
   id="svg1"
   width="213.48"
   height="138.73334"
   viewBox="0 0 213.48 138.73334"
   sodipodi:docname="25-26-2-电路分析基础-期末-题图6.pdf"
   xmlns:inkscape="http://www.inkscape.org/namespaces/inkscape"
   xmlns:sodipodi="http://sodipodi.sourceforge.net/DTD/sodipodi-0.dtd"
   xmlns="http://www.w3.org/2000/svg"
   xmlns:svg="http://www.w3.org/2000/svg">
  <defs
     id="defs1" />
  <sodipodi:namedview
     id="namedview1"
     pagecolor="#ffffff"
     bordercolor="#111111"
     borderopacity="1"
     inkscape:showpageshadow="0"
     inkscape:pageopacity="0"
     inkscape:pagecheckerboard="1"
     inkscape:deskcolor="#d1d1d1">
    <inkscape:page
       x="0"
       y="0"
       inkscape:label="1"
       id="page1"
       width="213.48"
       height="138.73334"
       margin="0"
       bleed="0" />
  </sodipodi:namedview>
  <g
     id="g1"
     inkscape:groupmode="layer"
     inkscape:label="1">
    <path
       id="path1"
       d="m 0,85.04044 h 21.2601 m 0,0 h 21.26012 l -2e-5,-16.01598 m 0,-31.7484 2e-5,-16.01596 V 0 H 21.2601 m 0,0 H 0"
       style="fill:none;stroke:#000000;stroke-width:0.3985;stroke-linecap:butt;stroke-linejoin:miter;stroke-miterlimit:10;stroke-dasharray:none;stroke-opacity:1"
       transform="matrix(1.3333333,0,0,-1.3333333,23.912,129.31333)" />
    <path
       id="path2"
       d="m 1.58714,85.04044 c 0,0.87655 -0.71058,1.58714 -1.58714,1.58714 -0.87656,0 -1.58714,-0.71059 -1.58714,-1.58714 0,-0.87656 0.71058,-1.58714 1.58714,-1.58714 0.87656,0 1.58714,0.71058 1.58714,1.58714 z"
       style="fill:#ffffff;fill-opacity:1;fill-rule:nonzero;stroke:#000000;stroke-width:0.3985;stroke-linecap:butt;stroke-linejoin:miter;stroke-miterlimit:10;stroke-dasharray:none;stroke-opacity:1"
       transform="matrix(1.3333333,0,0,-1.3333333,23.912,129.31333)" />
    <path
       id="path3"
       d="m 19.52388,85.04044 v -1.98426 l 4.21654,1.98426 -4.21654,1.98425 z"
       style="fill:#000000;fill-opacity:1;fill-rule:nonzero;stroke:#000000;stroke-width:0.3985;stroke-linecap:butt;stroke-linejoin:miter;stroke-miterlimit:10;stroke-dasharray:none;stroke-opacity:1"
       transform="matrix(1.3333333,0,0,-1.3333333,23.912,129.31333)" />
    <path
       id="path4"
       d="m 42.36081,69.42296 c 3.28755,0 5.95256,-1.82136 5.95256,-4.06818 0,-2.24679 -2.66501,-4.06816 -5.95256,-4.06816 3.28755,0 5.95256,-1.82136 5.95256,-4.06818 0,-2.24681 -2.66501,-4.06817 -5.95256,-4.06817 3.28755,0 5.95256,-1.82137 5.95256,-4.06817 0,-2.2468 -2.66501,-4.06817 -5.95256,-4.06817 3.28755,0 5.95256,-1.82136 5.95256,-4.06817 0,-2.2468 -2.66501,-4.06816 -5.95256,-4.06816"
       style="fill:none;stroke:#000000;stroke-width:0.797;stroke-linecap:butt;stroke-linejoin:bevel;stroke-miterlimit:10;stroke-dasharray:none;stroke-opacity:1"
       transform="matrix(1.3333333,0,0,-1.3333333,23.912,129.31333)" />
    <g
       id="g4"
       aria-label="jωL&#10;1"
       transform="matrix(1.3333333,0,0,1.3333333,45.573333,61.309333)">
      <path
         id="path5"
         d="m 3.9498828,-6.2232109 c 0,-0.1875 -0.1289062,-0.3632813 -0.375,-0.3632813 -0.2226562,0 -0.5273437,0.234375 -0.5273437,0.5273438 0,0.1992187 0.140625,0.3632812 0.375,0.3632812 0.2695312,0 0.5273437,-0.2578125 0.5273437,-0.5273437 z M 1.9576953,0.50335156 C 1.7584766,1.2533516 1.2897266,1.8275703 0.72722656,1.8275703 c -0.0585938,0 -0.2109375,0 -0.38671875,-0.09375 0.29296875,-0.070312 0.4453125,-0.328125 0.4453125,-0.5273437 0,-0.1640625 -0.10546875,-0.35156254 -0.375,-0.35156254 -0.24609375,0 -0.5390625,0.21093754 -0.5390625,0.57421874 0,0.3984375 0.3984375,0.609375 0.87890625,0.609375 0.69140624,0 1.61718754,-0.5273437 1.87500004,-1.51171874 L 3.5397266,-3.1177422 c 0.046875,-0.1992187 0.046875,-0.3398437 0.046875,-0.375 0,-0.5625 -0.421875,-0.9140625 -0.9140625,-0.9140625 -1.0195313,0 -1.5820313,1.453125 -1.5820313,1.5351563 0,0.1054687 0.09375,0.1054687 0.1171875,0.1054687 0.09375,0 0.09375,-0.011719 0.1757813,-0.1992187 0.2460937,-0.609375 0.7148437,-1.21875 1.2539062,-1.21875 0.140625,0 0.3164063,0.035156 0.3164063,0.4570312 0,0.234375 -0.023437,0.3398438 -0.058594,0.5039063 z M 10.685234,-3.7036797 c 0,-0.4453125 -0.175781,-0.703125 -0.398437,-0.703125 -0.257813,0 -0.5273439,0.2460938 -0.5273439,0.46875 0,0.1054688 0.046875,0.2109375 0.1523438,0.3046875 0.1640621,0.140625 0.3515621,0.4101563 0.3515621,0.8320313 0,0.3984375 -0.1875,0.9726562 -0.5039059,1.4296875 -0.2929687,0.42187496 -0.6679687,0.76171871 -1.1367187,0.76171871 -0.5625,0 -0.8671875,-0.3515625 -0.9609375,-0.89062501 0.1054687,-0.2578125 0.3398437,-0.9023437 0.3398437,-1.1835937 0,-0.1171875 -0.046875,-0.2109375 -0.1875,-0.2109375 -0.070312,0 -0.1875,0.011719 -0.2578125,0.1640625 -0.1171875,0.1992187 -0.234375,0.84375 -0.234375,1.2070312 -0.328125,0.46875 -0.7265625,0.91406251 -1.359375,0.91406251 -0.65625,0 -0.8671875,-0.58593751 -0.8671875,-1.14843751 0,-1.2421875 1.0195313,-2.2851562 1.0195313,-2.4140625 0,-0.1171875 -0.082031,-0.1875 -0.1875,-0.1875 -0.1289063,0 -0.1992188,0.1289063 -0.2578125,0.2109375 -0.5039063,0.7382813 -0.890625,1.921875 -0.890625,2.8359375 0,0.67968751 0.234375,1.41796876 1.0429687,1.41796876 0.7148438,0 1.1835938,-0.4921875 1.5351563,-1.04296875 0.09375,0.57421875 0.4804687,1.04296875 1.1015625,1.04296875 0.7734375,0 1.2539062,-0.609375 1.6171871,-1.34765626 0.234375,-0.4921875 0.609375,-1.8515625 0.609375,-2.4609375 z M 14.945,-6.0239922 c 0.09375,-0.3632812 0.117187,-0.46875 1.054687,-0.46875 0.304688,0 0.375,0 0.375,-0.1875 0,-0.1289062 -0.105468,-0.1289062 -0.152343,-0.1289062 -0.328125,0 -1.148438,0.035156 -1.476563,0.035156 -0.304687,0 -1.03125,-0.035156 -1.324219,-0.035156 -0.07031,0 -0.1875,0 -0.1875,0.1992187 0,0.1171875 0.08203,0.1171875 0.28125,0.1171875 0.01172,0 0.199219,0 0.375,0.011719 0.175782,0.023437 0.269532,0.035156 0.269532,0.1640625 0,0.035156 -0.01172,0.070312 -0.04687,0.1875 l -1.335938,5.35546871 c -0.09375,0.38671875 -0.117187,0.46875 -0.902344,0.46875 -0.164062,0 -0.269531,0 -0.269531,0.19921875 0,0.1054687525 0.09375,0.1054687525 0.269531,0.1054687525 h 4.617188 c 0.234375,0 0.246094,0 0.304687,-0.1640625025 L 17.581724,-2.320867 c 0.04687,-0.1054687 0.04687,-0.1289062 0.04687,-0.140625 0,-0.035156 -0.03516,-0.1054687 -0.128907,-0.1054687 -0.08203,0 -0.09375,0.046875 -0.164062,0.2109375 -0.339844,0.9140625 -0.773438,2.05078121 -2.496094,2.05078121 h -0.9375 c -0.140625,0 -0.164062,0 -0.222656,-0.0117188 -0.105469,-0.0117188 -0.128906,-0.0234375 -0.128906,-0.10546875 0,-0.0234375 0,-0.046875 0.04687,-0.22265625 z m 0,0"
         style="fill:#000000;fill-opacity:1;fill-rule:nonzero;stroke:none" />
      <path
         id="path6"
         d="m 20.344414,-2.9361016 c 0,-0.1875 -0.01172,-0.1992187 -0.210937,-0.1992187 -0.445313,0.4335937 -1.078125,0.4453125 -1.359375,0.4453125 v 0.2460937 c 0.164062,0 0.621093,0 1.007812,-0.1875 v 3.55078129 c 0,0.23437501 0,0.32812501 -0.691406,0.32812501 h -0.269531 v 0.2460937 c 0.128906,-0.011719 0.984375,-0.023437 1.242187,-0.023437 0.210938,0 1.089844,0.011719 1.242188,0.023437 V 1.2474922 h -0.257813 c -0.703125,0 -0.703125,-0.09375 -0.703125,-0.32812501 z m 0,0"
         style="fill:#000000;fill-opacity:1;fill-rule:nonzero;stroke:none" />
    </g>
    <path
       id="path7"
       d="M 1.58714,0 C 1.58714,0.87656 0.87656,1.58714 0,1.58714 -0.87656,1.58714 -1.58714,0.87656 -1.58714,0 c 0,-0.87656 0.71058,-1.58714 1.58714,-1.58714 0.87656,0 1.58714,0.71058 1.58714,1.58714 z"
       style="fill:#ffffff;fill-opacity:1;fill-rule:nonzero;stroke:#000000;stroke-width:0.3985;stroke-linecap:butt;stroke-linejoin:miter;stroke-miterlimit:10;stroke-dasharray:none;stroke-opacity:1"
       transform="matrix(1.3333333,0,0,-1.3333333,23.912,129.31333)" />
    <g
       id="g7"
       aria-label="1&#10;′"
       transform="matrix(1.3333333,0,0,1.3333333,8.8506667,134.30667)">
      <path
         id="path8"
         d="m 2.9303594,-6.3735547 c 0,-0.234375 0,-0.2578125 -0.234375,-0.2578125 -0.609375,0.6328125 -1.4882813,0.6328125 -1.80468753,0.6328125 v 0.3164063 c 0.19921873,0 0.78515623,0 1.30078123,-0.2578125 v 5.15624996 c 0,0.3515625 -0.035156,0.48046875 -0.9257812,0.48046875 H 0.94989062 v 0.3046875 C 1.3014531,-0.03371094 2.1569219,-0.03371094 2.5553594,-0.03371094 c 0.3984375,0 1.265625,0 1.6171875,0.03515625 v -0.3046875 H 3.8561406 c -0.9023437,0 -0.9257812,-0.1171875 -0.9257812,-0.48046875 z m 0,0"
         style="fill:#000000;fill-opacity:1;fill-rule:nonzero;stroke:none" />
      <path
         id="path9"
         d="m 7.0084844,-6.9096875 c 0.046875,-0.1171875 0.058594,-0.1757813 0.058594,-0.2226563 0,-0.2109375 -0.1992187,-0.3867187 -0.4101562,-0.3867187 -0.2695313,0 -0.3515625,0.2226562 -0.3867188,0.328125 L 5.3561406,-4.1675 c -0.011719,0.011719 -0.035156,0.1054687 -0.035156,0.1171875 0,0.082031 0.2109375,0.1523437 0.2695312,0.1523437 0.046875,0 0.058594,-0.023437 0.1054688,-0.1289062 z m 0,0"
         style="fill:#000000;fill-opacity:1;fill-rule:nonzero;stroke:none" />
    </g>
    <path
       id="path10"
       d="m 6.5620703,-2.2973203 c 0.1757813,0 0.3515625,0 0.3515625,-0.1992188 0,-0.1992187 -0.1757812,-0.1992187 -0.3515625,-0.1992187 h -5.390625 c -0.1640625,0 -0.33984374,0 -0.33984374,0.1992187 0,0.1992188 0.17578124,0.1992188 0.33984374,0.1992188 z m 0,0"
       style="fill:#000000;fill-opacity:1;fill-rule:nonzero;stroke:none"
       aria-label="−"
       transform="matrix(1.3333333,0,0,1.3333333,18.746667,115.692)" />
    <path
       id="path11"
       d="m 4.0776953,-2.29825 h 2.7773438 c 0.140625,0 0.328125,0 0.328125,-0.1992187 0,-0.1992188 -0.1875,-0.1992188 -0.328125,-0.1992188 H 4.0776953 V -5.48575 c 0,-0.1289062 0,-0.328125 -0.1992187,-0.328125 -0.1992188,0 -0.1992188,0.1992188 -0.1992188,0.328125 v 2.7890625 H 0.89019531 c -0.140625,0 -0.328125,0 -0.328125,0.1992188 0,0.1992187 0.1875,0.1992187 0.328125,0.1992187 H 3.6792578 v 2.80078125 c 0,0.12890625 0,0.328125 0.1992188,0.328125 0.1992187,0 0.1992187,-0.19921875 0.1992187,-0.328125 z m 0,0"
       style="fill:#000000;fill-opacity:1;fill-rule:nonzero;stroke:none"
       aria-label="+"
       transform="matrix(1.3333333,0,0,1.3333333,18.746667,36.189333)" />
    <g
       id="g11"
       aria-label="˙&#10;U&#10;1"
       transform="matrix(1.3333333,0,0,1.3333333,20.181333,74.38)">
      <path
         id="path12"
         d="m 1.9089219,-6.1414453 c 0,-0.2695313 -0.2226563,-0.5273438 -0.5273438,-0.5273438 -0.3398437,0 -0.53906247,0.28125 -0.53906247,0.5273438 0,0.2695312 0.23437497,0.5273437 0.52734377,0.5273437 0.3398437,0 0.5390625,-0.2695312 0.5390625,-0.5273437 z m 0,0"
         style="fill:#000000;fill-opacity:1;fill-rule:nonzero;stroke:none" />
      <path
         id="path13"
         d="m 3.4909531,-3.2351953 c 0.09375,-0.4101563 0.28125,-0.7148438 1.078125,-0.7382813 0.046875,0 0.1640625,-0.011719 0.1640625,-0.1992187 0,-0.011719 0,-0.1171875 -0.1289062,-0.1171875 -0.328125,0 -0.6796875,0.035156 -1.0195313,0.035156 -0.3398437,0 -0.703125,-0.035156 -1.03125,-0.035156 -0.058594,0 -0.1757812,0 -0.1757812,0.1992187 0,0.1171875 0.09375,0.1171875 0.1757812,0.1171875 0.5625,0.011719 0.6796875,0.2109375 0.6796875,0.4335938 0,0.035156 -0.023437,0.1757812 -0.035156,0.2109375 L 2.3073594,0.22183594 C 1.9675156,1.5577734 0.81907813,2.4249609 -0.17701562,2.4249609 c -0.6796875,0 -1.21874998,-0.4335937 -1.21874998,-1.2890625 0,-0.023437 0,-0.33984371 0.1171875,-0.77343746 l 0.96093748,-3.87890624 c 0.09375,-0.3632813 0.10546875,-0.4570313 0.83203125,-0.4570313 0.26953125,0 0.33984375,0 0.33984375,-0.1992187 0,-0.1171875 -0.10546875,-0.1171875 -0.140625,-0.1171875 -0.26953125,0 -0.99609375,0.035156 -1.265625,0.035156 -0.29296875,0 -0.99609378,-0.035156 -1.28906248,-0.035156 -0.082031,0 -0.1875,0 -0.1875,0.1992187 0,0.1171875 0.09375,0.1171875 0.28125,0.1171875 0.011719,0 0.2109375,0 0.375,0.011719 0.1757812,0.023437 0.2695312,0.035156 0.2695312,0.1640625 0,0.058594 -0.1054687,0.4804687 -0.1757812,0.703125 l -0.2109375,0.8789062 c -0.09375,0.3867188 -0.5742188,2.27343754 -0.609375,2.46093754 -0.070312,0.28125 -0.070312,0.43359375 -0.070312,0.57421875 0,1.21875001 0.9023437,1.92187501 1.95703123,1.92187501 1.25390627,0 2.48437497,-1.125 2.81249997,-2.44921876 z m 0,0"
         style="fill:#000000;fill-opacity:1;fill-rule:nonzero;stroke:none" />
      <path
         id="path14"
         d="m 6.2975938,-0.41683594 c 0,-0.1875 -0.011719,-0.19921875 -0.2109375,-0.19921875 -0.4453125,0.43359375 -1.078125,0.4453125 -1.359375,0.4453125 v 0.24609375 c 0.1640625,0 0.6210937,0 1.0078125,-0.1875 V 3.4386328 c 0,0.234375 0,0.328125 -0.6914063,0.328125 H 4.7741563 v 0.2460938 c 0.1289062,-0.011719 0.984375,-0.023438 1.2421875,-0.023438 0.2109375,0 1.0898437,0.011719 1.2421875,0.023438 V 3.7667578 H 7.0007188 c -0.703125,0 -0.703125,-0.09375 -0.703125,-0.328125 z m 0,0"
         style="fill:#000000;fill-opacity:1;fill-rule:nonzero;stroke:none" />
    </g>
    <path
       id="path15"
       d="m 2.9302812,-6.3747266 c 0,-0.234375 0,-0.2578125 -0.234375,-0.2578125 -0.609375,0.6328125 -1.4882812,0.6328125 -1.80468745,0.6328125 v 0.3164063 c 0.19921875,0 0.78515625,0 1.30078125,-0.2578125 v 5.15624999 c 0,0.3515625 -0.035156,0.48046875 -0.9257813,0.48046875 H 0.9498125 V 2.734375e-4 C 1.301375,-0.03488281 2.1568437,-0.03488281 2.5552812,-0.03488281 c 0.3984375,0 1.265625,0 1.6171875,0.0351562475 V -0.30441406 H 3.8560625 c -0.9023438,0 -0.9257813,-0.1171875 -0.9257813,-0.48046875 z m 0,0"
       style="fill:#000000;fill-opacity:1;fill-rule:nonzero;stroke:none"
       aria-label="1"
       transform="matrix(1.3333333,0,0,1.3333333,12.577333,20.206667)" />
    <path
       id="path16"
       d="m 127.56065,85.04044 h -21.26011 m 0,0 H 85.04044 V 69.02446 m 0,-31.7484 V 21.2601 0 h 21.2601 m 0,0 h 21.26011"
       style="fill:none;stroke:#000000;stroke-width:0.3985;stroke-linecap:butt;stroke-linejoin:miter;stroke-miterlimit:10;stroke-dasharray:none;stroke-opacity:1"
       transform="matrix(1.3333333,0,0,-1.3333333,23.912,129.31333)" />
    <path
       id="path17"
       d="m 129.14781,85.04044 c 0,0.87655 -0.71058,1.58714 -1.58716,1.58714 -0.87655,0 -1.58714,-0.71059 -1.58714,-1.58714 0,-0.87656 0.71059,-1.58714 1.58714,-1.58714 0.87658,0 1.58716,0.71058 1.58716,1.58714 z"
       style="fill:#ffffff;fill-opacity:1;fill-rule:nonzero;stroke:#000000;stroke-width:0.3985;stroke-linecap:butt;stroke-linejoin:miter;stroke-miterlimit:10;stroke-dasharray:none;stroke-opacity:1"
       transform="matrix(1.3333333,0,0,-1.3333333,23.912,129.31333)" />
    <path
       id="path18"
       d="m 108.03676,85.04044 v 1.98425 l -4.21654,-1.98425 4.21654,-1.98426 z"
       style="fill:#000000;fill-opacity:1;fill-rule:nonzero;stroke:#000000;stroke-width:0.3985;stroke-linecap:butt;stroke-linejoin:miter;stroke-miterlimit:10;stroke-dasharray:none;stroke-opacity:1"
       transform="matrix(1.3333333,0,0,-1.3333333,23.912,129.31333)" />
    <path
       id="path19"
       d="m 84.88104,69.42296 c 3.28756,0 5.95256,-1.82136 5.95256,-4.06818 0,-2.24679 -2.665,-4.06816 -5.95256,-4.06816 3.28756,0 5.95256,-1.82136 5.95256,-4.06818 0,-2.24681 -2.665,-4.06817 -5.95256,-4.06817 3.28756,0 5.95256,-1.82137 5.95256,-4.06817 0,-2.2468 -2.665,-4.06817 -5.95256,-4.06817 3.28756,0 5.95256,-1.82136 5.95256,-4.06817 0,-2.2468 -2.665,-4.06816 -5.95256,-4.06816"
       style="fill:none;stroke:#000000;stroke-width:0.797;stroke-linecap:butt;stroke-linejoin:bevel;stroke-miterlimit:10;stroke-dasharray:none;stroke-opacity:1"
       transform="matrix(1.3333333,0,0,-1.3333333,23.912,129.31333)" />
    <g
       id="g19"
       aria-label="jωL&#10;2"
       transform="matrix(1.3333333,0,0,1.3333333,148.17733,61.309333)">
      <path
         id="path20"
         d="m 3.9480547,-6.2232109 c 0,-0.1875 -0.1289063,-0.3632813 -0.375,-0.3632813 -0.2226563,0 -0.5273438,0.234375 -0.5273438,0.5273438 0,0.1992187 0.140625,0.3632812 0.375,0.3632812 0.2695313,0 0.5273438,-0.2578125 0.5273438,-0.5273437 z M 1.9558672,0.50335156 C 1.7566484,1.2533516 1.2878984,1.8275703 0.72539844,1.8275703 c -0.0585938,0 -0.2109375,0 -0.38671875,-0.09375 0.29296875,-0.070312 0.4453125,-0.328125 0.4453125,-0.5273437 0,-0.1640625 -0.10546875,-0.35156254 -0.375,-0.35156254 -0.24609375,0 -0.5390625,0.21093754 -0.5390625,0.57421874 0,0.3984375 0.3984375,0.609375 0.87890625,0.609375 0.69140626,0 1.61718746,-0.5273437 1.87499996,-1.51171874 L 3.5378984,-3.1177422 c 0.046875,-0.1992187 0.046875,-0.3398437 0.046875,-0.375 0,-0.5625 -0.421875,-0.9140625 -0.9140625,-0.9140625 -1.0195312,0 -1.5820312,1.453125 -1.5820312,1.5351563 0,0.1054687 0.09375,0.1054687 0.1171875,0.1054687 0.09375,0 0.09375,-0.011719 0.1757812,-0.1992187 0.2460938,-0.609375 0.7148438,-1.21875 1.2539063,-1.21875 0.140625,0 0.3164062,0.035156 0.3164062,0.4570312 0,0.234375 -0.023437,0.3398438 -0.058594,0.5039063 z M 10.686336,-3.7036797 c 0,-0.4453125 -0.175781,-0.703125 -0.398438,-0.703125 -0.257812,0 -0.5273433,0.2460938 -0.5273433,0.46875 0,0.1054688 0.046875,0.2109375 0.1523437,0.3046875 0.1640626,0.140625 0.3515626,0.4101563 0.3515626,0.8320313 0,0.3984375 -0.1875,0.9726562 -0.5039063,1.4296875 -0.2929688,0.42187496 -0.6679688,0.76171871 -1.1367188,0.76171871 -0.5625,0 -0.8671875,-0.3515625 -0.9609375,-0.89062501 0.1054688,-0.2578125 0.3398438,-0.9023437 0.3398438,-1.1835937 0,-0.1171875 -0.046875,-0.2109375 -0.1875,-0.2109375 -0.070312,0 -0.1875,0.011719 -0.2578125,0.1640625 -0.1171875,0.1992187 -0.234375,0.84375 -0.234375,1.2070312 -0.328125,0.46875 -0.7265625,0.91406251 -1.359375,0.91406251 -0.65625,0 -0.8671875,-0.58593751 -0.8671875,-1.14843751 0,-1.2421875 1.0195312,-2.2851562 1.0195312,-2.4140625 0,-0.1171875 -0.082031,-0.1875 -0.1875,-0.1875 -0.1289062,0 -0.1992187,0.1289063 -0.2578125,0.2109375 -0.5039062,0.7382813 -0.890625,1.921875 -0.890625,2.8359375 0,0.67968751 0.234375,1.41796876 1.0429688,1.41796876 0.7148437,0 1.1835937,-0.4921875 1.5351562,-1.04296875 0.09375,0.57421875 0.4804688,1.04296875 1.1015625,1.04296875 0.7734375,0 1.2539063,-0.609375 1.6171876,-1.34765626 0.234375,-0.4921875 0.609375,-1.8515625 0.609375,-2.4609375 z m 4.256836,-2.3203125 c 0.09375,-0.3632812 0.117187,-0.46875 1.054687,-0.46875 0.304688,0 0.375,0 0.375,-0.1875 0,-0.1289062 -0.105468,-0.1289062 -0.152343,-0.1289062 -0.328125,0 -1.148438,0.035156 -1.476563,0.035156 -0.304687,0 -1.03125,-0.035156 -1.324219,-0.035156 -0.07031,0 -0.1875,0 -0.1875,0.1992187 0,0.1171875 0.08203,0.1171875 0.28125,0.1171875 0.01172,0 0.199219,0 0.375,0.011719 0.175782,0.023437 0.269532,0.035156 0.269532,0.1640625 0,0.035156 -0.01172,0.070312 -0.04687,0.1875 l -1.335938,5.35546871 c -0.09375,0.38671875 -0.117187,0.46875 -0.902344,0.46875 -0.164062,0 -0.269531,0 -0.269531,0.19921875 0,0.1054687525 0.09375,0.1054687525 0.269531,0.1054687525 h 4.617188 c 0.234375,0 0.246094,0 0.304687,-0.1640625025 L 17.579896,-2.320867 c 0.04687,-0.1054687 0.04687,-0.1289062 0.04687,-0.140625 0,-0.035156 -0.03516,-0.1054687 -0.128907,-0.1054687 -0.08203,0 -0.09375,0.046875 -0.164062,0.2109375 -0.339844,0.9140625 -0.773438,2.05078121 -2.496094,2.05078121 h -0.9375 c -0.140625,0 -0.164062,0 -0.222656,-0.0117188 -0.105469,-0.0117188 -0.128906,-0.0234375 -0.128906,-0.10546875 0,-0.0234375 0,-0.046875 0.04687,-0.22265625 z m 0,0"
         style="fill:#000000;fill-opacity:1;fill-rule:nonzero;stroke:none" />
      <path
         id="path21"
         d="m 21.52618,0.22796094 h -0.234375 c -0.02344,0.15234375 -0.08203,0.5625 -0.175782,0.6328125 -0.05859,0.0351563 -0.597656,0.0351563 -0.691406,0.0351563 h -1.289062 c 0.738281,-0.64453125 0.984375,-0.84375 1.394531,-1.171875 0.515625,-0.41015625 0.996094,-0.84374994 0.996094,-1.49999994 0,-0.8437501 -0.738282,-1.3593751 -1.628907,-1.3593751 -0.867187,0 -1.453125,0.609375 -1.453125,1.2421876 0,0.3632812 0.304688,0.3984375 0.375,0.3984375 0.164063,0 0.375,-0.1171875 0.375,-0.375 0,-0.1289063 -0.05859,-0.3632814 -0.421875,-0.3632814 0.222657,-0.5039062 0.691407,-0.65625 1.019532,-0.65625 0.703125,0 1.066406,0.5507813 1.066406,1.1132813 0,0.609375 -0.433594,1.08984379 -0.65625,1.33593754 l -1.6875,1.66406246 c -0.07031,0.058594 -0.07031,0.070312 -0.07031,0.2695312 h 2.882813 z m 0,0"
         style="fill:#000000;fill-opacity:1;fill-rule:nonzero;stroke:none" />
    </g>
    <path
       id="path22"
       d="m 129.14781,0 c 0,0.87656 -0.71058,1.58714 -1.58716,1.58714 -0.87655,0 -1.58714,-0.71058 -1.58714,-1.58714 0,-0.87656 0.71059,-1.58714 1.58714,-1.58714 0.87658,0 1.58716,0.71058 1.58716,1.58714 z"
       style="fill:#ffffff;fill-opacity:1;fill-rule:nonzero;stroke:#000000;stroke-width:0.3985;stroke-linecap:butt;stroke-linejoin:miter;stroke-miterlimit:10;stroke-dasharray:none;stroke-opacity:1"
       transform="matrix(1.3333333,0,0,-1.3333333,23.912,129.31333)" />
    <g
       id="g22"
       aria-label="2&#10;′"
       transform="matrix(1.3333333,0,0,1.3333333,198.68533,134.30667)">
      <path
         id="path23"
         d="M 1.2643203,-0.76027344 2.3190078,-1.7915234 c 1.5585938,-1.3710938 2.15625,-1.9101563 2.15625,-2.90625 0,-1.1367188 -0.9023437,-1.9335938 -2.1210937,-1.9335938 -1.125,0 -1.85156254,0.9140625 -1.85156254,1.8046875 0,0.5507813 0.4921875,0.5507813 0.52734374,0.5507813 0.1640625,0 0.515625,-0.1171875 0.515625,-0.5273438 0,-0.2578125 -0.1875,-0.515625 -0.5273437,-0.515625 -0.0820313,0 -0.10546879,0 -0.12890629,0.011719 0.22265629,-0.6445313 0.76171879,-1.0195313 1.33593749,-1.0195313 0.9140625,0 1.3359375,0.8085938 1.3359375,1.6289063 0,0.796875 -0.4921875,1.5820312 -1.0429687,2.203125 L 0.60807031,-0.36183594 C 0.50260156,-0.25636719 0.50260156,-0.23292969 0.50260156,0.00144531 H 4.1940078 l 0.28125,-1.73437501 H 4.2174453 c -0.046875,0.3046875 -0.1171875,0.73828126 -0.2109375,0.89062501 -0.070312,0.0820313 -0.7265625,0.0820313 -0.9492187,0.0820313 z m 0,0"
         style="fill:#000000;fill-opacity:1;fill-rule:nonzero;stroke:none" />
      <path
         id="path24"
         d="m 7.0094375,-6.9096875 c 0.046875,-0.1171875 0.058594,-0.1757813 0.058594,-0.2226563 0,-0.2109375 -0.1992188,-0.3867187 -0.4101563,-0.3867187 -0.2695312,0 -0.3515625,0.2226562 -0.3867187,0.328125 L 5.3570938,-4.1675 c -0.011719,0.011719 -0.035156,0.1054687 -0.035156,0.1171875 0,0.082031 0.2109375,0.1523437 0.2695313,0.1523437 0.046875,0 0.058594,-0.023437 0.1054687,-0.1289062 z m 0,0"
         style="fill:#000000;fill-opacity:1;fill-rule:nonzero;stroke:none" />
    </g>
    <path
       id="path25"
       d="m 6.5635937,-2.2973203 c 0.1757813,0 0.3515625,0 0.3515625,-0.1992188 0,-0.1992187 -0.1757812,-0.1992187 -0.3515625,-0.1992187 h -5.390625 c -0.1640625,0 -0.3398437,0 -0.3398437,0.1992187 0,0.1992188 0.1757812,0.1992188 0.3398437,0.1992188 z m 0,0"
       style="fill:#000000;fill-opacity:1;fill-rule:nonzero;stroke:none"
       aria-label="−"
       transform="matrix(1.3333333,0,0,1.3333333,188.82667,115.692)" />
    <path
       id="path26"
       d="m 4.0792187,-2.29825 h 2.7773438 c 0.140625,0 0.328125,0 0.328125,-0.1992187 0,-0.1992188 -0.1875,-0.1992188 -0.328125,-0.1992188 H 4.0792187 V -5.48575 c 0,-0.1289062 0,-0.328125 -0.1992187,-0.328125 -0.1992188,0 -0.1992188,0.1992188 -0.1992188,0.328125 v 2.7890625 H 0.89171875 c -0.140625,0 -0.328125,0 -0.328125,0.1992188 0,0.1992187 0.1875,0.1992187 0.328125,0.1992187 H 3.6807812 v 2.80078125 c 0,0.12890625 0,0.328125 0.1992188,0.328125 0.1992187,0 0.1992187,-0.19921875 0.1992187,-0.328125 z m 0,0"
       style="fill:#000000;fill-opacity:1;fill-rule:nonzero;stroke:none"
       aria-label="+"
       transform="matrix(1.3333333,0,0,1.3333333,188.82667,36.189333)" />
    <g
       id="g26"
       aria-label="˙&#10;U&#10;2"
       transform="matrix(1.3333333,0,0,1.3333333,190.26267,74.38)">
      <path
         id="path27"
         d="m 1.9094453,-6.1414453 c 0,-0.2695313 -0.2226562,-0.5273438 -0.5273437,-0.5273438 -0.3398438,0 -0.53906254,0.28125 -0.53906254,0.5273438 0,0.2695312 0.23437504,0.5273437 0.52734374,0.5273437 0.3398438,0 0.5390625,-0.2695312 0.5390625,-0.5273437 z m 0,0"
         style="fill:#000000;fill-opacity:1;fill-rule:nonzero;stroke:none" />
      <path
         id="path28"
         d="m 3.4914766,-3.2351953 c 0.09375,-0.4101563 0.28125,-0.7148438 1.078125,-0.7382813 0.046875,0 0.1640625,-0.011719 0.1640625,-0.1992187 0,-0.011719 0,-0.1171875 -0.1289063,-0.1171875 -0.328125,0 -0.6796875,0.035156 -1.0195312,0.035156 -0.3398438,0 -0.703125,-0.035156 -1.03125,-0.035156 -0.058594,0 -0.1757813,0 -0.1757813,0.1992187 0,0.1171875 0.09375,0.1171875 0.1757813,0.1171875 0.5625,0.011719 0.6796875,0.2109375 0.6796875,0.4335938 0,0.035156 -0.023437,0.1757812 -0.035156,0.2109375 L 2.3078828,0.22183594 C 1.9680391,1.5577734 0.81960156,2.4249609 -0.17649219,2.4249609 c -0.6796875,0 -1.21875001,-0.4335937 -1.21875001,-1.2890625 0,-0.023437 0,-0.33984371 0.1171875,-0.77343746 l 0.96093751,-3.87890624 c 0.09375,-0.3632813 0.10546875,-0.4570313 0.83203125,-0.4570313 0.26953125,0 0.33984375,0 0.33984375,-0.1992187 0,-0.1171875 -0.10546875,-0.1171875 -0.140625,-0.1171875 -0.26953125,0 -0.99609375,0.035156 -1.265625,0.035156 -0.29296875,0 -0.99609371,-0.035156 -1.28906251,-0.035156 -0.082031,0 -0.1875,0 -0.1875,0.1992187 0,0.1171875 0.09375,0.1171875 0.28125,0.1171875 0.011719,0 0.2109375,0 0.375,0.011719 0.1757813,0.023437 0.2695313,0.035156 0.2695313,0.1640625 0,0.058594 -0.1054688,0.4804687 -0.1757813,0.703125 l -0.2109375,0.8789062 c -0.09375,0.3867188 -0.5742187,2.27343754 -0.609375,2.46093754 -0.070312,0.28125 -0.070312,0.43359375 -0.070312,0.57421875 0,1.21875001 0.9023438,1.92187501 1.95703126,1.92187501 1.25390624,0 2.48437504,-1.125 2.81250004,-2.44921876 z m 0,0"
         style="fill:#000000;fill-opacity:1;fill-rule:nonzero;stroke:none" />
      <path
         id="path29"
         d="m 7.4817109,2.7472266 h -0.234375 c -0.023437,0.1523437 -0.082031,0.5625 -0.1757812,0.6328125 -0.058594,0.035156 -0.5976563,0.035156 -0.6914063,0.035156 H 5.0910859 c 0.7382813,-0.6445312 0.984375,-0.84375 1.3945313,-1.171875 0.515625,-0.4101562 0.9960937,-0.84375 0.9960937,-1.49999999 0,-0.84375 -0.7382812,-1.359375 -1.6289062,-1.359375 -0.8671875,0 -1.453125,0.609375 -1.453125,1.2421875 0,0.36328125 0.3046875,0.39843749 0.375,0.39843749 0.1640625,0 0.375,-0.11718749 0.375,-0.37499999 0,-0.12890625 -0.058594,-0.36328125 -0.421875,-0.36328125 0.2226562,-0.50390625 0.6914062,-0.65625 1.0195312,-0.65625 0.703125,0 1.0664063,0.55078125 1.0664063,1.11328125 0,0.60937499 -0.4335938,1.08984379 -0.65625,1.33593749 l -1.6875,1.6640625 c -0.070312,0.058594 -0.070312,0.070312 -0.070312,0.2695313 h 2.8828125 z m 0,0"
         style="fill:#000000;fill-opacity:1;fill-rule:nonzero;stroke:none" />
    </g>
    <path
       id="path30"
       d="M 1.2643203,-0.76144531 2.3190078,-1.7926953 c 1.5585938,-1.3710938 2.15625,-1.9101563 2.15625,-2.90625 0,-1.1367188 -0.9023437,-1.9335938 -2.1210937,-1.9335938 -1.125,0 -1.85156254,0.9140625 -1.85156254,1.8046875 0,0.5507813 0.4921875,0.5507813 0.52734374,0.5507813 0.1640625,0 0.515625,-0.1171875 0.515625,-0.5273438 0,-0.2578125 -0.1875,-0.515625 -0.5273437,-0.515625 -0.0820313,0 -0.10546879,0 -0.12890629,0.011719 0.22265629,-0.6445313 0.76171879,-1.0195313 1.33593749,-1.0195313 0.9140625,0 1.3359375,0.8085938 1.3359375,1.6289063 0,0.796875 -0.4921875,1.5820312 -1.0429687,2.203125 L 0.60807031,-0.36300781 C 0.50260156,-0.25753906 0.50260156,-0.23410156 0.50260156,2.734375e-4 H 4.1940078 L 4.4752578,-1.7341016 H 4.2174453 c -0.046875,0.3046875 -0.1171875,0.73828129 -0.2109375,0.89062504 -0.070312,0.0820313 -0.7265625,0.0820313 -0.9492187,0.0820313 z m 0,0"
       style="fill:#000000;fill-opacity:1;fill-rule:nonzero;stroke:none"
       aria-label="2"
       transform="matrix(1.3333333,0,0,1.3333333,198.68533,20.206667)" />
    <path
       id="path31"
       d="m 3.948875,-6.2227266 c 0,-0.1875 -0.1289063,-0.3632812 -0.375,-0.3632812 -0.2226563,0 -0.5273438,0.234375 -0.5273438,0.5273437 0,0.1992188 0.140625,0.3632813 0.375,0.3632813 0.2695313,0 0.5273438,-0.2578125 0.5273438,-0.5273438 z M 1.9566875,0.50383594 C 1.7574687,1.2538359 1.2887187,1.8280547 0.72621875,1.8280547 c -0.0585938,0 -0.2109375,0 -0.38671875,-0.09375 0.29296875,-0.070312 0.4453125,-0.328125 0.4453125,-0.5273438 0,-0.1640625 -0.10546875,-0.35156246 -0.375,-0.35156246 -0.24609375,0 -0.5390625,0.21093746 -0.5390625,0.57421876 0,0.3984375 0.3984375,0.609375 0.87890625,0.609375 0.69140625,0 1.61718745,-0.5273438 1.87499995,-1.51171876 L 3.5387187,-3.1172578 c 0.046875,-0.1992188 0.046875,-0.3398438 0.046875,-0.375 0,-0.5625 -0.421875,-0.9140625 -0.9140625,-0.9140625 -1.0195312,0 -1.5820312,1.453125 -1.5820312,1.5351562 0,0.1054688 0.09375,0.1054688 0.1171875,0.1054688 0.09375,0 0.09375,-0.011719 0.1757812,-0.1992188 0.2460938,-0.609375 0.7148438,-1.21875 1.2539063,-1.21875 0.140625,0 0.3164062,0.035156 0.3164062,0.4570313 0,0.234375 -0.023437,0.3398437 -0.058594,0.5039062 z M 10.687156,-3.7031953 c 0,-0.4453125 -0.175781,-0.703125 -0.398437,-0.703125 -0.257813,0 -0.527344,0.2460937 -0.527344,0.46875 0,0.1054687 0.046875,0.2109375 0.1523437,0.3046875 0.1640623,0.140625 0.3515623,0.4101562 0.3515623,0.8320312 0,0.3984375 -0.1875,0.9726563 -0.503906,1.4296875 -0.2929688,0.42187504 -0.6679688,0.76171879 -1.1367188,0.76171879 -0.5625,0 -0.8671875,-0.3515625 -0.9609375,-0.89062499 0.1054688,-0.2578125 0.3398438,-0.9023438 0.3398438,-1.1835938 0,-0.1171875 -0.046875,-0.2109375 -0.1875,-0.2109375 -0.070312,0 -0.1875,0.011719 -0.2578125,0.1640625 -0.1171875,0.1992188 -0.234375,0.84375 -0.234375,1.2070313 -0.328125,0.46875 -0.7265625,0.91406249 -1.359375,0.91406249 -0.65625,0 -0.8671875,-0.58593749 -0.8671875,-1.14843749 0,-1.2421875 1.0195312,-2.2851563 1.0195312,-2.4140625 0,-0.1171875 -0.082031,-0.1875 -0.1875,-0.1875 -0.1289062,0 -0.1992187,0.1289062 -0.2578125,0.2109375 -0.5039062,0.7382812 -0.890625,1.921875 -0.890625,2.8359375 0,0.67968749 0.234375,1.41796874 1.0429688,1.41796874 0.7148437,0 1.1835937,-0.4921875 1.5351562,-1.04296875 0.09375,0.57421875 0.4804688,1.04296875 1.1015625,1.04296875 0.7734375,0 1.2539063,-0.609375 1.6171873,-1.34765624 0.234375,-0.4921875 0.609375,-1.8515625 0.609375,-2.4609375 z m 9.75293,-2.3320313 c 0.09375,-0.3632812 0.105469,-0.4570312 0.855469,-0.4570312 0.234375,0 0.316406,0 0.316406,-0.1992188 0,-0.1171875 -0.09375,-0.1171875 -0.269531,-0.1171875 h -1.3125 c -0.257813,0 -0.269532,0 -0.386719,0.1992188 l -3.632813,5.67187499 -0.773437,-5.63671879 c -0.03516,-0.234375 -0.05859,-0.234375 -0.316406,-0.234375 H 13.56118 c -0.1875,0 -0.304688,0 -0.304688,0.1992188 0,0.1171875 0.09375,0.1171875 0.292969,0.1171875 0.128906,0 0.304687,0.011719 0.421875,0.011719 0.164062,0.023437 0.222656,0.058594 0.222656,0.1640625 0,0.035156 -0.01172,0.070312 -0.03516,0.1875 l -1.265625,5.0742188 c -0.105469,0.39843749 -0.269531,0.71484374 -1.078125,0.74999999 -0.04687,0 -0.175781,0 -0.175781,0.1875 0,0.08203125 0.05859,0.1171874975 0.140625,0.1171874975 0.316406,0 0.667968,-0.0351562475 0.996093,-0.0351562475 0.339844,0 0.691407,0.0351562475 1.019532,0.0351562475 0.04687,0 0.175781,0 0.175781,-0.1992187475 0,-0.10546875 -0.105469,-0.10546875 -0.175781,-0.10546875 -0.5625,-0.0117188 -0.679688,-0.2109375 -0.679688,-0.4453125 0,-0.0703125 0.01172,-0.1171875 0.04687,-0.22265625 l 1.347656,-5.43750004 h 0.01172 l 0.855469,6.17578129 c 0.02344,0.12890625 0.03516,0.2343749975 0.152344,0.2343749975 0.105468,0 0.175781,-0.1054687475 0.222656,-0.1757812475 l 4.019531,-6.30468754 h 0.01172 l -1.429688,5.70703129 c -0.09375,0.38671875 -0.117187,0.46875 -0.902343,0.46875 -0.164063,0 -0.28125,0 -0.28125,0.1875 0,0.1171874975 0.128906,0.1171874975 0.152343,0.1171874975 0.28125,0 0.960938,-0.0351562475 1.230469,-0.0351562475 0.410156,0 0.84375,0.0351562475 1.253906,0.0351562475 0.05859,0 0.1875,0 0.1875,-0.1992187475 0,-0.10546875 -0.09375,-0.10546875 -0.28125,-0.10546875 -0.363281,0 -0.644531,0 -0.644531,-0.1875 0,-0.0351563 0,-0.0585938 0.04687,-0.234375 z m 0,0"
       style="fill:#000000;fill-opacity:1;fill-rule:nonzero;stroke:none"
       aria-label="jωM"
       transform="matrix(1.3333333,0,0,1.3333333,94.297333,13.504)" />
    <path
       id="path32"
       d="m 54.00084,72.28423 c 0,0.46975 -0.38083,0.85058 -0.85059,0.85058 -0.46975,0 -0.85057,-0.38083 -0.85057,-0.85058 0,-0.46976 0.38082,-0.85058 0.85057,-0.85058 0.46976,0 0.85059,0.38082 0.85059,0.85058 z"
       style="fill:#000000;fill-opacity:1;fill-rule:nonzero;stroke:#000000;stroke-width:0.3985;stroke-linecap:butt;stroke-linejoin:miter;stroke-miterlimit:10;stroke-dasharray:none;stroke-opacity:1"
       transform="matrix(1.3333333,0,0,-1.3333333,23.912,129.31333)" />
    <path
       id="path33"
       d="m 75.26096,72.28423 c 0,0.46975 -0.38083,0.85058 -0.85057,0.85058 -0.46976,0 -0.85059,-0.38083 -0.85059,-0.85058 0,-0.46976 0.38083,-0.85058 0.85059,-0.85058 0.46974,0 0.85057,0.38082 0.85057,0.85058 z"
       style="fill:#000000;fill-opacity:1;fill-rule:nonzero;stroke:#000000;stroke-width:0.3985;stroke-linecap:butt;stroke-linejoin:miter;stroke-miterlimit:10;stroke-dasharray:none;stroke-opacity:1"
       transform="matrix(1.3333333,0,0,-1.3333333,23.912,129.31333)" />
    <path
       id="path34"
       d="M 58.8198,81.40036 54.63788,74.74774"
       style="fill:none;stroke:#000000;stroke-width:0.3985;stroke-linecap:butt;stroke-linejoin:miter;stroke-miterlimit:10;stroke-dasharray:none;stroke-opacity:1"
       transform="matrix(1.3333333,0,0,-1.3333333,23.912,129.31333)" />
    <path
       id="path35"
       d="M -2.07224,2.39104 C -1.69365,0.95639 -0.84999,0.27895 0,0 -0.84999,-0.27895 -1.69365,-0.95639 -2.07224,-2.39104"
       style="fill:none;stroke:#000000;stroke-width:0.3985;stroke-linecap:round;stroke-linejoin:round;stroke-miterlimit:10;stroke-dasharray:none;stroke-opacity:1"
       transform="matrix(-0.70956,1.1288,1.1288,0.70956,96.621133,29.874587)" />
    <path
       id="path36"
       d="m 68.74084,81.40036 4.18192,-6.65262"
       style="fill:none;stroke:#000000;stroke-width:0.3985;stroke-linecap:butt;stroke-linejoin:miter;stroke-miterlimit:10;stroke-dasharray:none;stroke-opacity:1"
       transform="matrix(1.3333333,0,0,-1.3333333,23.912,129.31333)" />
    <path
       id="path37"
       d="M -2.07224,2.39104 C -1.69365,0.95639 -0.84999,0.27895 0,0 -0.84999,-0.27895 -1.69365,-0.95639 -2.07224,-2.39104"
       style="fill:none;stroke:#000000;stroke-width:0.3985;stroke-linecap:round;stroke-linejoin:round;stroke-miterlimit:10;stroke-dasharray:none;stroke-opacity:1"
       transform="matrix(0.70956,1.1288,1.1288,-0.70956,121.28373,29.874587)" />
  </g>
</svg>
